<svg width="24" height="25" viewBox="0 0 24 25" fill="none" xmlns="http://www.w3.org/2000/svg">
<path d="M12 21.2934L11.616 20.8614C11.376 20.6214 5.76001 13.9974 5.76001 10.0134C5.76001 6.55744 8.54401 3.77344 12 3.77344C15.456 3.77344 18.24 6.55744 18.24 10.0134C18.24 13.9974 12.624 20.6214 12.384 20.9094L12 21.2934ZM12 4.73344C9.07201 4.73344 6.72001 7.08544 6.72001 10.0134C6.72001 13.0854 10.752 18.2694 12 19.8054C13.248 18.2694 17.28 13.0854 17.28 10.0134C17.28 7.08544 14.928 4.73344 12 4.73344Z" fill="#1E1E2D"/>
<path d="M12 12.4138C10.656 12.4138 9.59998 11.3578 9.59998 10.0138C9.59998 8.66977 10.656 7.61377 12 7.61377C13.344 7.61377 14.4 8.66977 14.4 10.0138C14.4 11.3578 13.344 12.4138 12 12.4138ZM12 8.57377C11.184 8.57377 10.56 9.19777 10.56 10.0138C10.56 10.8298 11.184 11.4538 12 11.4538C12.816 11.4538 13.44 10.8298 13.44 10.0138C13.44 9.19777 12.816 8.57377 12 8.57377Z" fill="#1E1E2D"/>
</svg>
