<svg width="881" height="70" viewBox="0 0 881 70" fill="none" xmlns="http://www.w3.org/2000/svg">
<path d="M17.368 14.76V28.392H39.352V41.064H17.368V55.848H42.232V69H0.952V1.608H42.232V14.76H17.368ZM113.178 69H96.7615L69.3055 27.432V69H52.8895V1.608H69.3055L96.7615 43.368V1.608H113.178V69ZM167.317 1.608V47.496C167.317 54.6 165.301 60.072 161.269 63.912C157.301 67.752 151.925 69.672 145.141 69.672C138.037 69.672 132.341 67.656 128.053 63.624C123.765 59.592 121.621 53.864 121.621 46.44H137.941C137.941 49.256 138.517 51.4 139.669 52.872C140.821 54.28 142.485 54.984 144.661 54.984C146.645 54.984 148.181 54.344 149.269 53.064C150.357 51.784 150.901 49.928 150.901 47.496V1.608H167.317ZM212.449 69.672C206.113 69.672 200.289 68.2 194.977 65.256C189.729 62.312 185.537 58.216 182.401 52.968C179.329 47.656 177.793 41.704 177.793 35.112C177.793 28.52 179.329 22.6 182.401 17.352C185.537 12.104 189.729 8.008 194.977 5.064C200.289 2.12 206.113 0.647999 212.449 0.647999C218.785 0.647999 224.577 2.12 229.825 5.064C235.137 8.008 239.297 12.104 242.305 17.352C245.377 22.6 246.913 28.52 246.913 35.112C246.913 41.704 245.377 47.656 242.305 52.968C239.233 58.216 235.073 62.312 229.825 65.256C224.577 68.2 218.785 69.672 212.449 69.672ZM212.449 54.696C217.825 54.696 222.113 52.904 225.313 49.32C228.577 45.736 230.209 41 230.209 35.112C230.209 29.16 228.577 24.424 225.313 20.904C222.113 17.32 217.825 15.528 212.449 15.528C207.009 15.528 202.657 17.288 199.393 20.808C196.193 24.328 194.593 29.096 194.593 35.112C194.593 41.064 196.193 45.832 199.393 49.416C202.657 52.936 207.009 54.696 212.449 54.696ZM313.838 1.608L290.51 46.728V69H274.094V46.728L250.766 1.608H269.39L282.446 29.832L295.406 1.608H313.838ZM398.588 1.608L375.26 46.728V69H358.844V46.728L335.516 1.608H354.14L367.196 29.832L380.156 1.608H398.588ZM437.074 69.672C430.738 69.672 424.914 68.2 419.602 65.256C414.354 62.312 410.162 58.216 407.026 52.968C403.954 47.656 402.418 41.704 402.418 35.112C402.418 28.52 403.954 22.6 407.026 17.352C410.162 12.104 414.354 8.008 419.602 5.064C424.914 2.12 430.738 0.647999 437.074 0.647999C443.41 0.647999 449.202 2.12 454.45 5.064C459.762 8.008 463.922 12.104 466.93 17.352C470.002 22.6 471.538 28.52 471.538 35.112C471.538 41.704 470.002 47.656 466.93 52.968C463.858 58.216 459.698 62.312 454.45 65.256C449.202 68.2 443.41 69.672 437.074 69.672ZM437.074 54.696C442.45 54.696 446.738 52.904 449.938 49.32C453.202 45.736 454.834 41 454.834 35.112C454.834 29.16 453.202 24.424 449.938 20.904C446.738 17.32 442.45 15.528 437.074 15.528C431.634 15.528 427.282 17.288 424.018 20.808C420.818 24.328 419.218 29.096 419.218 35.112C419.218 41.064 420.818 45.832 424.018 49.416C427.282 52.936 431.634 54.696 437.074 54.696ZM496.799 1.608V41.928C496.799 45.96 497.791 49.064 499.775 51.24C501.759 53.416 504.671 54.504 508.511 54.504C512.351 54.504 515.295 53.416 517.343 51.24C519.391 49.064 520.415 45.96 520.415 41.928V1.608H536.831V41.832C536.831 47.848 535.551 52.936 532.991 57.096C530.431 61.256 526.975 64.392 522.623 66.504C518.335 68.616 513.535 69.672 508.223 69.672C502.911 69.672 498.143 68.648 493.919 66.6C489.759 64.488 486.463 61.352 484.031 57.192C481.599 52.968 480.383 47.848 480.383 41.832V1.608H496.799ZM582.726 69L568.71 43.56H564.774V69H548.358V1.608H575.91C581.222 1.608 585.734 2.536 589.446 4.392C593.222 6.248 596.038 8.80799 597.894 12.072C599.75 15.272 600.678 18.856 600.678 22.824C600.678 27.304 599.398 31.304 596.838 34.824C594.342 38.344 590.63 40.84 585.702 42.312L601.254 69H582.726ZM564.774 31.944H574.95C577.958 31.944 580.198 31.208 581.67 29.736C583.206 28.264 583.974 26.184 583.974 23.496C583.974 20.936 583.206 18.92 581.67 17.448C580.198 15.976 577.958 15.24 574.95 15.24H564.774V31.944ZM707.647 1.608V69H691.231V28.584L676.159 69H662.911L647.743 28.488V69H631.327V1.608H650.719L669.631 48.264L688.351 1.608H707.647ZM735.868 14.76V28.392H757.852V41.064H735.868V55.848H760.732V69H719.452V1.608H760.732V14.76H735.868ZM813.342 57.096H788.19L784.158 69H766.974L791.358 1.608H810.366L834.75 69H817.374L813.342 57.096ZM809.118 44.424L800.766 19.752L792.51 44.424H809.118ZM858.587 56.328H880.091V69H842.171V1.608H858.587V56.328Z" fill="#F9854E"/>
</svg>
