<svg width="24" height="24" viewBox="0 0 24 24" fill="none" xmlns="http://www.w3.org/2000/svg">
<path d="M19.5 12C19.5 11.8011 19.579 11.6103 19.7197 11.4697C19.8603 11.329 20.0511 11.25 20.25 11.25C20.4489 11.25 20.6397 11.329 20.7803 11.4697C20.921 11.6103 21 11.8011 21 12V20.25C21 20.4489 20.921 20.6397 20.7803 20.7803C20.6397 20.921 20.4489 21 20.25 21H3.75C3.55109 21 3.36032 20.921 3.21967 20.7803C3.07902 20.6397 3 20.4489 3 20.25V3.75C3 3.55109 3.07902 3.36032 3.21967 3.21967C3.36032 3.07902 3.55109 3 3.75 3H12C12.1989 3 12.3897 3.07902 12.5303 3.21967C12.671 3.36032 12.75 3.55109 12.75 3.75C12.75 3.94891 12.671 4.13968 12.5303 4.28033C12.3897 4.42098 12.1989 4.5 12 4.5H4.5V19.5H19.5V12Z" fill="#8B8B8B"/>
<path d="M11.0145 12.9909L12.252 12.8139L19.854 5.21336C19.9256 5.14418 19.9827 5.06142 20.0221 4.96992C20.0614 4.87841 20.082 4.78 20.0829 4.68041C20.0838 4.58083 20.0648 4.48207 20.0271 4.3899C19.9894 4.29773 19.9337 4.21399 19.8633 4.14357C19.7929 4.07315 19.7091 4.01746 19.6169 3.97975C19.5248 3.94204 19.426 3.92306 19.3264 3.92393C19.2268 3.92479 19.1284 3.94548 19.0369 3.98479C18.9454 4.02409 18.8627 4.08123 18.7935 4.15286L11.19 11.7534L11.013 12.9909H11.0145ZM20.9145 3.09086C21.1236 3.29981 21.2894 3.54792 21.4026 3.82099C21.5158 4.09407 21.574 4.38677 21.574 4.68236C21.574 4.97796 21.5158 5.27066 21.4026 5.54373C21.2894 5.81681 21.1236 6.06491 20.9145 6.27386L13.137 14.0514C13.0223 14.1665 12.8733 14.2412 12.7125 14.2644L10.2375 14.6184C10.1221 14.6349 10.0045 14.6244 9.89395 14.5876C9.78339 14.5508 9.68293 14.4887 9.60053 14.4063C9.51813 14.3239 9.45607 14.2234 9.41926 14.1129C9.38245 14.0023 9.37191 13.8847 9.38848 13.7694L9.74248 11.2944C9.7652 11.1337 9.83942 10.9848 9.95398 10.8699L17.733 3.09236C18.1549 2.67055 18.7271 2.43359 19.3237 2.43359C19.9203 2.43359 20.4925 2.67055 20.9145 3.09236V3.09086Z" fill="#8B8B8B"/>
</svg>
