<svg width="24" height="24" viewBox="0 0 24 24" fill="none" xmlns="http://www.w3.org/2000/svg">
<path d="M12 12.0471L11.6464 11.6935L9.4121 9.4592C9.41208 9.45918 9.41206 9.45916 9.41205 9.45915C9.35579 9.40294 9.27952 9.37136 9.2 9.37136C9.1205 9.37136 9.04425 9.40292 8.98801 9.45909C8.98797 9.45913 8.98794 9.45916 8.9879 9.4592M12 12.0471L8.6344 10.2368C8.48442 10.0868 8.40017 9.88332 8.40017 9.67119C8.40017 9.45906 8.48442 9.25561 8.6344 9.10559L8.9879 9.4592M12 12.0471L12.3536 11.6935L14.588 9.45915L14.588 9.4592L14.594 9.45295C14.6217 9.42429 14.6548 9.40144 14.6914 9.38572L14.4941 8.92631L14.6914 9.38572C14.728 9.36999 14.7674 9.36172 14.8072 9.36137C14.8471 9.36103 14.8866 9.36862 14.9234 9.3837L15.1128 8.92093L14.9234 9.3837C14.9603 9.39879 14.9938 9.42106 15.022 9.44923C15.0501 9.4774 15.0724 9.51089 15.0875 9.54776L15.5503 9.35843L15.0875 9.54776C15.1026 9.58463 15.1102 9.62413 15.1098 9.66397C15.1095 9.7038 15.1012 9.74316 15.0855 9.77977C15.0698 9.81637 15.0469 9.84947 15.0182 9.87715L15.0182 9.87709L15.012 9.88324L12.7776 12.1176L12.4241 12.4712L12.7776 12.8247L15.0082 15.0553C15.0614 15.1117 15.0908 15.1864 15.0902 15.264C15.0895 15.3426 15.0579 15.4179 15.0023 15.4735C14.9467 15.5291 14.8714 15.5607 14.7928 15.5614C14.7152 15.562 14.6405 15.5326 14.5841 15.4794L12.3536 13.2488L12 12.8953L11.6464 13.2488L9.41586 15.4794C9.35954 15.5326 9.28478 15.562 9.20722 15.5614C9.12857 15.5607 9.05332 15.5291 8.9977 15.4735C8.94208 15.4179 8.91053 15.3426 8.90984 15.264C8.90917 15.1864 8.93855 15.1117 8.99176 15.0553L11.2224 12.8247L11.5759 12.4712L11.2224 12.1176L8.98801 9.88329M12 12.0471L8.98801 9.88329M8.9879 9.4592C8.93173 9.51545 8.90017 9.59169 8.90017 9.67119C8.90017 9.75072 8.93175 9.82698 8.98795 9.88324M8.9879 9.4592L8.98795 9.88324M8.98801 9.88329C8.98799 9.88327 8.98797 9.88326 8.98795 9.88324M8.98801 9.88329L8.98795 9.88324M12 5.57119C10.17 5.57119 8.41496 6.29815 7.12096 7.59215C5.82696 8.88616 5.1 10.6412 5.1 12.4712C5.1 14.3012 5.82696 16.0562 7.12096 17.3502C8.41496 18.6442 10.17 19.3712 12 19.3712C13.83 19.3712 15.585 18.6442 16.879 17.3502C18.173 16.0562 18.9 14.3012 18.9 12.4712C18.9 10.6412 18.173 8.88616 16.879 7.59215C15.585 6.29815 13.83 5.57119 12 5.57119ZM4.5 12.4712C4.5 8.32893 7.85774 4.97119 12 4.97119C16.1423 4.97119 19.5 8.32893 19.5 12.4712C19.5 16.6134 16.1423 19.9712 12 19.9712C7.85774 19.9712 4.5 16.6134 4.5 12.4712Z" fill="#FF2E00" stroke="#FF2E00"/>
</svg>
