<svg width="1870" height="115" viewBox="0 0 1870 115" fill="none" xmlns="http://www.w3.org/2000/svg">
<path d="M30.368 36.76V50.392H52.352V63.064H30.368V77.848H55.232V91H13.952V23.608H55.232V36.76H30.368ZM126.178 91H109.762L82.3055 49.432V91H65.8895V23.608H82.3055L109.762 65.368V23.608H126.178V91ZM180.317 23.608V69.496C180.317 76.6 178.301 82.072 174.269 85.912C170.301 89.752 164.925 91.672 158.141 91.672C151.037 91.672 145.341 89.656 141.053 85.624C136.765 81.592 134.621 75.864 134.621 68.44H150.941C150.941 71.256 151.517 73.4 152.669 74.872C153.821 76.28 155.485 76.984 157.661 76.984C159.645 76.984 161.181 76.344 162.269 75.064C163.357 73.784 163.901 71.928 163.901 69.496V23.608H180.317ZM225.449 91.672C219.113 91.672 213.289 90.2 207.977 87.256C202.729 84.312 198.537 80.216 195.401 74.968C192.329 69.656 190.793 63.704 190.793 57.112C190.793 50.52 192.329 44.6 195.401 39.352C198.537 34.104 202.729 30.008 207.977 27.064C213.289 24.12 219.113 22.648 225.449 22.648C231.785 22.648 237.577 24.12 242.825 27.064C248.137 30.008 252.297 34.104 255.305 39.352C258.377 44.6 259.913 50.52 259.913 57.112C259.913 63.704 258.377 69.656 255.305 74.968C252.233 80.216 248.073 84.312 242.825 87.256C237.577 90.2 231.785 91.672 225.449 91.672ZM225.449 76.696C230.825 76.696 235.113 74.904 238.313 71.32C241.577 67.736 243.209 63 243.209 57.112C243.209 51.16 241.577 46.424 238.313 42.904C235.113 39.32 230.825 37.528 225.449 37.528C220.009 37.528 215.657 39.288 212.393 42.808C209.193 46.328 207.593 51.096 207.593 57.112C207.593 63.064 209.193 67.832 212.393 71.416C215.657 74.936 220.009 76.696 225.449 76.696ZM326.838 23.608L303.51 68.728V91H287.094V68.728L263.766 23.608H282.39L295.446 51.832L308.406 23.608H326.838ZM411.588 23.608L388.26 68.728V91H371.844V68.728L348.516 23.608H367.14L380.196 51.832L393.156 23.608H411.588ZM450.074 91.672C443.738 91.672 437.914 90.2 432.602 87.256C427.354 84.312 423.162 80.216 420.026 74.968C416.954 69.656 415.418 63.704 415.418 57.112C415.418 50.52 416.954 44.6 420.026 39.352C423.162 34.104 427.354 30.008 432.602 27.064C437.914 24.12 443.738 22.648 450.074 22.648C456.41 22.648 462.202 24.12 467.45 27.064C472.762 30.008 476.922 34.104 479.93 39.352C483.002 44.6 484.538 50.52 484.538 57.112C484.538 63.704 483.002 69.656 479.93 74.968C476.858 80.216 472.698 84.312 467.45 87.256C462.202 90.2 456.41 91.672 450.074 91.672ZM450.074 76.696C455.45 76.696 459.738 74.904 462.938 71.32C466.202 67.736 467.834 63 467.834 57.112C467.834 51.16 466.202 46.424 462.938 42.904C459.738 39.32 455.45 37.528 450.074 37.528C444.634 37.528 440.282 39.288 437.018 42.808C433.818 46.328 432.218 51.096 432.218 57.112C432.218 63.064 433.818 67.832 437.018 71.416C440.282 74.936 444.634 76.696 450.074 76.696ZM509.799 23.608V63.928C509.799 67.96 510.791 71.064 512.775 73.24C514.759 75.416 517.671 76.504 521.511 76.504C525.351 76.504 528.295 75.416 530.343 73.24C532.391 71.064 533.415 67.96 533.415 63.928V23.608H549.831V63.832C549.831 69.848 548.551 74.936 545.991 79.096C543.431 83.256 539.975 86.392 535.623 88.504C531.335 90.616 526.535 91.672 521.223 91.672C515.911 91.672 511.143 90.648 506.919 88.6C502.759 86.488 499.463 83.352 497.031 79.192C494.599 74.968 493.383 69.848 493.383 63.832V23.608H509.799ZM595.726 91L581.71 65.56H577.774V91H561.358V23.608H588.91C594.222 23.608 598.734 24.536 602.446 26.392C606.222 28.248 609.038 30.808 610.894 34.072C612.75 37.272 613.678 40.856 613.678 44.824C613.678 49.304 612.398 53.304 609.838 56.824C607.342 60.344 603.63 62.84 598.702 64.312L614.254 91H595.726ZM577.774 53.944H587.95C590.958 53.944 593.198 53.208 594.67 51.736C596.206 50.264 596.974 48.184 596.974 45.496C596.974 42.936 596.206 40.92 594.67 39.448C593.198 37.976 590.958 37.24 587.95 37.24H577.774V53.944ZM720.647 23.608V91H704.231V50.584L689.159 91H675.911L660.743 50.488V91H644.327V23.608H663.719L682.631 70.264L701.351 23.608H720.647ZM748.868 36.76V50.392H770.852V63.064H748.868V77.848H773.732V91H732.452V23.608H773.732V36.76H748.868ZM826.342 79.096H801.19L797.158 91H779.974L804.358 23.608H823.366L847.75 91H830.374L826.342 79.096ZM822.118 66.424L813.766 41.752L805.51 66.424H822.118ZM871.587 78.328H893.091V91H855.171V23.608H871.587V78.328Z" fill="#F9854E"/>
<circle cx="919" cy="57.5" r="8" fill="#1E1E2D"/>
<path d="M965.368 36.76V35.76H964.368V36.76H965.368ZM965.368 50.392H964.368V51.392H965.368V50.392ZM987.352 50.392H988.352V49.392H987.352V50.392ZM987.352 63.064V64.064H988.352V63.064H987.352ZM965.368 63.064V62.064H964.368V63.064H965.368ZM965.368 77.848H964.368V78.848H965.368V77.848ZM990.232 77.848H991.232V76.848H990.232V77.848ZM990.232 91V92H991.232V91H990.232ZM948.952 91H947.952V92H948.952V91ZM948.952 23.608V22.608H947.952V23.608H948.952ZM990.232 23.608H991.232V22.608H990.232V23.608ZM990.232 36.76V37.76H991.232V36.76H990.232ZM964.368 36.76V50.392H966.368V36.76H964.368ZM965.368 51.392H987.352V49.392H965.368V51.392ZM986.352 50.392V63.064H988.352V50.392H986.352ZM987.352 62.064H965.368V64.064H987.352V62.064ZM964.368 63.064V77.848H966.368V63.064H964.368ZM965.368 78.848H990.232V76.848H965.368V78.848ZM989.232 77.848V91H991.232V77.848H989.232ZM990.232 90H948.952V92H990.232V90ZM949.952 91V23.608H947.952V91H949.952ZM948.952 24.608H990.232V22.608H948.952V24.608ZM989.232 23.608V36.76H991.232V23.608H989.232ZM990.232 35.76H965.368V37.76H990.232V35.76ZM1061.18 91V92H1062.18V91H1061.18ZM1044.76 91L1043.93 91.5511L1044.22 92H1044.76V91ZM1017.31 49.432L1018.14 48.8809L1016.31 46.1036V49.432H1017.31ZM1017.31 91V92H1018.31V91H1017.31ZM1000.89 91H999.889V92H1000.89V91ZM1000.89 23.608V22.608H999.889V23.608H1000.89ZM1017.31 23.608L1018.14 23.0586L1017.84 22.608H1017.31V23.608ZM1044.76 65.368L1043.93 65.9174L1045.76 68.7092V65.368H1044.76ZM1044.76 23.608V22.608H1043.76V23.608H1044.76ZM1061.18 23.608H1062.18V22.608H1061.18V23.608ZM1061.18 90H1044.76V92H1061.18V90ZM1045.6 90.4489L1018.14 48.8809L1016.47 49.9831L1043.93 91.5511L1045.6 90.4489ZM1016.31 49.432V91H1018.31V49.432H1016.31ZM1017.31 90H1000.89V92H1017.31V90ZM1001.89 91V23.608H999.889V91H1001.89ZM1000.89 24.608H1017.31V22.608H1000.89V24.608ZM1016.47 24.1574L1043.93 65.9174L1045.6 64.8186L1018.14 23.0586L1016.47 24.1574ZM1045.76 65.368V23.608H1043.76V65.368H1045.76ZM1044.76 24.608H1061.18V22.608H1044.76V24.608ZM1060.18 23.608V91H1062.18V23.608H1060.18ZM1115.32 23.608H1116.32V22.608H1115.32V23.608ZM1109.27 85.912L1108.58 85.1878L1108.57 85.1934L1109.27 85.912ZM1076.05 85.624L1075.37 86.3525L1076.05 85.624ZM1069.62 68.44V67.44H1068.62V68.44H1069.62ZM1085.94 68.44H1086.94V67.44H1085.94V68.44ZM1087.67 74.872L1086.88 75.4883L1086.89 75.4968L1086.9 75.5052L1087.67 74.872ZM1097.27 75.064L1096.51 74.4164L1097.27 75.064ZM1098.9 23.608V22.608H1097.9V23.608H1098.9ZM1114.32 23.608V69.496H1116.32V23.608H1114.32ZM1114.32 69.496C1114.32 76.4061 1112.36 81.5854 1108.58 85.1879L1109.96 86.6361C1114.24 82.5586 1116.32 76.7939 1116.32 69.496H1114.32ZM1108.57 85.1934C1104.83 88.8136 1099.73 90.672 1093.14 90.672V92.672C1100.12 92.672 1105.77 90.6904 1109.96 86.6306L1108.57 85.1934ZM1093.14 90.672C1086.24 90.672 1080.8 88.7183 1076.74 84.8955L1075.37 86.3525C1079.88 90.5937 1085.84 92.672 1093.14 92.672V90.672ZM1076.74 84.8955C1072.7 81.0993 1070.62 75.6648 1070.62 68.44H1068.62C1068.62 76.0632 1070.83 82.0847 1075.37 86.3525L1076.74 84.8955ZM1069.62 69.44H1085.94V67.44H1069.62V69.44ZM1084.94 68.44C1084.94 71.3715 1085.54 73.771 1086.88 75.4883L1088.46 74.2557C1087.5 73.029 1086.94 71.1405 1086.94 68.44H1084.94ZM1086.9 75.5052C1088.27 77.1915 1090.25 77.984 1092.66 77.984V75.984C1090.72 75.984 1089.37 75.3685 1088.44 74.2388L1086.9 75.5052ZM1092.66 77.984C1094.88 77.984 1096.72 77.2563 1098.03 75.7116L1096.51 74.4164C1095.64 75.4317 1094.41 75.984 1092.66 75.984V77.984ZM1098.03 75.7116C1099.33 74.1849 1099.9 72.0613 1099.9 69.496H1097.9C1097.9 71.7947 1097.39 73.3831 1096.51 74.4164L1098.03 75.7116ZM1099.9 69.496V23.608H1097.9V69.496H1099.9ZM1098.9 24.608H1115.32V22.608H1098.9V24.608ZM1142.98 87.256L1142.49 88.1282L1142.49 88.1307L1142.98 87.256ZM1130.4 74.968L1129.54 75.4686L1129.54 75.4748L1129.54 75.481L1130.4 74.968ZM1130.4 39.352L1129.54 38.839L1129.54 38.8468L1130.4 39.352ZM1142.98 27.064L1142.49 26.1893L1142.49 26.1919L1142.98 27.064ZM1177.83 27.064L1177.34 27.9362L1177.34 27.9387L1177.83 27.064ZM1190.31 39.352L1189.44 39.8493L1189.44 39.8572L1190.31 39.352ZM1190.31 74.968L1191.17 75.4732L1191.17 75.4686L1190.31 74.968ZM1177.83 87.256L1178.31 88.1281L1177.83 87.256ZM1173.31 71.32L1172.57 70.6466L1172.57 70.654L1173.31 71.32ZM1173.31 42.904L1172.57 43.57L1172.57 43.577L1172.58 43.5839L1173.31 42.904ZM1147.39 42.808L1146.66 42.128L1146.65 42.1353L1147.39 42.808ZM1147.39 71.416L1146.65 72.082L1146.65 72.089L1146.66 72.0959L1147.39 71.416ZM1160.45 90.672C1154.27 90.672 1148.62 89.2395 1143.46 86.3813L1142.49 88.1307C1147.96 91.1605 1153.95 92.672 1160.45 92.672V90.672ZM1143.47 86.3839C1138.37 83.5267 1134.31 79.5556 1131.26 74.455L1129.54 75.481C1132.77 80.8764 1137.08 85.0973 1142.49 88.1281L1143.47 86.3839ZM1131.27 74.4674C1128.29 69.3188 1126.79 63.5417 1126.79 57.112H1124.79C1124.79 63.8663 1126.37 69.9932 1129.54 75.4686L1131.27 74.4674ZM1126.79 57.112C1126.79 50.6822 1128.29 44.9392 1131.26 39.8572L1129.54 38.8468C1126.37 44.2608 1124.79 50.3578 1124.79 57.112H1126.79ZM1131.26 39.865C1134.31 34.7644 1138.37 30.7933 1143.47 27.9361L1142.49 26.1919C1137.08 29.2227 1132.77 33.4436 1129.54 38.839L1131.26 39.865ZM1143.46 27.9387C1148.62 25.0805 1154.27 23.648 1160.45 23.648V21.648C1153.95 21.648 1147.96 23.1595 1142.49 26.1893L1143.46 27.9387ZM1160.45 23.648C1166.62 23.648 1172.25 25.0805 1177.34 27.9361L1178.31 26.1919C1172.91 23.1595 1166.95 21.648 1160.45 21.648V23.648ZM1177.34 27.9387C1182.49 30.7945 1186.52 34.7603 1189.44 39.8493L1191.17 38.8547C1188.07 33.4477 1183.78 29.2215 1178.31 26.1893L1177.34 27.9387ZM1189.44 39.8572C1192.42 44.9392 1193.91 50.6822 1193.91 57.112H1195.91C1195.91 50.3578 1194.34 44.2608 1191.17 38.8468L1189.44 39.8572ZM1193.91 57.112C1193.91 63.5417 1192.42 69.3188 1189.44 74.4674L1191.17 75.4686C1194.34 69.9932 1195.91 63.8663 1195.91 57.112H1193.91ZM1189.44 74.4628C1186.46 79.5592 1182.43 83.5278 1177.34 86.3839L1178.31 88.1281C1183.72 85.0962 1188.01 80.8728 1191.17 75.4732L1189.44 74.4628ZM1177.34 86.3839C1172.25 89.2395 1166.62 90.672 1160.45 90.672V92.672C1166.95 92.672 1172.91 91.1605 1178.31 88.1281L1177.34 86.3839ZM1160.45 77.696C1166.07 77.696 1170.65 75.8091 1174.06 71.986L1172.57 70.654C1169.58 73.9989 1165.58 75.696 1160.45 75.696V77.696ZM1174.05 71.9933C1177.52 68.1875 1179.21 63.1929 1179.21 57.112H1177.21C1177.21 62.8071 1175.64 67.2845 1172.57 70.6467L1174.05 71.9933ZM1179.21 57.112C1179.21 50.9712 1177.52 45.9707 1174.05 42.2241L1172.58 43.5839C1175.63 46.8773 1177.21 51.3488 1177.21 57.112H1179.21ZM1174.06 42.238C1170.65 38.4149 1166.07 36.528 1160.45 36.528V38.528C1165.58 38.528 1169.58 40.2251 1172.57 43.57L1174.06 42.238ZM1160.45 36.528C1154.77 36.528 1150.14 38.3758 1146.66 42.1281L1148.13 43.4879C1151.17 40.2002 1155.25 38.528 1160.45 38.528V36.528ZM1146.65 42.1353C1143.24 45.8843 1141.59 50.9155 1141.59 57.112H1143.59C1143.59 51.2765 1145.14 46.7716 1148.13 43.4807L1146.65 42.1353ZM1141.59 57.112C1141.59 63.2486 1143.25 68.2738 1146.65 72.082L1148.14 70.75C1145.14 67.3902 1143.59 62.8794 1143.59 57.112H1141.59ZM1146.66 72.0959C1150.14 75.8482 1154.77 77.696 1160.45 77.696V75.696C1155.25 75.696 1151.17 74.0238 1148.13 70.7361L1146.66 72.0959ZM1261.84 23.608L1262.73 24.0673L1263.48 22.608H1261.84V23.608ZM1238.51 68.728L1237.62 68.2687L1237.51 68.4848V68.728H1238.51ZM1238.51 91V92H1239.51V91H1238.51ZM1222.09 91H1221.09V92H1222.09V91ZM1222.09 68.728H1223.09V68.4848L1222.98 68.2687L1222.09 68.728ZM1198.77 23.608V22.608H1197.12L1197.88 24.0673L1198.77 23.608ZM1217.39 23.608L1218.3 23.1882L1218.03 22.608H1217.39V23.608ZM1230.45 51.832L1229.54 52.2518L1230.45 54.2211L1231.35 52.2493L1230.45 51.832ZM1243.41 23.608V22.608H1242.76L1242.5 23.1907L1243.41 23.608ZM1260.95 23.1487L1237.62 68.2687L1239.4 69.1873L1262.73 24.0673L1260.95 23.1487ZM1237.51 68.728V91H1239.51V68.728H1237.51ZM1238.51 90H1222.09V92H1238.51V90ZM1223.09 91V68.728H1221.09V91H1223.09ZM1222.98 68.2687L1199.65 23.1487L1197.88 24.0673L1221.21 69.1873L1222.98 68.2687ZM1198.77 24.608H1217.39V22.608H1198.77V24.608ZM1216.48 24.0278L1229.54 52.2518L1231.35 51.4122L1218.3 23.1882L1216.48 24.0278ZM1231.35 52.2493L1244.31 24.0253L1242.5 23.1907L1229.54 51.4147L1231.35 52.2493ZM1243.41 24.608H1261.84V22.608H1243.41V24.608ZM1346.59 23.608L1347.48 24.0673L1348.23 22.608H1346.59V23.608ZM1323.26 68.728L1322.37 68.2687L1322.26 68.4848V68.728H1323.26ZM1323.26 91V92H1324.26V91H1323.26ZM1306.84 91H1305.84V92H1306.84V91ZM1306.84 68.728H1307.84V68.4848L1307.73 68.2687L1306.84 68.728ZM1283.52 23.608V22.608H1281.87L1282.63 24.0673L1283.52 23.608ZM1302.14 23.608L1303.05 23.1882L1302.78 22.608H1302.14V23.608ZM1315.2 51.832L1314.29 52.2518L1315.2 54.2211L1316.1 52.2493L1315.2 51.832ZM1328.16 23.608V22.608H1327.51L1327.25 23.1907L1328.16 23.608ZM1345.7 23.1487L1322.37 68.2687L1324.15 69.1873L1347.48 24.0673L1345.7 23.1487ZM1322.26 68.728V91H1324.26V68.728H1322.26ZM1323.26 90H1306.84V92H1323.26V90ZM1307.84 91V68.728H1305.84V91H1307.84ZM1307.73 68.2687L1284.4 23.1487L1282.63 24.0673L1305.96 69.1873L1307.73 68.2687ZM1283.52 24.608H1302.14V22.608H1283.52V24.608ZM1301.23 24.0278L1314.29 52.2518L1316.1 51.4122L1303.05 23.1882L1301.23 24.0278ZM1316.1 52.2493L1329.06 24.0253L1327.25 23.1907L1314.29 51.4147L1316.1 52.2493ZM1328.16 24.608H1346.59V22.608H1328.16V24.608ZM1367.6 87.256L1367.11 88.1282L1367.12 88.1307L1367.6 87.256ZM1355.03 74.968L1354.16 75.4686L1354.16 75.4748L1354.17 75.481L1355.03 74.968ZM1355.03 39.352L1354.17 38.839L1354.16 38.8468L1355.03 39.352ZM1367.6 27.064L1367.12 26.1893L1367.11 26.1919L1367.6 27.064ZM1402.45 27.064L1401.96 27.9362L1401.97 27.9387L1402.45 27.064ZM1414.93 39.352L1414.06 39.8493L1414.07 39.8572L1414.93 39.352ZM1414.93 74.968L1415.79 75.4732L1415.8 75.4686L1414.93 74.968ZM1402.45 87.256L1402.94 88.1281L1402.45 87.256ZM1397.94 71.32L1397.2 70.6466L1397.19 70.654L1397.94 71.32ZM1397.94 42.904L1397.19 43.57L1397.2 43.577L1397.2 43.5839L1397.94 42.904ZM1372.02 42.808L1371.28 42.128L1371.28 42.1353L1372.02 42.808ZM1372.02 71.416L1371.27 72.082L1371.28 72.089L1371.28 72.0959L1372.02 71.416ZM1385.07 90.672C1378.9 90.672 1373.24 89.2395 1368.09 86.3813L1367.12 88.1307C1372.58 91.1605 1378.58 92.672 1385.07 92.672V90.672ZM1368.09 86.3839C1363 83.5267 1358.93 79.5556 1355.88 74.455L1354.17 75.481C1357.39 80.8764 1361.71 85.0973 1367.11 88.1281L1368.09 86.3839ZM1355.89 74.4674C1352.91 69.3188 1351.42 63.5417 1351.42 57.112H1349.42C1349.42 63.8663 1350.99 69.9932 1354.16 75.4686L1355.89 74.4674ZM1351.42 57.112C1351.42 50.6822 1352.91 44.9392 1355.89 39.8572L1354.16 38.8468C1350.99 44.2608 1349.42 50.3578 1349.42 57.112H1351.42ZM1355.88 39.865C1358.93 34.7644 1363 30.7933 1368.09 27.9361L1367.11 26.1919C1361.71 29.2227 1357.39 33.4436 1354.17 38.839L1355.88 39.865ZM1368.09 27.9387C1373.24 25.0805 1378.9 23.648 1385.07 23.648V21.648C1378.58 21.648 1372.58 23.1595 1367.12 26.1893L1368.09 27.9387ZM1385.07 23.648C1391.25 23.648 1396.87 25.0805 1401.96 27.9361L1402.94 26.1919C1397.53 23.1595 1391.57 21.648 1385.07 21.648V23.648ZM1401.97 27.9387C1407.12 30.7945 1411.15 34.7603 1414.06 39.8493L1415.8 38.8547C1412.7 33.4477 1408.41 29.2215 1402.93 26.1893L1401.97 27.9387ZM1414.07 39.8572C1417.04 44.9392 1418.54 50.6822 1418.54 57.112H1420.54C1420.54 50.3578 1418.96 44.2608 1415.79 38.8468L1414.07 39.8572ZM1418.54 57.112C1418.54 63.5417 1417.04 69.3188 1414.06 74.4674L1415.8 75.4686C1418.96 69.9932 1420.54 63.8663 1420.54 57.112H1418.54ZM1414.07 74.4628C1411.08 79.5592 1407.05 83.5278 1401.96 86.3839L1402.94 88.1281C1408.34 85.0962 1412.63 80.8728 1415.79 75.4732L1414.07 74.4628ZM1401.96 86.3839C1396.87 89.2395 1391.25 90.672 1385.07 90.672V92.672C1391.57 92.672 1397.53 91.1605 1402.94 88.1281L1401.96 86.3839ZM1385.07 77.696C1390.7 77.696 1395.27 75.8091 1398.68 71.986L1397.19 70.654C1394.21 73.9989 1390.2 75.696 1385.07 75.696V77.696ZM1398.68 71.9933C1402.14 68.1875 1403.83 63.1929 1403.83 57.112H1401.83C1401.83 62.8071 1400.26 67.2845 1397.2 70.6467L1398.68 71.9933ZM1403.83 57.112C1403.83 50.9712 1402.15 45.9707 1398.67 42.2241L1397.2 43.5839C1400.26 46.8773 1401.83 51.3488 1401.83 57.112H1403.83ZM1398.68 42.238C1395.27 38.4149 1390.7 36.528 1385.07 36.528V38.528C1390.2 38.528 1394.21 40.2251 1397.19 43.57L1398.68 42.238ZM1385.07 36.528C1379.4 36.528 1374.76 38.3758 1371.28 42.1281L1372.75 43.4879C1375.8 40.2002 1379.87 38.528 1385.07 38.528V36.528ZM1371.28 42.1353C1367.87 45.8843 1366.22 50.9155 1366.22 57.112H1368.22C1368.22 51.2765 1369.77 46.7716 1372.76 43.4807L1371.28 42.1353ZM1366.22 57.112C1366.22 63.2486 1367.87 68.2738 1371.27 72.082L1372.76 70.75C1369.76 67.3902 1368.22 62.8794 1368.22 57.112H1366.22ZM1371.28 72.0959C1374.76 75.8482 1379.4 77.696 1385.07 77.696V75.696C1379.87 75.696 1375.8 74.0238 1372.75 70.7361L1371.28 72.0959ZM1444.8 23.608H1445.8V22.608H1444.8V23.608ZM1447.77 73.24L1447.04 73.9138L1447.77 73.24ZM1465.34 73.24L1466.07 73.9254H1466.07L1465.34 73.24ZM1468.41 23.608V22.608H1467.41V23.608H1468.41ZM1484.83 23.608H1485.83V22.608H1484.83V23.608ZM1480.99 79.096L1481.84 79.6201L1480.99 79.096ZM1470.62 88.504L1470.19 87.6043L1470.18 87.6069L1470.62 88.504ZM1441.92 88.6L1441.47 89.4917L1441.47 89.4958L1441.48 89.4998L1441.92 88.6ZM1432.03 79.192L1431.16 79.691L1431.17 79.6967L1432.03 79.192ZM1428.38 23.608V22.608H1427.38V23.608H1428.38ZM1443.8 23.608V63.928H1445.8V23.608H1443.8ZM1443.8 63.928C1443.8 68.1164 1444.83 71.4948 1447.04 73.9138L1448.51 72.5662C1446.75 70.6332 1445.8 67.8036 1445.8 63.928H1443.8ZM1447.04 73.9138C1449.26 76.3561 1452.48 77.504 1456.51 77.504V75.504C1452.86 75.504 1450.25 74.4759 1448.51 72.5662L1447.04 73.9138ZM1456.51 77.504C1460.54 77.504 1463.78 76.3555 1466.07 73.9254L1464.61 72.5546C1462.81 74.4765 1460.16 75.504 1456.51 75.504V77.504ZM1466.07 73.9254C1468.35 71.507 1469.41 68.124 1469.41 63.928H1467.41C1467.41 67.796 1466.43 70.621 1464.61 72.5546L1466.07 73.9254ZM1469.41 63.928V23.608H1467.41V63.928H1469.41ZM1468.41 24.608H1484.83V22.608H1468.41V24.608ZM1483.83 23.608V63.832H1485.83V23.608H1483.83ZM1483.83 63.832C1483.83 69.7057 1482.58 74.6024 1480.14 78.5719L1481.84 79.6201C1484.52 75.2696 1485.83 69.9903 1485.83 63.832H1483.83ZM1480.14 78.5719C1477.68 82.5714 1474.37 85.5763 1470.19 87.6043L1471.06 89.4037C1475.58 87.2077 1479.18 83.9406 1481.84 79.6201L1480.14 78.5719ZM1470.18 87.6069C1466.05 89.644 1461.4 90.672 1456.22 90.672V92.672C1461.67 92.672 1466.62 91.588 1471.06 89.4011L1470.18 87.6069ZM1456.22 90.672C1451.04 90.672 1446.43 89.6741 1442.36 87.7002L1441.48 89.4998C1445.86 91.6219 1450.78 92.672 1456.22 92.672V90.672ZM1442.37 87.7083C1438.39 85.6862 1435.23 82.6873 1432.89 78.6873L1431.17 79.6967C1433.69 84.0167 1437.13 87.2898 1441.47 89.4917L1442.37 87.7083ZM1432.9 78.693C1430.57 74.6526 1429.38 69.7136 1429.38 63.832H1427.38C1427.38 69.9824 1428.63 75.2834 1431.16 79.691L1432.9 78.693ZM1429.38 63.832V23.608H1427.38V63.832H1429.38ZM1428.38 24.608H1444.8V22.608H1428.38V24.608ZM1530.73 91L1529.85 91.4826L1530.14 92H1530.73V91ZM1516.71 65.56L1517.59 65.0774L1517.3 64.56H1516.71V65.56ZM1512.77 65.56V64.56H1511.77V65.56H1512.77ZM1512.77 91V92H1513.77V91H1512.77ZM1496.36 91H1495.36V92H1496.36V91ZM1496.36 23.608V22.608H1495.36V23.608H1496.36ZM1537.45 26.392L1537 27.2864L1537.01 27.2894L1537.45 26.392ZM1545.89 34.072L1545.02 34.5663L1545.03 34.5737L1545.89 34.072ZM1544.84 56.824L1544.03 56.2358L1544.02 56.2456L1544.84 56.824ZM1533.7 64.312L1533.42 63.3538L1532.2 63.7175L1532.84 64.8155L1533.7 64.312ZM1549.25 91V92H1550.99L1550.12 90.4965L1549.25 91ZM1512.77 53.944H1511.77V54.944H1512.77V53.944ZM1529.67 51.736L1528.98 51.014L1528.97 51.0214L1528.96 51.0289L1529.67 51.736ZM1529.67 39.448L1528.96 40.1551L1528.97 40.1626L1528.98 40.17L1529.67 39.448ZM1512.77 37.24V36.24H1511.77V37.24H1512.77ZM1531.6 90.5174L1517.59 65.0774L1515.83 66.0425L1529.85 91.4826L1531.6 90.5174ZM1516.71 64.56H1512.77V66.56H1516.71V64.56ZM1511.77 65.56V91H1513.77V65.56H1511.77ZM1512.77 90H1496.36V92H1512.77V90ZM1497.36 91V23.608H1495.36V91H1497.36ZM1496.36 24.608H1523.91V22.608H1496.36V24.608ZM1523.91 24.608C1529.11 24.608 1533.46 25.5165 1537 27.2864L1537.89 25.4976C1534.01 23.5555 1529.34 22.608 1523.91 22.608V24.608ZM1537.01 27.2894C1540.62 29.0681 1543.28 31.4972 1545.02 34.5663L1546.76 33.5777C1544.8 30.1188 1541.82 27.4279 1537.89 25.4945L1537.01 27.2894ZM1545.03 34.5737C1546.79 37.6102 1547.68 41.019 1547.68 44.824H1549.68C1549.68 40.693 1548.71 36.9338 1546.76 33.5703L1545.03 34.5737ZM1547.68 44.824C1547.68 49.0993 1546.46 52.892 1544.03 56.2358L1545.65 57.4122C1548.34 53.716 1549.68 49.5087 1549.68 44.824H1547.68ZM1544.02 56.2456C1541.68 59.5502 1538.17 61.933 1533.42 63.3538L1533.99 65.2702C1539.09 63.747 1543.01 61.1377 1545.65 57.4024L1544.02 56.2456ZM1532.84 64.8155L1548.39 91.5035L1550.12 90.4965L1534.57 63.8085L1532.84 64.8155ZM1549.25 90H1530.73V92H1549.25V90ZM1512.77 54.944H1522.95V52.944H1512.77V54.944ZM1522.95 54.944C1526.11 54.944 1528.65 54.1724 1530.38 52.4431L1528.96 51.0289C1527.75 52.2436 1525.81 52.944 1522.95 52.944V54.944ZM1530.36 52.458C1532.14 50.7505 1532.97 48.3805 1532.97 45.496H1530.97C1530.97 47.9875 1530.27 49.7775 1528.98 51.014L1530.36 52.458ZM1532.97 45.496C1532.97 42.7231 1532.13 40.4243 1530.36 38.726L1528.98 40.17C1530.28 41.4157 1530.97 43.1489 1530.97 45.496H1532.97ZM1530.38 38.7409C1528.65 37.0116 1526.11 36.24 1522.95 36.24V38.24C1525.81 38.24 1527.75 38.9404 1528.96 40.1551L1530.38 38.7409ZM1522.95 36.24H1512.77V38.24H1522.95V36.24ZM1511.77 37.24V53.944H1513.77V37.24H1511.77ZM1655.65 23.608H1656.65V22.608H1655.65V23.608ZM1655.65 91V92H1656.65V91H1655.65ZM1639.23 91H1638.23V92H1639.23V91ZM1639.23 50.584H1640.23L1638.29 50.2346L1639.23 50.584ZM1624.16 91V92H1624.85L1625.1 91.3494L1624.16 91ZM1610.91 91L1609.97 91.3506L1610.22 92H1610.91V91ZM1595.74 50.488L1596.68 50.1374L1594.74 50.488H1595.74ZM1595.74 91V92H1596.74V91H1595.74ZM1579.33 91H1578.33V92H1579.33V91ZM1579.33 23.608V22.608H1578.33V23.608H1579.33ZM1598.72 23.608L1599.65 23.2323L1599.39 22.608H1598.72V23.608ZM1617.63 70.264L1616.7 70.6397L1617.64 72.9376L1618.56 70.6364L1617.63 70.264ZM1636.35 23.608V22.608H1635.67L1635.42 23.2356L1636.35 23.608ZM1654.65 23.608V91H1656.65V23.608H1654.65ZM1655.65 90H1639.23V92H1655.65V90ZM1640.23 91V50.584H1638.23V91H1640.23ZM1638.29 50.2346L1623.22 90.6506L1625.1 91.3494L1640.17 50.9334L1638.29 50.2346ZM1624.16 90H1610.91V92H1624.16V90ZM1611.85 90.6494L1596.68 50.1374L1594.81 50.8386L1609.97 91.3506L1611.85 90.6494ZM1594.74 50.488V91H1596.74V50.488H1594.74ZM1595.74 90H1579.33V92H1595.74V90ZM1580.33 91V23.608H1578.33V91H1580.33ZM1579.33 24.608H1598.72V22.608H1579.33V24.608ZM1597.79 23.9837L1616.7 70.6397L1618.56 69.8883L1599.65 23.2323L1597.79 23.9837ZM1618.56 70.6364L1637.28 23.9804L1635.42 23.2356L1616.7 69.8916L1618.56 70.6364ZM1636.35 24.608H1655.65V22.608H1636.35V24.608ZM1683.87 36.76V35.76H1682.87V36.76H1683.87ZM1683.87 50.392H1682.87V51.392H1683.87V50.392ZM1705.85 50.392H1706.85V49.392H1705.85V50.392ZM1705.85 63.064V64.064H1706.85V63.064H1705.85ZM1683.87 63.064V62.064H1682.87V63.064H1683.87ZM1683.87 77.848H1682.87V78.848H1683.87V77.848ZM1708.73 77.848H1709.73V76.848H1708.73V77.848ZM1708.73 91V92H1709.73V91H1708.73ZM1667.45 91H1666.45V92H1667.45V91ZM1667.45 23.608V22.608H1666.45V23.608H1667.45ZM1708.73 23.608H1709.73V22.608H1708.73V23.608ZM1708.73 36.76V37.76H1709.73V36.76H1708.73ZM1682.87 36.76V50.392H1684.87V36.76H1682.87ZM1683.87 51.392H1705.85V49.392H1683.87V51.392ZM1704.85 50.392V63.064H1706.85V50.392H1704.85ZM1705.85 62.064H1683.87V64.064H1705.85V62.064ZM1682.87 63.064V77.848H1684.87V63.064H1682.87ZM1683.87 78.848H1708.73V76.848H1683.87V78.848ZM1707.73 77.848V91H1709.73V77.848H1707.73ZM1708.73 90H1667.45V92H1708.73V90ZM1668.45 91V23.608H1666.45V91H1668.45ZM1667.45 24.608H1708.73V22.608H1667.45V24.608ZM1707.73 23.608V36.76H1709.73V23.608H1707.73ZM1708.73 35.76H1683.87V37.76H1708.73V35.76ZM1761.34 79.096L1762.29 78.7752L1762.06 78.096H1761.34V79.096ZM1736.19 79.096V78.096H1735.47L1735.24 78.7752L1736.19 79.096ZM1732.16 91V92H1732.87L1733.1 91.3208L1732.16 91ZM1714.97 91L1714.03 90.6598L1713.55 92H1714.97V91ZM1739.36 23.608V22.608H1738.66L1738.42 23.2678L1739.36 23.608ZM1758.37 23.608L1759.31 23.2678L1759.07 22.608H1758.37V23.608ZM1782.75 91V92H1784.17L1783.69 90.6598L1782.75 91ZM1765.37 91L1764.43 91.3208L1764.66 92H1765.37V91ZM1757.12 66.424V67.424H1758.51L1758.06 66.1034L1757.12 66.424ZM1748.77 41.752L1749.71 41.4314L1748.76 38.6171L1747.82 41.4347L1748.77 41.752ZM1740.51 66.424L1739.56 66.1067L1739.12 67.424H1740.51V66.424ZM1761.34 78.096H1736.19V80.096H1761.34V78.096ZM1735.24 78.7752L1731.21 90.6792L1733.1 91.3208L1737.14 79.4168L1735.24 78.7752ZM1732.16 90H1714.97V92H1732.16V90ZM1715.91 91.3402L1740.3 23.9482L1738.42 23.2678L1714.03 90.6598L1715.91 91.3402ZM1739.36 24.608H1758.37V22.608H1739.36V24.608ZM1757.43 23.9482L1781.81 91.3402L1783.69 90.6598L1759.31 23.2678L1757.43 23.9482ZM1782.75 90H1765.37V92H1782.75V90ZM1766.32 90.6792L1762.29 78.7752L1760.39 79.4168L1764.43 91.3208L1766.32 90.6792ZM1758.06 66.1034L1749.71 41.4314L1747.82 42.0726L1756.17 66.7446L1758.06 66.1034ZM1747.82 41.4347L1739.56 66.1067L1741.46 66.7413L1749.71 42.0693L1747.82 41.4347ZM1740.51 67.424H1757.12V65.424H1740.51V67.424ZM1806.59 78.328H1805.59V79.328H1806.59V78.328ZM1828.09 78.328H1829.09V77.328H1828.09V78.328ZM1828.09 91V92H1829.09V91H1828.09ZM1790.17 91H1789.17V92H1790.17V91ZM1790.17 23.608V22.608H1789.17V23.608H1790.17ZM1806.59 23.608H1807.59V22.608H1806.59V23.608ZM1806.59 79.328H1828.09V77.328H1806.59V79.328ZM1827.09 78.328V91H1829.09V78.328H1827.09ZM1828.09 90H1790.17V92H1828.09V90ZM1791.17 91V23.608H1789.17V91H1791.17ZM1790.17 24.608H1806.59V22.608H1790.17V24.608ZM1805.59 23.608V78.328H1807.59V23.608H1805.59Z" fill="#F9854E"/>
<circle cx="1854" cy="57.5" r="8" fill="#1E1E2D"/>
</svg>
