<svg width="30" height="19" viewBox="0 0 30 19" fill="none" xmlns="http://www.w3.org/2000/svg">
<path d="M21.7285 7.0791C21.7614 7.11141 21.7942 7.13564 21.8352 7.16794C21.8024 7.13564 21.7696 7.11141 21.7285 7.0791Z" fill="#FFFDFA"/>
<path d="M20.3711 6.10645C20.4121 6.13063 20.445 6.15481 20.486 6.17899C20.4532 6.15481 20.4121 6.13063 20.3711 6.10645Z" fill="#FFFDFA"/>
<path d="M21.9424 7.25879C21.9752 7.2911 22.0081 7.31532 22.0409 7.34763C22.0163 7.3234 21.9752 7.2911 21.9424 7.25879Z" fill="#FFFDFA"/>
<path d="M20.8428 6.40869C20.8838 6.43287 20.9167 6.45705 20.9577 6.48123C20.9167 6.46511 20.8756 6.44093 20.8428 6.40869Z" fill="#FFFDFA"/>
<path d="M21.5137 6.90771C21.5465 6.93194 21.5876 6.96425 21.6204 6.98848C21.5876 6.96425 21.5547 6.93194 21.5137 6.90771Z" fill="#FFFDFA"/>
<path d="M20.6104 6.26172C20.6514 6.2859 20.6842 6.31008 20.7253 6.33426C20.6842 6.31008 20.6432 6.2859 20.6104 6.26172Z" fill="#FFFDFA"/>
<path d="M21.2998 6.73584C21.3326 6.76007 21.3737 6.79238 21.4065 6.81661C21.3655 6.79238 21.3326 6.76007 21.2998 6.73584Z" fill="#FFFDFA"/>
<path d="M22.1582 7.44678C22.191 7.47908 22.2239 7.51139 22.2567 7.53562C22.2239 7.50331 22.191 7.47908 22.1582 7.44678Z" fill="#FFFDFA"/>
<path d="M24.0039 9.53125C24.0285 9.57171 24.0532 9.60409 24.0778 9.64455C24.0532 9.61218 24.0285 9.57171 24.0039 9.53125Z" fill="#FFFDFA"/>
<path d="M23.8389 9.31104C23.8635 9.34341 23.8963 9.38387 23.921 9.42434C23.8963 9.38387 23.8717 9.34341 23.8389 9.31104Z" fill="#FFFDFA"/>
<path d="M24.3193 9.99756C24.344 10.038 24.3686 10.0704 24.3932 10.1109C24.3686 10.0785 24.344 10.038 24.3193 9.99756Z" fill="#FFFDFA"/>
<path d="M23.6729 9.08203C23.6975 9.1144 23.7303 9.15487 23.7549 9.18724C23.7303 9.15487 23.6975 9.1225 23.6729 9.08203Z" fill="#FFFDFA"/>
<path d="M24.1611 9.76855C24.1858 9.80902 24.2104 9.84139 24.235 9.88185C24.2104 9.84139 24.1858 9.80093 24.1611 9.76855Z" fill="#FFFDFA"/>
<path d="M23.499 8.86084C23.5237 8.89321 23.5565 8.93368 23.5811 8.96605C23.5565 8.93368 23.5319 8.9013 23.499 8.86084Z" fill="#FFFDFA"/>
<path d="M22.9531 8.23145C22.986 8.26382 23.0106 8.29619 23.0434 8.32856C23.0106 8.29619 22.9778 8.26382 22.9531 8.23145Z" fill="#FFFDFA"/>
<path d="M23.1348 8.43604C23.1676 8.46841 23.1922 8.50078 23.2251 8.54124C23.2004 8.50078 23.1676 8.46841 23.1348 8.43604Z" fill="#FFFDFA"/>
<path d="M23.3252 8.64844C23.358 8.68081 23.3827 8.72127 23.4155 8.75364C23.3827 8.72127 23.3498 8.68081 23.3252 8.64844Z" fill="#FFFDFA"/>
<path d="M16.25 4.55322C16.291 4.56141 16.3321 4.56959 16.3731 4.57777C16.3403 4.56959 16.291 4.56141 16.25 4.55322Z" fill="#FFFDFA"/>
<path d="M17.333 4.78174C17.3741 4.78992 17.4151 4.80629 17.4561 4.81447C17.4151 4.80629 17.3741 4.7981 17.333 4.78174Z" fill="#FFFDFA"/>
<path d="M15.9775 4.51221C16.0186 4.52039 16.0596 4.52857 16.1007 4.52857C16.0596 4.52039 16.0186 4.51221 15.9775 4.51221Z" fill="#FFFDFA"/>
<path d="M16.7959 4.65137C16.8369 4.65955 16.878 4.66773 16.919 4.6841C16.878 4.67592 16.8369 4.66773 16.7959 4.65137Z" fill="#FFFDFA"/>
<path d="M16.5234 4.60205C16.5645 4.61023 16.6055 4.61842 16.6466 4.6266C16.6137 4.61842 16.5645 4.61023 16.5234 4.60205Z" fill="#FFFDFA"/>
<path d="M15.1484 4.43066C15.1895 4.43066 15.2223 4.43885 15.2634 4.43885C15.2223 4.43885 15.1813 4.43066 15.1484 4.43066Z" fill="#FFFDFA"/>
<path d="M15.7051 4.47949C15.7461 4.48767 15.7872 4.48768 15.8282 4.49586C15.7872 4.48768 15.7461 4.47949 15.7051 4.47949Z" fill="#FFFDFA"/>
<path d="M15.4238 4.44678C15.4649 4.44678 15.5059 4.45496 15.5388 4.45496C15.5059 4.45496 15.4649 4.45496 15.4238 4.44678Z" fill="#FFFDFA"/>
<path d="M17.8652 4.9458C17.9063 4.96217 17.9473 4.97035 17.9884 4.98671C17.9473 4.97035 17.9063 4.95398 17.8652 4.9458Z" fill="#FFFDFA"/>
<path d="M19.4033 5.5752C19.4444 5.59156 19.4854 5.61611 19.5182 5.63247C19.4854 5.60793 19.4444 5.59156 19.4033 5.5752Z" fill="#FFFDFA"/>
<path d="M17.5996 4.86377C17.6407 4.88013 17.6817 4.88832 17.7227 4.90468C17.6899 4.88832 17.6407 4.87195 17.5996 4.86377Z" fill="#FFFDFA"/>
<path d="M19.8916 5.82861C19.9326 5.85274 19.9655 5.86883 20.0065 5.89296C19.9737 5.86883 19.9326 5.85274 19.8916 5.82861Z" fill="#FFFDFA"/>
<path d="M18.1279 5.03516C18.169 5.05152 18.21 5.06789 18.2511 5.08425C18.21 5.0597 18.169 5.04334 18.1279 5.03516Z" fill="#FFFDFA"/>
<path d="M20.1387 5.96777C20.1797 5.99191 20.2126 6.01604 20.2536 6.03212C20.2126 6.01604 20.1715 5.99191 20.1387 5.96777Z" fill="#FFFDFA"/>
<path d="M21.0654 6.57227C21.0983 6.5965 21.1393 6.6288 21.1722 6.65303C21.1393 6.62072 21.1065 6.5965 21.0654 6.57227Z" fill="#FFFDFA"/>
<path d="M26.082 15.3022C26.082 15.3512 26.0903 15.392 26.0903 15.4409C26.082 15.392 26.082 15.343 26.082 15.3022Z" fill="#FFFDFA"/>
<path d="M25.9414 14.1665C25.9497 14.2155 25.958 14.2562 25.9662 14.3052C25.958 14.2562 25.9497 14.2073 25.9414 14.1665Z" fill="#FFFDFA"/>
<path d="M25.6914 13.063C25.708 13.1038 25.7162 13.1527 25.7245 13.1935C25.7162 13.1527 25.6997 13.1038 25.6914 13.063Z" fill="#FFFDFA"/>
<path d="M26.0889 15.5889C26.0889 15.6378 26.0889 15.6786 26.0971 15.7276C26.0971 15.6786 26.0971 15.6378 26.0889 15.5889Z" fill="#FFFDFA"/>
<path d="M26.0576 15.0166C26.0659 15.0655 26.0659 15.1063 26.0742 15.1553C26.0659 15.1063 26.0576 15.0574 26.0576 15.0166Z" fill="#FFFDFA"/>
<path d="M25.9902 14.4443C25.9985 14.4933 26.0068 14.5341 26.0068 14.583C25.9985 14.5422 25.9985 14.4933 25.9902 14.4443Z" fill="#FFFDFA"/>
<path d="M25.4355 12.2617C25.4521 12.3025 25.4686 12.3515 25.4852 12.3922C25.4604 12.3433 25.4438 12.3025 25.4355 12.2617Z" fill="#FFFDFA"/>
<path d="M26.0234 14.7305C26.0317 14.7794 26.0317 14.8202 26.04 14.8692C26.04 14.8202 26.0317 14.7794 26.0234 14.7305Z" fill="#FFFDFA"/>
<path d="M25.5264 12.5234C25.5429 12.5642 25.5595 12.6132 25.5677 12.654C25.5512 12.6132 25.5429 12.5642 25.5264 12.5234Z" fill="#FFFDFA"/>
<path d="M25.3379 11.9917C25.3544 12.0325 25.371 12.0733 25.3875 12.1222C25.371 12.0814 25.3544 12.0406 25.3379 11.9917Z" fill="#FFFDFA"/>
<path d="M25.6094 12.793C25.6259 12.8338 25.6342 12.8827 25.6508 12.9235C25.6425 12.8827 25.6259 12.8338 25.6094 12.793Z" fill="#FFFDFA"/>
<path d="M24.873 10.9702C24.8977 11.0107 24.9141 11.0511 24.9305 11.0916C24.9141 11.0511 24.8895 11.0107 24.873 10.9702Z" fill="#FFFDFA"/>
<path d="M25.7656 13.3325C25.7739 13.3733 25.7905 13.4223 25.7987 13.463C25.7905 13.4223 25.7739 13.3815 25.7656 13.3325Z" fill="#FFFDFA"/>
<path d="M15.2325 2.84473C7.85098 2.84473 1.85968 8.76301 1.80176 16.0791H3.34923C3.38233 12.1554 5.34357 8.68944 8.33922 6.57226C10.0522 5.35427 12.1127 4.5777 14.3305 4.41422C14.6284 4.38969 14.9263 4.38152 15.2325 4.38152C21.7617 4.38152 27.0579 9.61315 27.1158 16.0791H28.6633C28.6136 8.76301 22.6223 2.84473 15.2325 2.84473Z" fill="#FFFDFA"/>
<path d="M25.8906 13.8882C25.8989 13.9371 25.9072 13.9779 25.9154 14.0269C25.9072 13.9779 25.8989 13.929 25.8906 13.8882Z" fill="#FFFDFA"/>
<path d="M25.833 13.6104C25.8413 13.6593 25.8496 13.7001 25.8661 13.749C25.8496 13.7001 25.8413 13.6511 25.833 13.6104Z" fill="#FFFDFA"/>
<path d="M24.6084 10.4795C24.633 10.52 24.6494 10.5604 24.6741 10.6009C24.6494 10.5604 24.6248 10.52 24.6084 10.4795Z" fill="#FFFDFA"/>
<path d="M19.2695 5.50977C19.3109 5.53409 19.3523 5.55031 19.4019 5.57463C19.3606 5.55031 19.3192 5.52598 19.2695 5.50977Z" fill="#EBEBEB"/>
<path d="M18.7666 5.28076C18.808 5.29726 18.8576 5.322 18.899 5.3385C18.8576 5.322 18.8163 5.29726 18.7666 5.28076Z" fill="#EBEBEB"/>
<path d="M17.9883 4.98633C18.0297 5.00282 18.0793 5.01932 18.1207 5.03582C18.0793 5.01932 18.0379 5.00282 17.9883 4.98633Z" fill="#EBEBEB"/>
<path d="M25.8564 13.7412C25.8647 13.7902 25.873 13.8391 25.8895 13.8799C25.8813 13.8391 25.873 13.7902 25.8564 13.7412Z" fill="#EBEBEB"/>
<path d="M19.0225 5.39502C19.0638 5.41152 19.1135 5.43626 19.1549 5.45276C19.1135 5.42801 19.0638 5.41152 19.0225 5.39502Z" fill="#EBEBEB"/>
<path d="M18.5088 5.1748C18.5502 5.1913 18.5998 5.2078 18.6412 5.2243C18.5998 5.21605 18.5584 5.1913 18.5088 5.1748Z" fill="#EBEBEB"/>
<path d="M25.9658 14.3052C25.9741 14.3541 25.9824 14.4031 25.9906 14.452C25.9824 14.3949 25.9741 14.3541 25.9658 14.3052Z" fill="#EBEBEB"/>
<path d="M26.0889 15.4414C26.0889 15.4904 26.0971 15.5393 26.0971 15.5883C26.0889 15.5393 26.0889 15.4904 26.0889 15.4414Z" fill="#EBEBEB"/>
<path d="M15.2321 4.38135C14.9259 4.38135 14.628 4.38952 14.3301 4.41405C14.4128 4.41405 14.5039 4.41405 14.5866 4.41405C14.6776 4.41405 14.7769 4.41405 14.868 4.41405C14.9011 4.41405 14.9342 4.41405 14.9673 4.41405C15.0252 4.41405 15.0914 4.42222 15.1493 4.42222C15.1907 4.42222 15.2238 4.43039 15.2652 4.43039C15.3231 4.43039 15.3728 4.43857 15.4307 4.43857C15.4721 4.43857 15.5134 4.44674 15.5465 4.44674C15.5962 4.45492 15.6541 4.45492 15.7038 4.46309C15.7451 4.47127 15.7865 4.47127 15.8279 4.47944C15.8776 4.48761 15.9272 4.48762 15.9851 4.49579C16.0265 4.50396 16.0679 4.51214 16.1093 4.51214C16.1589 4.52031 16.2086 4.52849 16.2582 4.53666C16.2996 4.54484 16.341 4.55301 16.3823 4.56118C16.432 4.56936 16.4816 4.57753 16.5313 4.58571C16.5727 4.59388 16.6141 4.60206 16.6554 4.61023C16.7051 4.61841 16.7547 4.62658 16.7961 4.64293C16.8375 4.6511 16.8789 4.65928 16.9202 4.67563C16.9699 4.6838 17.0195 4.70015 17.0609 4.70832C17.1023 4.7165 17.1437 4.73285 17.185 4.74102C17.2347 4.7492 17.2761 4.76555 17.3257 4.77372C17.3671 4.78189 17.4085 4.79824 17.4499 4.80642C17.4995 4.82277 17.5409 4.83094 17.5905 4.84729C17.6319 4.86364 17.6733 4.87181 17.7147 4.88816C17.7643 4.90451 17.8057 4.91268 17.8553 4.92903C17.8967 4.94538 17.9381 4.95356 17.9795 4.96991C18.0208 4.98625 18.0705 5.0026 18.1119 5.01895C18.1533 5.0353 18.1946 5.05165 18.236 5.068C18.2774 5.08435 18.327 5.1007 18.3684 5.11705C18.4098 5.13339 18.4512 5.14974 18.4925 5.16609C18.5339 5.18244 18.5836 5.19879 18.6249 5.21514C18.6663 5.23149 18.7077 5.24784 18.7491 5.26418C18.7904 5.28053 18.8401 5.30506 18.8815 5.32141C18.9229 5.33776 18.9642 5.3541 19.0056 5.37863C19.047 5.39498 19.0966 5.4195 19.138 5.43585C19.1794 5.4522 19.2208 5.47672 19.2621 5.49307C19.3035 5.51759 19.3449 5.53394 19.3945 5.55846C19.4359 5.57481 19.4773 5.59934 19.5104 5.61569C19.5518 5.64021 19.5932 5.65656 19.6345 5.68108C19.6759 5.7056 19.7173 5.72195 19.7504 5.74648C19.7918 5.771 19.8331 5.79552 19.8745 5.81187C19.9159 5.8364 19.949 5.85274 19.9904 5.87727C20.0317 5.90179 20.0731 5.92631 20.1145 5.95084C20.1559 5.97536 20.189 5.99988 20.2303 6.01623C20.2717 6.04076 20.3131 6.06528 20.3545 6.0898C20.3958 6.11433 20.429 6.13885 20.4703 6.16337C20.5117 6.18789 20.5531 6.21242 20.5945 6.23694C20.6358 6.26146 20.6689 6.28599 20.7103 6.31051C20.7517 6.33503 20.7931 6.35956 20.8262 6.39226C20.8675 6.41678 20.9006 6.4413 20.942 6.46583C20.9834 6.49035 21.0165 6.52305 21.0579 6.54757C21.091 6.57209 21.1324 6.60479 21.1655 6.62931C21.2068 6.65384 21.2399 6.68653 21.2813 6.71106C21.3144 6.73558 21.3558 6.76828 21.3889 6.7928C21.4303 6.8255 21.4634 6.85002 21.5047 6.88272C21.5378 6.90724 21.5792 6.93994 21.6123 6.96447C21.6454 6.99716 21.6868 7.02169 21.7199 7.05438C21.753 7.08708 21.7861 7.1116 21.8275 7.1443C21.8606 7.177 21.9019 7.20152 21.9351 7.23422C21.9682 7.26692 22.0013 7.29144 22.0344 7.32414C22.0675 7.35684 22.1088 7.38954 22.1419 7.42223C22.175 7.45493 22.2081 7.48763 22.2412 7.51215C22.2743 7.54485 22.3074 7.57755 22.3488 7.61024C22.3819 7.64294 22.415 7.67564 22.4481 7.70834C22.4812 7.74104 22.5143 7.77373 22.5474 7.80643C22.5805 7.83913 22.6136 7.87183 22.6467 7.90452C22.6798 7.93722 22.7129 7.96992 22.746 8.00262C22.7791 8.03531 22.8122 8.06801 22.8371 8.10071C22.8702 8.13341 22.9033 8.16611 22.9364 8.20698C22.9695 8.23968 22.9943 8.27237 23.0274 8.30507C23.0605 8.33777 23.0936 8.37864 23.1267 8.41134C23.1598 8.44404 23.1846 8.47673 23.2177 8.51761C23.2508 8.5503 23.2839 8.59118 23.3087 8.62387C23.3418 8.65657 23.3667 8.69744 23.3998 8.73014C23.4329 8.76284 23.4577 8.80371 23.4908 8.84458C23.5156 8.87728 23.5487 8.91815 23.5736 8.95085C23.6067 8.99172 23.6315 9.02442 23.6646 9.06529C23.6894 9.09799 23.7225 9.13886 23.7473 9.17156C23.7722 9.21243 23.8053 9.24513 23.8301 9.286C23.8549 9.3187 23.888 9.35957 23.9128 9.40044C23.9377 9.44132 23.9708 9.47401 23.9956 9.51488C24.0204 9.55576 24.0452 9.58846 24.0701 9.62933C24.0949 9.6702 24.1197 9.71107 24.1528 9.74377C24.1777 9.78464 24.2025 9.81734 24.2273 9.85821C24.2521 9.89908 24.277 9.93995 24.3018 9.98083C24.3266 10.0217 24.3514 10.0544 24.3763 10.0953C24.4011 10.1361 24.4259 10.177 24.4507 10.2179C24.4756 10.2588 24.5004 10.2996 24.5169 10.3323C24.5418 10.3732 24.5666 10.4141 24.5914 10.4549C24.6162 10.4958 24.6328 10.5367 24.6576 10.5776C24.6824 10.6184 24.7073 10.6593 24.7238 10.7002C24.7486 10.741 24.7652 10.7819 24.79 10.8228C24.8148 10.8637 24.8314 10.9045 24.8562 10.9536C24.881 10.9945 24.8976 11.0353 24.9141 11.0762C24.939 11.1171 24.9555 11.1579 24.9804 11.207C24.9969 11.2479 25.0217 11.2887 25.0383 11.3296C25.0548 11.3705 25.0797 11.4195 25.0962 11.4604C25.1128 11.5013 25.1376 11.5421 25.1541 11.583C25.1707 11.6239 25.1955 11.6729 25.2121 11.7138C25.2286 11.7547 25.2452 11.7955 25.2617 11.8446C25.2783 11.8855 25.2948 11.9345 25.3114 11.9754C25.3279 12.0163 25.3445 12.0571 25.361 12.1062C25.3776 12.147 25.3941 12.1961 25.4107 12.237C25.4272 12.2778 25.4438 12.3269 25.4603 12.3678C25.4769 12.4168 25.4934 12.4577 25.51 12.5067C25.5265 12.5476 25.5431 12.5966 25.5513 12.6375C25.5679 12.6866 25.5844 12.7274 25.5927 12.7765C25.6093 12.8174 25.6175 12.8664 25.6341 12.9073C25.6506 12.9563 25.6589 12.9972 25.6755 13.0462C25.692 13.0871 25.7003 13.1362 25.7086 13.177C25.7251 13.2261 25.7334 13.2669 25.7417 13.316C25.7499 13.3569 25.7665 13.4059 25.7748 13.4468C25.7831 13.4958 25.7996 13.5367 25.8079 13.5857C25.8162 13.6348 25.8244 13.6757 25.841 13.7247C25.8493 13.7738 25.8575 13.8228 25.8741 13.8637C25.8824 13.9127 25.8906 13.9536 25.8989 14.0026C25.9072 14.0517 25.9155 14.1007 25.9237 14.1416C25.932 14.1907 25.9403 14.2315 25.9486 14.2806C25.9568 14.3296 25.9651 14.3787 25.9734 14.4277C25.9817 14.4768 25.9899 14.5176 25.9899 14.5667C25.9982 14.6157 25.9982 14.6648 26.0065 14.7138C26.0148 14.7629 26.0148 14.8037 26.023 14.8528C26.0313 14.9018 26.0313 14.9509 26.0396 14.9999C26.0479 15.049 26.0479 15.0898 26.0561 15.1389C26.0561 15.1879 26.0644 15.237 26.0644 15.286C26.0644 15.3351 26.0727 15.3759 26.0727 15.425C26.0727 15.474 26.081 15.5231 26.081 15.5721C26.081 15.6212 26.081 15.6621 26.0892 15.7111C26.0892 15.801 26.0892 15.8828 26.0892 15.9727C26.0892 16.0054 26.0892 16.0381 26.0892 16.0708H26.2713H27.1071C27.0657 9.61298 21.7613 4.38135 15.2321 4.38135Z" fill="#DE500C"/>
<path d="M15.8271 4.48779C15.8768 4.49604 15.9265 4.49604 15.9844 4.50429C15.9265 4.50429 15.8768 4.49604 15.8271 4.48779Z" fill="#EBEBEB"/>
<path d="M15.5479 4.46289C15.5975 4.47114 15.6554 4.47114 15.7051 4.47939C15.6472 4.47114 15.5975 4.46289 15.5479 4.46289Z" fill="#EBEBEB"/>
<path d="M15.2588 4.43848C15.3167 4.43848 15.3664 4.44672 15.4243 4.44672C15.3746 4.44672 15.3167 4.43848 15.2588 4.43848Z" fill="#EBEBEB"/>
<path d="M26.0068 14.583C26.0151 14.632 26.0151 14.6809 26.0234 14.7299C26.0234 14.6809 26.0151 14.632 26.0068 14.583Z" fill="#EBEBEB"/>
<path d="M14.9688 4.42236C15.0267 4.42236 15.0929 4.43061 15.1508 4.43061C15.0846 4.43061 15.0267 4.42236 14.9688 4.42236Z" fill="#EBEBEB"/>
<path d="M17.458 4.82275C17.5077 4.83925 17.549 4.8475 17.5987 4.864C17.5573 4.8475 17.5077 4.831 17.458 4.82275Z" fill="#EBEBEB"/>
<path d="M16.3818 4.56982C16.4315 4.57807 16.4811 4.58632 16.5308 4.59457C16.4729 4.59457 16.4315 4.58632 16.3818 4.56982Z" fill="#EBEBEB"/>
<path d="M17.7305 4.90479C17.7801 4.92128 17.8215 4.92953 17.8711 4.94603C17.8215 4.92953 17.7718 4.91303 17.7305 4.90479Z" fill="#EBEBEB"/>
<path d="M16.6543 4.62695C16.7039 4.6352 16.7536 4.64345 16.795 4.65995C16.7453 4.64345 16.7039 4.6352 16.6543 4.62695Z" fill="#EBEBEB"/>
<path d="M26.0645 15.1558C26.0645 15.2047 26.0727 15.2537 26.0727 15.3026C26.0727 15.2537 26.0727 15.2047 26.0645 15.1558Z" fill="#EBEBEB"/>
<path d="M23.9219 9.41699C23.9465 9.45746 23.9793 9.48983 24.004 9.53029C23.9793 9.49792 23.9547 9.45746 23.9219 9.41699Z" fill="#EBEBEB"/>
<path d="M19.7666 5.76318C19.8076 5.78732 19.8487 5.81145 19.8897 5.82753C19.8487 5.8034 19.8076 5.78732 19.7666 5.76318Z" fill="#EBEBEB"/>
<path d="M25.0547 11.3462C25.0712 11.387 25.0961 11.4359 25.1126 11.4767C25.0961 11.4359 25.0712 11.3951 25.0547 11.3462Z" fill="#EBEBEB"/>
<path d="M22.4561 7.7334C22.4889 7.76577 22.5217 7.79814 22.5546 7.83051C22.5299 7.79814 22.4971 7.76577 22.4561 7.7334Z" fill="#EBEBEB"/>
<path d="M25.2793 11.8608C25.2958 11.9016 25.3124 11.9506 25.3289 11.9914C25.3124 11.9506 25.2958 11.9098 25.2793 11.8608Z" fill="#EBEBEB"/>
<path d="M25.1709 11.6074C25.1874 11.6482 25.2123 11.6972 25.2288 11.7379C25.204 11.689 25.1874 11.6482 25.1709 11.6074Z" fill="#EBEBEB"/>
<path d="M24.2363 9.88281C24.261 9.92328 24.2856 9.96374 24.3102 10.0042C24.2938 9.95565 24.2692 9.91518 24.2363 9.88281Z" fill="#EBEBEB"/>
<path d="M24.6748 10.6021C24.6994 10.6425 24.7241 10.683 24.7405 10.7234C24.7158 10.683 24.6994 10.6425 24.6748 10.6021Z" fill="#EBEBEB"/>
<path d="M24.3936 10.1201C24.4182 10.1606 24.4428 10.201 24.4674 10.2415C24.4428 10.193 24.4182 10.1525 24.3936 10.1201Z" fill="#EBEBEB"/>
<path d="M23.7549 9.19629C23.7795 9.23675 23.8123 9.26912 23.837 9.30959C23.8123 9.26912 23.7877 9.22866 23.7549 9.19629Z" fill="#EBEBEB"/>
<path d="M24.9307 11.0928C24.9555 11.1336 24.972 11.1744 24.9969 11.2233C24.972 11.1825 24.9555 11.1417 24.9307 11.0928Z" fill="#EBEBEB"/>
<path d="M23.5811 8.96729C23.6139 9.00775 23.6385 9.04012 23.6714 9.08058C23.6467 9.04821 23.6139 9.00775 23.5811 8.96729Z" fill="#EBEBEB"/>
<path d="M25.7256 13.1934C25.7421 13.2423 25.7504 13.2831 25.7587 13.332C25.7504 13.2913 25.7421 13.2423 25.7256 13.1934Z" fill="#EBEBEB"/>
<path d="M20.7266 6.33496C20.7676 6.35919 20.8087 6.38342 20.8415 6.41573C20.8004 6.38342 20.7594 6.35919 20.7266 6.33496Z" fill="#EBEBEB"/>
<path d="M20.9512 6.49023C20.9922 6.51446 21.0251 6.54677 21.0661 6.571C21.0333 6.54677 20.9922 6.51446 20.9512 6.49023Z" fill="#EBEBEB"/>
<path d="M25.7998 13.4712C25.8081 13.5201 25.8246 13.5609 25.8329 13.6099C25.8246 13.5609 25.8081 13.512 25.7998 13.4712Z" fill="#EBEBEB"/>
<path d="M25.3867 12.123C25.4033 12.1638 25.4198 12.2128 25.4364 12.2536C25.4198 12.2128 25.4033 12.172 25.3867 12.123Z" fill="#EBEBEB"/>
<path d="M22.0508 7.34912C22.0836 7.38149 22.1247 7.41386 22.1575 7.44624C22.1165 7.41386 22.0836 7.38149 22.0508 7.34912Z" fill="#EBEBEB"/>
<path d="M21.8369 7.16895C21.8698 7.20125 21.9108 7.22548 21.9436 7.25779C21.9108 7.22548 21.878 7.20125 21.8369 7.16895Z" fill="#EBEBEB"/>
<path d="M25.4775 12.3843C25.4941 12.4332 25.5106 12.474 25.5272 12.523C25.5106 12.4822 25.4941 12.4332 25.4775 12.3843Z" fill="#EBEBEB"/>
<path d="M21.4053 6.81738C21.4463 6.84969 21.4792 6.87392 21.5202 6.90623C21.4792 6.87392 21.4381 6.84969 21.4053 6.81738Z" fill="#EBEBEB"/>
<path d="M21.6211 6.98926C21.6539 7.02156 21.695 7.04579 21.7278 7.0781C21.695 7.05387 21.6621 7.02156 21.6211 6.98926Z" fill="#EBEBEB"/>
<path d="M21.1816 6.6543C21.2227 6.67853 21.2555 6.71083 21.2966 6.73506C21.2555 6.71083 21.2145 6.67853 21.1816 6.6543Z" fill="#EBEBEB"/>
<path d="M15.2353 3.79293C16.2956 3.79293 17.1552 2.94386 17.1552 1.89647C17.1552 0.849077 16.2956 0 15.2353 0C14.175 0 13.3154 0.849077 13.3154 1.89647C13.3154 2.94386 14.175 3.79293 15.2353 3.79293Z" fill="#FFFDFA"/>
<rect x="6.89941" y="11.2173" width="15.3159" height="6.9089" fill="#FFFDFA"/>
<path d="M26.1027 15.7282C26.1027 15.6792 26.1027 15.6383 26.0945 15.5892C26.0945 15.5402 26.0945 15.4911 26.0862 15.4421C26.0862 15.3931 26.0779 15.3522 26.0779 15.3031C26.0779 15.2541 26.0696 15.205 26.0696 15.156C26.0696 15.1069 26.0614 15.0661 26.0531 15.017C26.0448 14.968 26.0448 14.9189 26.0365 14.8699C26.0283 14.8208 26.0283 14.78 26.02 14.7309C26.0117 14.6819 26.0117 14.6328 26.0034 14.5838C25.9952 14.5347 25.9869 14.4939 25.9869 14.4448C25.9786 14.3958 25.9703 14.3467 25.9621 14.2977C25.9538 14.2486 25.9455 14.2078 25.9372 14.1587C25.929 14.1097 25.9207 14.0606 25.9124 14.0198C25.9041 13.9707 25.8959 13.9298 25.8876 13.8808C25.8793 13.8317 25.871 13.7827 25.8545 13.7418C25.8462 13.6928 25.8379 13.6519 25.8214 13.6029C25.8131 13.5538 25.7966 13.5129 25.7883 13.4639C25.78 13.423 25.7635 13.374 25.7552 13.3331C25.7469 13.2841 25.7304 13.2432 25.7221 13.1941C25.7138 13.1533 25.6973 13.1042 25.689 13.0633C25.6724 13.0143 25.6642 12.9734 25.6476 12.9244C25.6311 12.8835 25.6228 12.8345 25.6062 12.7936C25.5897 12.7445 25.5814 12.7037 25.5649 12.6546C25.5483 12.6138 25.54 12.5647 25.5235 12.5238C25.5069 12.4748 25.4904 12.4339 25.4738 12.3849C25.4573 12.344 25.4407 12.2949 25.4242 12.2541C25.4076 12.2132 25.3911 12.1642 25.3745 12.1233C25.358 12.0824 25.3414 12.0415 25.3249 11.9925C25.3083 11.9516 25.2918 11.9026 25.2752 11.8617C25.2587 11.8208 25.2421 11.78 25.2256 11.7309C25.209 11.69 25.1925 11.641 25.1676 11.6001C25.1511 11.5592 25.1345 11.5184 25.1097 11.4775C25.0932 11.4366 25.0683 11.3876 25.0518 11.3467C25.0352 11.3058 25.0104 11.265 24.9939 11.2241C24.9773 11.1832 24.9525 11.1424 24.9277 11.0933C24.9111 11.0524 24.8863 11.0116 24.8697 10.9707C24.8449 10.9298 24.8284 10.8889 24.8035 10.8399C24.7787 10.799 24.7622 10.7582 24.7373 10.7173C24.7125 10.6764 24.6877 10.6355 24.6711 10.5947C24.6463 10.5538 24.6298 10.5129 24.6049 10.4721C24.5801 10.4312 24.5553 10.3903 24.5304 10.3494C24.5056 10.3086 24.4808 10.2677 24.4642 10.235C24.4394 10.1941 24.4146 10.1532 24.3898 10.1124C24.3649 10.0715 24.3401 10.0388 24.3153 9.99794C24.2905 9.95706 24.2656 9.91619 24.2408 9.87532C24.216 9.83445 24.1912 9.80175 24.1663 9.76088C24.1415 9.72 24.1167 9.67913 24.0836 9.64644C24.0588 9.60556 24.0339 9.57286 24.0091 9.53199C23.9843 9.49112 23.9512 9.45025 23.9264 9.41755C23.9015 9.37668 23.8767 9.34398 23.8436 9.30311C23.8188 9.26224 23.7857 9.22954 23.7608 9.18867C23.736 9.15597 23.7029 9.1151 23.6781 9.0824C23.645 9.04153 23.6202 9.00883 23.5871 8.96796C23.5622 8.93526 23.5291 8.89439 23.5043 8.86169C23.4712 8.82082 23.4464 8.78812 23.4133 8.74725C23.3802 8.71455 23.3554 8.67368 23.3223 8.64098C23.2892 8.60828 23.2643 8.56741 23.2312 8.53471C23.1981 8.50202 23.1733 8.46932 23.1402 8.42845C23.1071 8.39575 23.074 8.35488 23.0409 8.32218C23.0078 8.28948 22.983 8.25678 22.9499 8.22409C22.9168 8.19139 22.8837 8.15052 22.8506 8.11782C22.8175 8.08512 22.7844 8.05242 22.7595 8.01972C22.7264 7.98703 22.6933 7.95433 22.6602 7.92163C22.6271 7.88893 22.594 7.85624 22.5609 7.82354C22.5278 7.79084 22.4947 7.75814 22.4616 7.72545C22.4285 7.69275 22.3954 7.66005 22.3623 7.62735C22.3292 7.59465 22.2961 7.56196 22.2547 7.52926C22.2216 7.49656 22.1885 7.46386 22.1554 7.43934C22.1223 7.40664 22.081 7.37394 22.0479 7.34125C22.0148 7.30855 21.9817 7.28403 21.9486 7.25133C21.9155 7.21863 21.8741 7.18593 21.841 7.16141C21.8079 7.12871 21.7748 7.10419 21.7334 7.07149C21.7003 7.03879 21.6589 7.01427 21.6258 6.98157C21.5927 6.95705 21.5513 6.92435 21.5182 6.89983C21.4769 6.86713 21.4438 6.84261 21.4024 6.80991C21.3693 6.78539 21.3279 6.75269 21.2948 6.72817C21.2534 6.70364 21.2203 6.67094 21.179 6.64642C21.1459 6.6219 21.1045 6.5892 21.0714 6.56468C21.03 6.54015 20.9969 6.50746 20.9555 6.48293C20.9142 6.45841 20.8811 6.43389 20.8397 6.40936C20.7983 6.38484 20.7652 6.36032 20.7238 6.32762C20.6824 6.3031 20.6493 6.27857 20.608 6.25405C20.5666 6.22953 20.5252 6.205 20.4838 6.18048C20.4425 6.15596 20.4094 6.13143 20.368 6.10691C20.3266 6.08239 20.2852 6.05786 20.2439 6.03334C20.2025 6.00882 20.1694 5.98429 20.128 5.96794C20.0866 5.94342 20.0452 5.9189 20.0039 5.89437C19.9625 5.86985 19.9294 5.8535 19.888 5.82898C19.8466 5.80446 19.8053 5.77993 19.7639 5.76358C19.7225 5.73906 19.6811 5.72271 19.648 5.69819C19.6067 5.67366 19.5653 5.65732 19.5239 5.63279C19.4825 5.61644 19.4412 5.59192 19.4081 5.57557C19.3667 5.55105 19.3253 5.5347 19.2756 5.51018C19.2343 5.49383 19.1929 5.4693 19.1515 5.45296C19.1101 5.43661 19.0605 5.41208 19.0191 5.39573C18.9777 5.37939 18.9364 5.35486 18.895 5.33851C18.8536 5.32216 18.804 5.29764 18.7626 5.28129C18.7212 5.26494 18.6798 5.24859 18.6385 5.23225C18.5971 5.2159 18.5474 5.19955 18.5061 5.1832C18.4647 5.16685 18.4233 5.1505 18.3819 5.13415C18.3405 5.1178 18.2909 5.10146 18.2495 5.08511C18.2081 5.06876 18.1668 5.05241 18.1254 5.03606C18.084 5.01971 18.0344 5.00336 17.993 4.98701C17.9516 4.97066 17.9102 4.95432 17.8689 4.94614C17.8192 4.92979 17.7778 4.91344 17.7282 4.90527C17.6868 4.88892 17.6454 4.88075 17.604 4.8644C17.5544 4.84805 17.513 4.83987 17.4634 4.82352C17.422 4.81535 17.3806 4.799 17.3392 4.79083C17.2896 4.77448 17.2482 4.7663 17.1986 4.75813C17.1572 4.74995 17.1158 4.73361 17.0744 4.72543C17.0248 4.71726 16.9751 4.70091 16.9337 4.69273C16.8924 4.68456 16.851 4.67639 16.8096 4.66004C16.76 4.65186 16.7103 4.64369 16.6689 4.62734C16.6276 4.61916 16.5862 4.61099 16.5448 4.60282C16.4952 4.59464 16.4455 4.58647 16.3959 4.57829C16.3545 4.57012 16.3131 4.56194 16.2717 4.55377C16.2221 4.54559 16.1724 4.53742 16.1228 4.52925C16.0814 4.52107 16.04 4.5129 15.9986 4.5129C15.949 4.50472 15.8993 4.49655 15.8414 4.49655C15.8 4.48837 15.7587 4.48837 15.7173 4.4802C15.6676 4.47202 15.6097 4.47202 15.5601 4.46385C15.5187 4.46385 15.4773 4.45568 15.4442 4.45568C15.3863 4.4475 15.3366 4.4475 15.2787 4.4475C15.2373 4.4475 15.2042 4.43933 15.1628 4.43933C15.1049 4.43933 15.0387 4.43115 14.9808 4.43115C14.9477 4.43115 14.9146 4.43115 14.8815 4.43115C14.7905 4.43115 14.6911 4.43115 14.6001 4.43115C14.5174 4.43115 14.4263 4.43115 14.3436 4.43115C12.1175 4.59464 10.0653 5.37121 8.35229 6.5892C5.35664 8.71455 3.40368 12.1805 3.3623 16.0961H3.73469H4.07398H9.13844C9.20465 13.2105 11.2652 10.8317 13.9795 10.3086L10.4873 16.0961H11.5217L15.0801 10.1941C15.0884 10.1941 15.0966 10.1941 15.1049 10.1941C15.6676 10.1941 16.2138 10.2759 16.7351 10.423L13.3092 16.0961H14.3519L17.5875 10.7418C18.0344 10.9462 18.4564 11.2159 18.8453 11.5184L16.0814 16.0961H17.1241L19.5074 12.1478C20.459 13.1941 21.0548 14.5756 21.0879 16.0961H26.1027C26.1027 16.0634 26.1027 16.0307 26.1027 15.998C26.1027 15.8999 26.1027 15.8181 26.1027 15.7282Z" fill="#F9854E"/>
<path d="M30.5357 17.1909H0V18.6787H30.5357V17.1909Z" fill="#FFFDFA"/>
</svg>
