<svg width="41" height="29" viewBox="0 0 41 29" fill="none" xmlns="http://www.w3.org/2000/svg">
<path d="M29.8613 9.86133C29.9068 9.90667 29.9523 9.94068 30.0092 9.98602C29.9637 9.94068 29.9182 9.90667 29.8613 9.86133Z" fill="#FFFDFA"/>
<path d="M27.9961 8.5127C28.053 8.5467 28.0984 8.58071 28.1553 8.61471C28.1098 8.58071 28.053 8.5467 27.9961 8.5127Z" fill="#FFFDFA"/>
<path d="M30.1553 10.1104C30.2008 10.1557 30.2463 10.1897 30.2917 10.235C30.2576 10.201 30.2008 10.1557 30.1553 10.1104Z" fill="#FFFDFA"/>
<path d="M28.644 8.93164C28.7009 8.96565 28.7464 8.99965 28.8033 9.03366C28.7464 9.01099 28.6895 8.97698 28.644 8.93164Z" fill="#FFFDFA"/>
<path d="M29.5649 9.62354C29.6104 9.65754 29.6673 9.70288 29.7128 9.73689C29.6673 9.70288 29.6218 9.65754 29.5649 9.62354Z" fill="#FFFDFA"/>
<path d="M28.3247 8.72803C28.3816 8.76203 28.4271 8.79604 28.4839 8.83005C28.4271 8.79604 28.3702 8.76203 28.3247 8.72803Z" fill="#FFFDFA"/>
<path d="M29.271 9.38525C29.3165 9.41926 29.3733 9.4646 29.4188 9.49861C29.362 9.4646 29.3165 9.41926 29.271 9.38525Z" fill="#FFFDFA"/>
<path d="M30.4517 10.3711C30.4971 10.4164 30.5426 10.4618 30.5881 10.4958C30.5426 10.4504 30.4971 10.4164 30.4517 10.3711Z" fill="#FFFDFA"/>
<path d="M32.9883 13.2617C33.0224 13.3184 33.0565 13.3637 33.0906 13.4204C33.0565 13.3751 33.0224 13.3184 32.9883 13.2617Z" fill="#FFFDFA"/>
<path d="M32.7612 12.9561C32.7953 13.0014 32.8408 13.0581 32.875 13.1148C32.8408 13.0581 32.8067 13.0014 32.7612 12.9561Z" fill="#FFFDFA"/>
<path d="M33.4209 13.9082C33.455 13.9649 33.4891 14.0102 33.5232 14.0669C33.4891 14.0216 33.455 13.9649 33.4209 13.9082Z" fill="#FFFDFA"/>
<path d="M32.5322 12.6382C32.5663 12.6835 32.6118 12.7402 32.6459 12.7855C32.6118 12.7402 32.5663 12.6949 32.5322 12.6382Z" fill="#FFFDFA"/>
<path d="M33.2036 13.5908C33.2377 13.6475 33.2718 13.6928 33.306 13.7495C33.2718 13.6928 33.2377 13.6362 33.2036 13.5908Z" fill="#FFFDFA"/>
<path d="M32.2939 12.3325C32.3281 12.3779 32.3736 12.4345 32.4077 12.4799C32.3736 12.4345 32.3394 12.3892 32.2939 12.3325Z" fill="#FFFDFA"/>
<path d="M31.5439 11.4595C31.5894 11.5048 31.6235 11.5502 31.669 11.5955C31.6235 11.5502 31.5781 11.5048 31.5439 11.4595Z" fill="#FFFDFA"/>
<path d="M31.7939 11.7432C31.8394 11.7885 31.8736 11.8338 31.919 11.8905C31.8849 11.8338 31.8394 11.7885 31.7939 11.7432Z" fill="#FFFDFA"/>
<path d="M32.0557 12.0376C32.1012 12.0829 32.1353 12.1396 32.1808 12.185C32.1353 12.1396 32.0898 12.0829 32.0557 12.0376Z" fill="#FFFDFA"/>
<path d="M22.3325 6.35889C22.3894 6.37022 22.4462 6.38156 22.5031 6.39289C22.4576 6.38156 22.3894 6.37022 22.3325 6.35889Z" fill="#FFFDFA"/>
<path d="M23.8208 6.67627C23.8777 6.6876 23.9345 6.71028 23.9914 6.72161C23.9345 6.71028 23.8777 6.69894 23.8208 6.67627Z" fill="#FFFDFA"/>
<path d="M21.9575 6.30225C22.0144 6.31358 22.0712 6.32492 22.1281 6.32492C22.0712 6.31358 22.0144 6.30225 21.9575 6.30225Z" fill="#FFFDFA"/>
<path d="M23.0825 6.49512C23.1394 6.50645 23.1962 6.51779 23.2531 6.54046C23.1962 6.52912 23.1394 6.51779 23.0825 6.49512Z" fill="#FFFDFA"/>
<path d="M22.7075 6.42676C22.7644 6.43809 22.8212 6.44943 22.8781 6.46076C22.8326 6.44943 22.7644 6.43809 22.7075 6.42676Z" fill="#FFFDFA"/>
<path d="M20.8188 6.18896C20.8757 6.18896 20.9212 6.2003 20.9781 6.2003C20.9212 6.2003 20.8643 6.18896 20.8188 6.18896Z" fill="#FFFDFA"/>
<path d="M21.5825 6.25635C21.6394 6.26768 21.6962 6.26768 21.7531 6.27902C21.6962 6.26768 21.6394 6.25635 21.5825 6.25635Z" fill="#FFFDFA"/>
<path d="M21.1958 6.21094C21.2527 6.21094 21.3095 6.22227 21.355 6.22227C21.3095 6.22227 21.2527 6.22227 21.1958 6.21094Z" fill="#FFFDFA"/>
<path d="M24.5518 6.90283C24.6086 6.9255 24.6655 6.93684 24.7223 6.95951C24.6655 6.93684 24.6086 6.91417 24.5518 6.90283Z" fill="#FFFDFA"/>
<path d="M26.665 7.77539C26.7219 7.79806 26.7788 7.83207 26.8243 7.85474C26.7788 7.82073 26.7219 7.79806 26.665 7.77539Z" fill="#FFFDFA"/>
<path d="M24.1865 6.78955C24.2434 6.81222 24.3002 6.82356 24.3571 6.84623C24.3116 6.82356 24.2434 6.80089 24.1865 6.78955Z" fill="#FFFDFA"/>
<path d="M27.3364 8.12744C27.3933 8.16145 27.4388 8.18412 27.4956 8.21813C27.4501 8.18412 27.3933 8.16145 27.3364 8.12744Z" fill="#FFFDFA"/>
<path d="M24.9131 7.02734C24.9699 7.05001 25.0268 7.07269 25.0837 7.09536C25.0268 7.06135 24.9699 7.03868 24.9131 7.02734Z" fill="#FFFDFA"/>
<path d="M27.6768 8.31982C27.7336 8.35383 27.7791 8.38784 27.836 8.41051C27.7791 8.38784 27.7222 8.35383 27.6768 8.31982Z" fill="#FFFDFA"/>
<path d="M28.9497 9.15918C28.9952 9.19319 29.0521 9.23853 29.0975 9.27253C29.0521 9.22719 29.0066 9.19319 28.9497 9.15918Z" fill="#FFFDFA"/>
<path d="M35.8442 21.2646C35.8442 21.3327 35.8556 21.3893 35.8556 21.4574C35.8442 21.3893 35.8442 21.3213 35.8442 21.2646Z" fill="#FFFDFA"/>
<path d="M35.6499 19.6895C35.6613 19.7575 35.6726 19.8141 35.684 19.8822C35.6726 19.8141 35.6613 19.7461 35.6499 19.6895Z" fill="#FFFDFA"/>
<path d="M35.3071 18.1587C35.3299 18.2154 35.3412 18.2834 35.3526 18.3401C35.3412 18.2834 35.3185 18.2154 35.3071 18.1587Z" fill="#FFFDFA"/>
<path d="M35.8535 21.6616C35.8535 21.7296 35.8535 21.7863 35.8649 21.8543C35.8649 21.7863 35.8649 21.7296 35.8535 21.6616Z" fill="#FFFDFA"/>
<path d="M35.8096 20.8677C35.8209 20.9357 35.8209 20.9924 35.8323 21.0604C35.8209 20.9924 35.8096 20.9244 35.8096 20.8677Z" fill="#FFFDFA"/>
<path d="M35.7168 20.0747C35.7282 20.1427 35.7395 20.1994 35.7395 20.2674C35.7282 20.2107 35.7282 20.1427 35.7168 20.0747Z" fill="#FFFDFA"/>
<path d="M34.9556 17.0479C34.9783 17.1045 35.0011 17.1725 35.0238 17.2292C34.9897 17.1612 34.9669 17.1045 34.9556 17.0479Z" fill="#FFFDFA"/>
<path d="M35.7632 20.4707C35.7746 20.5387 35.7746 20.5954 35.7859 20.6634C35.7859 20.5954 35.7746 20.5387 35.7632 20.4707Z" fill="#FFFDFA"/>
<path d="M35.0806 17.4106C35.1033 17.4673 35.1261 17.5353 35.1374 17.592C35.1147 17.5353 35.1033 17.4673 35.0806 17.4106Z" fill="#FFFDFA"/>
<path d="M34.8213 16.6738C34.844 16.7305 34.8668 16.7872 34.8895 16.8552C34.8668 16.7985 34.844 16.7418 34.8213 16.6738Z" fill="#FFFDFA"/>
<path d="M35.1938 17.7852C35.2166 17.8418 35.228 17.9098 35.2507 17.9665C35.2393 17.9098 35.2166 17.8418 35.1938 17.7852Z" fill="#FFFDFA"/>
<path d="M34.1826 15.2568C34.2167 15.3135 34.2395 15.3702 34.2622 15.4269C34.2395 15.3702 34.2054 15.3135 34.1826 15.2568Z" fill="#FFFDFA"/>
<path d="M35.4092 18.5327C35.4206 18.5894 35.4433 18.6574 35.4547 18.7141C35.4433 18.6574 35.4206 18.6007 35.4092 18.5327Z" fill="#FFFDFA"/>
<path d="M20.9338 3.98975C10.7897 3.98975 2.55617 12.1966 2.47656 22.3418H4.60318C4.64867 16.9008 7.34391 12.0946 11.4607 9.1587C13.8147 7.46972 16.6464 6.39286 19.6942 6.16615C20.1036 6.13214 20.513 6.12081 20.9338 6.12081C29.9065 6.12081 37.1848 13.3755 37.2644 22.3418H39.391C39.3228 12.1966 31.0893 3.98975 20.9338 3.98975Z" fill="#FFFDFA"/>
<path d="M35.5806 19.3032C35.5919 19.3712 35.6033 19.4279 35.6147 19.4959C35.6033 19.4279 35.5919 19.3599 35.5806 19.3032Z" fill="#FFFDFA"/>
<path d="M35.502 18.918C35.5133 18.986 35.5247 19.0427 35.5474 19.1107C35.5247 19.0427 35.5133 18.9746 35.502 18.918Z" fill="#FFFDFA"/>
<path d="M33.8193 14.5767C33.8535 14.6333 33.8762 14.69 33.9103 14.7467C33.8762 14.69 33.8421 14.6333 33.8193 14.5767Z" fill="#FFFDFA"/>
<path d="M26.4824 7.68506C26.5393 7.71906 26.5961 7.74174 26.6644 7.77574C26.6075 7.74174 26.5507 7.70773 26.4824 7.68506Z" fill="#EBEBEB"/>
<path d="M25.79 7.36768C25.8469 7.39035 25.9151 7.42435 25.972 7.44702C25.9151 7.42435 25.8583 7.39035 25.79 7.36768Z" fill="#EBEBEB"/>
<path d="M24.7207 6.95947C24.7776 6.98214 24.8458 7.00481 24.9027 7.02749C24.8458 7.00481 24.7889 6.98214 24.7207 6.95947Z" fill="#EBEBEB"/>
<path d="M35.5342 19.0996C35.5456 19.1676 35.5569 19.2356 35.5797 19.2923C35.5683 19.2356 35.5569 19.1676 35.5342 19.0996Z" fill="#EBEBEB"/>
<path d="M26.1421 7.52686C26.199 7.54953 26.2672 7.58353 26.324 7.6062C26.2672 7.5722 26.199 7.54953 26.1421 7.52686Z" fill="#EBEBEB"/>
<path d="M25.436 7.2207C25.4929 7.24337 25.5611 7.26604 25.618 7.28872C25.5611 7.27738 25.5043 7.24337 25.436 7.2207Z" fill="#EBEBEB"/>
<path d="M35.6846 19.8818C35.6959 19.9498 35.7073 20.0179 35.7187 20.0859C35.7073 20.0065 35.6959 19.9498 35.6846 19.8818Z" fill="#EBEBEB"/>
<path d="M35.8535 21.457C35.8535 21.525 35.8649 21.5931 35.8649 21.6611C35.8535 21.5931 35.8535 21.525 35.8535 21.457Z" fill="#EBEBEB"/>
<path d="M20.9334 6.12061C20.5127 6.12061 20.1033 6.13194 19.6938 6.16595C19.8076 6.16595 19.9327 6.16595 20.0464 6.16595C20.1715 6.16595 20.308 6.16595 20.433 6.16595C20.4785 6.16595 20.524 6.16595 20.5695 6.16595C20.6491 6.16595 20.7401 6.17728 20.8197 6.17728C20.8766 6.17728 20.9221 6.18862 20.9789 6.18862C21.0585 6.18862 21.1268 6.19995 21.2064 6.19995C21.2632 6.19995 21.3201 6.21129 21.3656 6.21129C21.4338 6.22262 21.5134 6.22262 21.5816 6.23396C21.6385 6.2453 21.6954 6.24529 21.7522 6.25663C21.8205 6.26797 21.8887 6.26797 21.9683 6.2793C22.0252 6.29064 22.082 6.30197 22.1389 6.30197C22.2071 6.31331 22.2754 6.32464 22.3436 6.33598C22.4005 6.34731 22.4573 6.35865 22.5142 6.36998C22.5824 6.38132 22.6506 6.39266 22.7189 6.40399C22.7757 6.41533 22.8326 6.42666 22.8895 6.438C22.9577 6.44933 23.0259 6.46067 23.0828 6.48334C23.1397 6.49467 23.1965 6.50601 23.2534 6.52868C23.3216 6.54002 23.3898 6.56269 23.4467 6.57402C23.5036 6.58536 23.5604 6.60803 23.6173 6.61936C23.6855 6.6307 23.7424 6.65337 23.8106 6.66471C23.8675 6.67604 23.9243 6.69871 23.9812 6.71005C24.0494 6.73272 24.1063 6.74405 24.1745 6.76672C24.2314 6.7894 24.2883 6.80073 24.3451 6.8234C24.4134 6.84607 24.4702 6.85741 24.5384 6.88008C24.5953 6.90275 24.6522 6.91408 24.709 6.93676C24.7659 6.95943 24.8341 6.9821 24.891 7.00477C24.9478 7.02744 25.0047 7.05011 25.0616 7.07278C25.1184 7.09545 25.1867 7.11812 25.2435 7.14079C25.3004 7.16346 25.3573 7.18613 25.4141 7.20881C25.471 7.23148 25.5392 7.25415 25.5961 7.27682C25.6529 7.29949 25.7098 7.32216 25.7667 7.34483C25.8235 7.3675 25.8917 7.40151 25.9486 7.42418C26.0055 7.44685 26.0623 7.46952 26.1192 7.50353C26.1761 7.5262 26.2443 7.5602 26.3012 7.58288C26.358 7.60555 26.4149 7.63955 26.4717 7.66222C26.5286 7.69623 26.5855 7.7189 26.6537 7.75291C26.7106 7.77558 26.7674 7.80958 26.8129 7.83225C26.8698 7.86626 26.9266 7.88893 26.9835 7.92294C27.0404 7.95694 27.0972 7.97961 27.1427 8.01362C27.1996 8.04763 27.2564 8.08163 27.3133 8.1043C27.3701 8.13831 27.4156 8.16098 27.4725 8.19499C27.5294 8.22899 27.5862 8.263 27.6431 8.29701C27.6999 8.33101 27.7454 8.36502 27.8023 8.38769C27.8592 8.4217 27.916 8.4557 27.9729 8.48971C28.0297 8.52372 28.0752 8.55772 28.1321 8.59173C28.189 8.62573 28.2458 8.65974 28.3027 8.69375C28.3595 8.72775 28.405 8.76176 28.4619 8.79576C28.5188 8.82977 28.5756 8.86378 28.6211 8.90912C28.678 8.94313 28.7235 8.97713 28.7803 9.01114C28.8372 9.04514 28.8827 9.09049 28.9395 9.12449C28.985 9.1585 29.0419 9.20384 29.0874 9.23785C29.1442 9.27185 29.1897 9.31719 29.2466 9.3512C29.2921 9.38521 29.3489 9.43055 29.3944 9.46456C29.4513 9.5099 29.4968 9.5439 29.5536 9.58924C29.5991 9.62325 29.656 9.66859 29.7015 9.7026C29.747 9.74794 29.8038 9.78195 29.8493 9.82729C29.8948 9.87263 29.9403 9.90664 29.9971 9.95198C30.0426 9.99732 30.0995 10.0313 30.145 10.0767C30.1905 10.122 30.236 10.156 30.2815 10.2014C30.3269 10.2467 30.3838 10.292 30.4293 10.3374C30.4748 10.3827 30.5203 10.4281 30.5658 10.4621C30.6113 10.5074 30.6567 10.5528 30.7136 10.5981C30.7591 10.6434 30.8046 10.6888 30.8501 10.7341C30.8956 10.7795 30.941 10.8248 30.9865 10.8701C31.032 10.9155 31.0775 10.9608 31.123 11.0062C31.1685 11.0515 31.214 11.0969 31.2595 11.1422C31.305 11.1875 31.3505 11.2329 31.3846 11.2782C31.4301 11.3236 31.4755 11.3689 31.521 11.4256C31.5665 11.4709 31.6006 11.5163 31.6461 11.5616C31.6916 11.6069 31.7371 11.6636 31.7826 11.709C31.8281 11.7543 31.8622 11.7997 31.9077 11.8563C31.9532 11.9017 31.9987 11.9583 32.0328 12.0037C32.0783 12.049 32.1124 12.1057 32.1579 12.151C32.2034 12.1964 32.2375 12.2531 32.283 12.3097C32.3171 12.3551 32.3626 12.4118 32.3967 12.4571C32.4422 12.5138 32.4763 12.5591 32.5218 12.6158C32.5559 12.6611 32.6014 12.7178 32.6355 12.7632C32.6696 12.8198 32.7151 12.8652 32.7492 12.9219C32.7834 12.9672 32.8288 13.0239 32.863 13.0806C32.8971 13.1372 32.9426 13.1826 32.9767 13.2393C33.0108 13.2959 33.0449 13.3413 33.079 13.3979C33.1132 13.4546 33.1473 13.5113 33.1928 13.5566C33.2269 13.6133 33.261 13.6587 33.2951 13.7153C33.3292 13.772 33.3633 13.8287 33.3975 13.8854C33.4316 13.942 33.4657 13.9874 33.4998 14.0441C33.5339 14.1007 33.568 14.1574 33.6022 14.2141C33.6363 14.2708 33.6704 14.3275 33.6931 14.3728C33.7273 14.4295 33.7614 14.4861 33.7955 14.5428C33.8296 14.5995 33.8524 14.6562 33.8865 14.7129C33.9206 14.7695 33.9547 14.8262 33.9775 14.8829C34.0116 14.9396 34.0343 14.9962 34.0684 15.0529C34.1025 15.1096 34.1253 15.1663 34.1594 15.2343C34.1935 15.291 34.2163 15.3476 34.239 15.4043C34.2731 15.461 34.2959 15.5177 34.33 15.5857C34.3527 15.6424 34.3869 15.699 34.4096 15.7557C34.4323 15.8124 34.4665 15.8804 34.4892 15.9371C34.512 15.9938 34.5461 16.0504 34.5688 16.1071C34.5916 16.1638 34.6257 16.2318 34.6484 16.2885C34.6712 16.3452 34.6939 16.4018 34.7167 16.4698C34.7394 16.5265 34.7621 16.5945 34.7849 16.6512C34.8076 16.7079 34.8304 16.7646 34.8531 16.8326C34.8759 16.8893 34.8986 16.9573 34.9214 17.0139C34.9441 17.0706 34.9668 17.1386 34.9896 17.1953C35.0123 17.2633 35.0351 17.32 35.0578 17.388C35.0806 17.4447 35.1033 17.5127 35.1147 17.5694C35.1374 17.6374 35.1602 17.6941 35.1715 17.7621C35.1943 17.8188 35.2057 17.8868 35.2284 17.9434C35.2512 18.0115 35.2625 18.0681 35.2853 18.1362C35.308 18.1928 35.3194 18.2608 35.3308 18.3175C35.3535 18.3855 35.3649 18.4422 35.3762 18.5102C35.3876 18.5669 35.4104 18.6349 35.4217 18.6916C35.4331 18.7596 35.4559 18.8163 35.4672 18.8843C35.4786 18.9523 35.49 19.009 35.5127 19.077C35.5241 19.145 35.5355 19.213 35.5582 19.2697C35.5696 19.3377 35.5809 19.3944 35.5923 19.4624C35.6037 19.5304 35.6151 19.5984 35.6264 19.6551C35.6378 19.7231 35.6492 19.7798 35.6606 19.8478C35.6719 19.9158 35.6833 19.9838 35.6947 20.0518C35.706 20.1199 35.7174 20.1765 35.7174 20.2445C35.7288 20.3126 35.7288 20.3806 35.7402 20.4486C35.7515 20.5166 35.7515 20.5733 35.7629 20.6413C35.7743 20.7093 35.7743 20.7773 35.7856 20.8453C35.797 20.9133 35.797 20.97 35.8084 21.038C35.8084 21.106 35.8198 21.174 35.8198 21.2421C35.8198 21.3101 35.8311 21.3667 35.8311 21.4348C35.8311 21.5028 35.8425 21.5708 35.8425 21.6388C35.8425 21.7068 35.8425 21.7635 35.8539 21.8315C35.8539 21.9562 35.8539 22.0695 35.8539 22.1942C35.8539 22.2396 35.8539 22.2849 35.8539 22.3303H36.1041H37.2527C37.1958 13.3753 29.9062 6.12061 20.9334 6.12061Z" fill="#DE500C"/>
<path d="M21.7515 6.26807C21.8197 6.2794 21.8879 6.2794 21.9675 6.29074C21.8879 6.29074 21.8197 6.2794 21.7515 6.26807Z" fill="#EBEBEB"/>
<path d="M21.3672 6.23389C21.4354 6.24522 21.515 6.24522 21.5833 6.25656C21.5037 6.24522 21.4354 6.23389 21.3672 6.23389Z" fill="#EBEBEB"/>
<path d="M20.9692 6.19971C21.0488 6.19971 21.1171 6.21104 21.1967 6.21104C21.1285 6.21104 21.0488 6.19971 20.9692 6.19971Z" fill="#EBEBEB"/>
<path d="M35.7402 20.2671C35.7516 20.3351 35.7516 20.4031 35.763 20.4711C35.763 20.4031 35.7516 20.3351 35.7402 20.2671Z" fill="#EBEBEB"/>
<path d="M20.5713 6.17725C20.6509 6.17725 20.7419 6.18858 20.8215 6.18858C20.7305 6.18858 20.6509 6.17725 20.5713 6.17725Z" fill="#EBEBEB"/>
<path d="M23.9917 6.73242C24.0599 6.75509 24.1168 6.76643 24.185 6.7891C24.1282 6.76643 24.0599 6.74376 23.9917 6.73242Z" fill="#EBEBEB"/>
<path d="M22.5127 6.38135C22.5809 6.39268 22.6492 6.40402 22.7174 6.41535C22.6378 6.41535 22.5809 6.40402 22.5127 6.38135Z" fill="#EBEBEB"/>
<path d="M24.3667 6.84619C24.4349 6.86886 24.4918 6.8802 24.56 6.90287C24.4918 6.8802 24.4236 6.85753 24.3667 6.84619Z" fill="#EBEBEB"/>
<path d="M22.8877 6.46094C22.9559 6.47227 23.0242 6.48361 23.081 6.50628C23.0128 6.48361 22.9559 6.47227 22.8877 6.46094Z" fill="#EBEBEB"/>
<path d="M35.8188 21.0605C35.8188 21.1286 35.8302 21.1966 35.8302 21.2646C35.8302 21.1966 35.8302 21.1286 35.8188 21.0605Z" fill="#EBEBEB"/>
<path d="M32.875 13.1035C32.9091 13.1602 32.9546 13.2055 32.9887 13.2622C32.9546 13.2169 32.9205 13.1602 32.875 13.1035Z" fill="#EBEBEB"/>
<path d="M27.165 8.03662C27.2219 8.07063 27.2788 8.10463 27.3356 8.1273C27.2788 8.0933 27.2219 8.07063 27.165 8.03662Z" fill="#EBEBEB"/>
<path d="M34.4326 15.7783C34.4554 15.835 34.4895 15.903 34.5122 15.9597C34.4895 15.903 34.4554 15.8463 34.4326 15.7783Z" fill="#EBEBEB"/>
<path d="M30.8613 10.7681C30.9068 10.8134 30.9523 10.8587 30.9978 10.9041C30.9637 10.8587 30.9182 10.8134 30.8613 10.7681Z" fill="#EBEBEB"/>
<path d="M34.7402 16.4922C34.763 16.5489 34.7857 16.6169 34.8085 16.6736C34.7857 16.6169 34.763 16.5602 34.7402 16.4922Z" fill="#EBEBEB"/>
<path d="M34.5923 16.1406C34.615 16.1973 34.6491 16.2653 34.6719 16.322C34.6378 16.254 34.615 16.1973 34.5923 16.1406Z" fill="#EBEBEB"/>
<path d="M33.3076 13.7495C33.3417 13.8062 33.3759 13.8629 33.41 13.9195C33.3872 13.8515 33.3531 13.7949 33.3076 13.7495Z" fill="#EBEBEB"/>
<path d="M33.9092 14.7466C33.9433 14.8033 33.9774 14.8599 34.0002 14.9166C33.966 14.8599 33.9433 14.8033 33.9092 14.7466Z" fill="#EBEBEB"/>
<path d="M33.5229 14.0781C33.5571 14.1348 33.5912 14.1915 33.6253 14.2482C33.5912 14.1801 33.5571 14.1235 33.5229 14.0781Z" fill="#EBEBEB"/>
<path d="M32.6455 12.7974C32.6796 12.854 32.7251 12.8994 32.7592 12.9561C32.7251 12.8994 32.691 12.8427 32.6455 12.7974Z" fill="#EBEBEB"/>
<path d="M34.2612 15.4268C34.2953 15.4834 34.3181 15.5401 34.3522 15.6081C34.3181 15.5514 34.2953 15.4948 34.2612 15.4268Z" fill="#EBEBEB"/>
<path d="M32.4072 12.4795C32.4527 12.5362 32.4868 12.5815 32.5323 12.6382C32.4982 12.5928 32.4527 12.5362 32.4072 12.4795Z" fill="#EBEBEB"/>
<path d="M35.3535 18.3398C35.3763 18.4079 35.3876 18.4645 35.399 18.5325C35.3876 18.4759 35.3763 18.4079 35.3535 18.3398Z" fill="#EBEBEB"/>
<path d="M28.4844 8.82959C28.5412 8.8636 28.5981 8.8976 28.6436 8.94294C28.5867 8.8976 28.5299 8.8636 28.4844 8.82959Z" fill="#EBEBEB"/>
<path d="M28.792 9.04492C28.8489 9.07893 28.8943 9.12427 28.9512 9.15828C28.9057 9.12427 28.8489 9.07893 28.792 9.04492Z" fill="#EBEBEB"/>
<path d="M35.4556 18.7251C35.4669 18.7931 35.4897 18.8498 35.5011 18.9178C35.4897 18.8498 35.4669 18.7818 35.4556 18.7251Z" fill="#EBEBEB"/>
<path d="M34.8887 16.855C34.9114 16.9117 34.9342 16.9797 34.9569 17.0363C34.9342 16.9797 34.9114 16.923 34.8887 16.855Z" fill="#EBEBEB"/>
<path d="M30.3032 10.2354C30.3487 10.2807 30.4056 10.326 30.4511 10.3714C30.3942 10.326 30.3487 10.2807 30.3032 10.2354Z" fill="#EBEBEB"/>
<path d="M30.0093 9.98584C30.0548 10.0312 30.1116 10.0652 30.1571 10.1105C30.1116 10.0652 30.0661 10.0312 30.0093 9.98584Z" fill="#EBEBEB"/>
<path d="M35.0132 17.2178C35.0359 17.2858 35.0587 17.3425 35.0814 17.4105C35.0587 17.3538 35.0359 17.2858 35.0132 17.2178Z" fill="#EBEBEB"/>
<path d="M29.417 9.49854C29.4739 9.54388 29.5193 9.57788 29.5762 9.62323C29.5193 9.57788 29.4625 9.54388 29.417 9.49854Z" fill="#EBEBEB"/>
<path d="M29.7134 9.73682C29.7589 9.78216 29.8157 9.81616 29.8612 9.86151C29.8157 9.8275 29.7702 9.78216 29.7134 9.73682Z" fill="#EBEBEB"/>
<path d="M29.1094 9.27197C29.1662 9.30598 29.2117 9.35132 29.2686 9.38533C29.2117 9.35132 29.1549 9.30598 29.1094 9.27197Z" fill="#EBEBEB"/>
<path d="M20.9367 5.30358C22.3938 5.30358 23.5751 4.12617 23.5751 2.67376C23.5751 1.22136 22.3938 0.0439453 20.9367 0.0439453C19.4796 0.0439453 18.2983 1.22136 18.2983 2.67376C18.2983 4.12617 19.4796 5.30358 20.9367 5.30358Z" fill="#FFFDFA"/>
<rect x="9.48047" y="12.8691" width="21.0479" height="9.49457" fill="#FFFDFA"/>
<path d="M35.8712 21.8535C35.8712 21.7855 35.8712 21.7289 35.8598 21.6608C35.8598 21.5928 35.8598 21.5248 35.8484 21.4568C35.8484 21.3888 35.8371 21.3321 35.8371 21.2641C35.8371 21.1961 35.8257 21.1281 35.8257 21.0601C35.8257 20.9921 35.8143 20.9354 35.803 20.8674C35.7916 20.7993 35.7916 20.7313 35.7802 20.6633C35.7688 20.5953 35.7688 20.5386 35.7575 20.4706C35.7461 20.4026 35.7461 20.3346 35.7347 20.2666C35.7233 20.1986 35.712 20.1419 35.712 20.0739C35.7006 20.0059 35.6892 19.9379 35.6779 19.8698C35.6665 19.8018 35.6551 19.7452 35.6437 19.6771C35.6324 19.6091 35.621 19.5411 35.6096 19.4844C35.5983 19.4164 35.5869 19.3598 35.5755 19.2917C35.5641 19.2237 35.5528 19.1557 35.53 19.099C35.5186 19.031 35.5073 18.9743 35.4845 18.9063C35.4732 18.8383 35.4504 18.7816 35.439 18.7136C35.4277 18.657 35.4049 18.5889 35.3936 18.5323C35.3822 18.4643 35.3594 18.4076 35.3481 18.3396C35.3367 18.2829 35.3139 18.2149 35.3026 18.1582C35.2798 18.0902 35.2685 18.0335 35.2457 17.9655C35.223 17.9088 35.2116 17.8408 35.1889 17.7841C35.1661 17.7161 35.1547 17.6594 35.132 17.5914C35.1092 17.5347 35.0979 17.4667 35.0751 17.4101C35.0524 17.342 35.0296 17.2854 35.0069 17.2174C34.9841 17.1607 34.9614 17.0927 34.9387 17.036C34.9159 16.9793 34.8932 16.9113 34.8704 16.8546C34.8477 16.7979 34.8249 16.7413 34.8022 16.6733C34.7794 16.6166 34.7567 16.5486 34.734 16.4919C34.7112 16.4352 34.6885 16.3785 34.6657 16.3105C34.643 16.2538 34.6202 16.1858 34.5861 16.1292C34.5634 16.0725 34.5406 16.0158 34.5065 15.9591C34.4838 15.9024 34.4497 15.8344 34.4269 15.7778C34.4042 15.7211 34.37 15.6644 34.3473 15.6077C34.3246 15.551 34.2904 15.4944 34.2563 15.4264C34.2336 15.3697 34.1995 15.313 34.1767 15.2563C34.1426 15.1996 34.1199 15.143 34.0857 15.075C34.0516 15.0183 34.0289 14.9616 33.9948 14.9049C33.9606 14.8483 33.9265 14.7916 33.9038 14.7349C33.8697 14.6782 33.8469 14.6215 33.8128 14.5649C33.7787 14.5082 33.7446 14.4515 33.7105 14.3948C33.6763 14.3382 33.6422 14.2815 33.6195 14.2361C33.5854 14.1795 33.5512 14.1228 33.5171 14.0661C33.483 14.0094 33.4489 13.9641 33.4148 13.9074C33.3807 13.8507 33.3465 13.7941 33.3124 13.7374C33.2783 13.6807 33.2442 13.6354 33.2101 13.5787C33.176 13.522 33.1418 13.4653 33.0963 13.42C33.0622 13.3633 33.0281 13.318 32.994 13.2613C32.9599 13.2046 32.9144 13.1479 32.8803 13.1026C32.8462 13.0459 32.812 13.0006 32.7666 12.9439C32.7324 12.8872 32.6869 12.8419 32.6528 12.7852C32.6187 12.7399 32.5732 12.6832 32.5391 12.6378C32.4936 12.5812 32.4595 12.5358 32.414 12.4791C32.3799 12.4338 32.3344 12.3771 32.3003 12.3318C32.2548 12.2751 32.2207 12.2298 32.1752 12.1731C32.1297 12.1278 32.0956 12.0711 32.0501 12.0257C32.0046 11.9804 31.9705 11.9237 31.925 11.8784C31.8795 11.833 31.8454 11.7877 31.7999 11.731C31.7544 11.6857 31.7089 11.629 31.6634 11.5836C31.618 11.5383 31.5838 11.493 31.5383 11.4476C31.4929 11.4023 31.4474 11.3456 31.4019 11.3003C31.3564 11.2549 31.3109 11.2096 31.2768 11.1642C31.2313 11.1189 31.1858 11.0736 31.1403 11.0282C31.0948 10.9829 31.0493 10.9375 31.0038 10.8922C30.9584 10.8468 30.9129 10.8015 30.8674 10.7562C30.8219 10.7108 30.7764 10.6655 30.7309 10.6201C30.6854 10.5748 30.6399 10.5295 30.5831 10.4841C30.5376 10.4388 30.4921 10.3934 30.4466 10.3594C30.4011 10.3141 30.3443 10.2687 30.2988 10.2234C30.2533 10.1781 30.2078 10.1441 30.1623 10.0987C30.1168 10.0534 30.0599 10.008 30.0145 9.97402C29.969 9.92868 29.9235 9.89467 29.8666 9.84933C29.8211 9.80399 29.7643 9.76998 29.7188 9.72464C29.6733 9.69063 29.6164 9.64529 29.5709 9.61129C29.5141 9.56594 29.4686 9.53194 29.4117 9.4866C29.3662 9.45259 29.3094 9.40725 29.2639 9.37324C29.207 9.33924 29.1615 9.29389 29.1047 9.25989C29.0592 9.22588 29.0023 9.18054 28.9568 9.14653C28.9 9.11253 28.8545 9.06719 28.7976 9.03318C28.7408 8.99917 28.6953 8.96517 28.6384 8.93116C28.5815 8.89715 28.5361 8.86315 28.4792 8.81781C28.4223 8.7838 28.3768 8.74979 28.32 8.71579C28.2631 8.68178 28.2063 8.64778 28.1494 8.61377C28.0925 8.57976 28.047 8.54576 27.9902 8.51175C27.9333 8.47774 27.8765 8.44374 27.8196 8.40973C27.7627 8.37572 27.7173 8.34172 27.6604 8.31905C27.6035 8.28504 27.5467 8.25104 27.4898 8.21703C27.4329 8.18302 27.3875 8.16035 27.3306 8.12635C27.2737 8.09234 27.2169 8.05833 27.16 8.03566C27.1031 8.00166 27.0463 7.97899 27.0008 7.94498C26.9439 7.91097 26.8871 7.8883 26.8302 7.8543C26.7733 7.83162 26.7165 7.79762 26.671 7.77495C26.6141 7.74094 26.5573 7.71827 26.489 7.68426C26.4322 7.66159 26.3753 7.62759 26.3185 7.60492C26.2616 7.58225 26.1934 7.54824 26.1365 7.52557C26.0796 7.5029 26.0228 7.46889 25.9659 7.44622C25.9091 7.42355 25.8408 7.38954 25.784 7.36687C25.7271 7.3442 25.6702 7.32153 25.6134 7.29886C25.5565 7.27619 25.4883 7.25352 25.4314 7.23085C25.3746 7.20818 25.3177 7.18551 25.2608 7.16283C25.204 7.14016 25.1357 7.11749 25.0789 7.09482C25.022 7.07215 24.9652 7.04948 24.9083 7.02681C24.8514 7.00414 24.7832 6.98147 24.7263 6.9588C24.6695 6.93613 24.6126 6.91346 24.5558 6.90212C24.4875 6.87945 24.4307 6.85678 24.3624 6.84544C24.3056 6.82277 24.2487 6.81144 24.1918 6.78877C24.1236 6.7661 24.0667 6.75476 23.9985 6.73209C23.9416 6.72075 23.8848 6.69808 23.8279 6.68675C23.7597 6.66408 23.7028 6.65274 23.6346 6.64141C23.5777 6.63007 23.5209 6.6074 23.464 6.59606C23.3958 6.58473 23.3275 6.56206 23.2707 6.55072C23.2138 6.53939 23.157 6.52805 23.1001 6.50538C23.0319 6.49405 22.9636 6.48271 22.9068 6.46004C22.8499 6.4487 22.793 6.43737 22.7362 6.42603C22.6679 6.4147 22.5997 6.40336 22.5315 6.39203C22.4746 6.38069 22.4178 6.36936 22.3609 6.35802C22.2927 6.34668 22.2244 6.33535 22.1562 6.32401C22.0993 6.31268 22.0425 6.30134 21.9856 6.30134C21.9174 6.29001 21.8491 6.27867 21.7695 6.27867C21.7127 6.26734 21.6558 6.26734 21.599 6.256C21.5307 6.24467 21.4511 6.24467 21.3829 6.23333C21.326 6.23333 21.2692 6.22199 21.2237 6.22199C21.1441 6.21066 21.0758 6.21066 20.9962 6.21066C20.9394 6.21066 20.8939 6.19932 20.837 6.19932C20.7574 6.19932 20.6664 6.18799 20.5868 6.18799C20.5413 6.18799 20.4958 6.18799 20.4504 6.18799C20.3253 6.18799 20.1888 6.18799 20.0637 6.18799C19.95 6.18799 19.8249 6.18799 19.7112 6.18799C16.652 6.4147 13.8317 7.49156 11.4776 9.18054C7.36084 12.1277 4.67698 16.934 4.62012 22.3636H5.13187H5.59813H12.558C12.649 18.3622 15.4807 15.0636 19.2108 14.3382L14.4117 22.3636H15.8332L20.7233 14.1795C20.7347 14.1795 20.746 14.1795 20.7574 14.1795C21.5307 14.1795 22.2813 14.2928 22.9977 14.4969L18.2896 22.3636H19.7225L24.1691 14.9389C24.7832 15.2223 25.3632 15.5964 25.8977 16.0158L22.0993 22.3636H23.5322L26.8075 16.8886C28.1153 18.3396 28.9341 20.2552 28.9796 22.3636H35.8712C35.8712 22.3183 35.8712 22.273 35.8712 22.2276C35.8712 22.0916 35.8712 21.9782 35.8712 21.8535Z" fill="#F9854E"/>
<path d="M41.9638 23.8823H0V25.9454H41.9638V23.8823Z" fill="#FFFDFA"/>
</svg>
