<svg width="24" height="20" viewBox="0 0 24 20" fill="none" xmlns="http://www.w3.org/2000/svg">
<path d="M4.36311 19.1288V17.8941C4.36311 17.4206 4.07492 17.112 3.58095 17.112C3.33401 17.112 3.06645 17.1943 2.8812 17.4619C2.7372 17.2355 2.53142 17.112 2.2227 17.112C2.01683 17.112 1.81114 17.1737 1.64642 17.4001V17.1532H1.21423V19.1288H1.64642V18.0381C1.64642 17.6883 1.83167 17.5236 2.11986 17.5236C2.40786 17.5236 2.55205 17.7088 2.55205 18.0381V19.1288H2.98423V18.0381C2.98423 17.6883 3.18992 17.5236 3.45748 17.5236C3.74567 17.5236 3.88967 17.7088 3.88967 18.0381V19.1288H4.36311ZM10.7635 17.1532H10.0639V16.5563H9.63167V17.1532H9.24064V17.5441H9.63158V18.4497C9.63158 18.9025 9.81683 19.17 10.3108 19.17C10.496 19.17 10.7017 19.1083 10.8459 19.026L10.7224 18.6555C10.5989 18.7378 10.4549 18.7584 10.352 18.7584C10.1462 18.7584 10.0639 18.635 10.0639 18.4291V17.5441H10.7635V17.1532ZM14.4269 17.1119C14.18 17.1119 14.0153 17.2355 13.9124 17.4001V17.1532H13.4802V19.1288H13.9124V18.0175C13.9124 17.6883 14.0564 17.503 14.324 17.503C14.4063 17.503 14.5092 17.5237 14.5915 17.5442L14.715 17.1326C14.6327 17.112 14.5092 17.112 14.4269 17.112V17.1119ZM8.89076 17.3178C8.68489 17.1737 8.3968 17.112 8.08808 17.112C7.5942 17.112 7.26495 17.3589 7.26495 17.75C7.26495 18.0793 7.51189 18.2645 7.94408 18.3262L8.14986 18.3469C8.37627 18.3879 8.49973 18.4497 8.49973 18.5527C8.49973 18.6967 8.33511 18.7996 8.04692 18.7996C7.75883 18.7996 7.53242 18.6967 7.38833 18.5938L7.18255 18.9231C7.40895 19.0877 7.71767 19.17 8.0263 19.17C8.60258 19.17 8.93192 18.9025 8.93192 18.532C8.93192 18.1822 8.66436 17.9969 8.2527 17.9352L8.04692 17.9146C7.86167 17.894 7.71767 17.8529 7.71767 17.7294C7.71767 17.5853 7.86167 17.503 8.08808 17.503C8.33511 17.503 8.58205 17.6059 8.70551 17.6677L8.89076 17.3178ZM20.3747 17.112C20.1276 17.112 19.963 17.2355 19.8601 17.4001V17.1532H19.4279V19.1288H19.8601V18.0175C19.8601 17.6883 20.0042 17.503 20.2716 17.503C20.354 17.503 20.457 17.5237 20.5393 17.5442L20.6628 17.1326C20.5805 17.112 20.457 17.112 20.3747 17.112ZM14.8591 18.141C14.8591 18.7378 15.2706 19.17 15.9087 19.17C16.1968 19.17 16.4026 19.1083 16.6084 18.9437L16.4026 18.5938C16.238 18.7173 16.0733 18.779 15.8881 18.779C15.5382 18.779 15.2913 18.532 15.2913 18.141C15.2913 17.7706 15.5382 17.5236 15.8881 17.503C16.0733 17.503 16.238 17.5647 16.4026 17.6883L16.6084 17.3384C16.4026 17.1737 16.1968 17.112 15.9087 17.112C15.2706 17.112 14.8591 17.5442 14.8591 18.141ZM18.8517 18.141V17.1532H18.4195V17.4001C18.2754 17.2149 18.0696 17.112 17.8021 17.112C17.2464 17.112 16.8142 17.5442 16.8142 18.141C16.8142 18.7378 17.2464 19.17 17.8021 19.17C18.0902 19.17 18.296 19.0672 18.4195 18.8819V19.1288H18.8517V18.141ZM17.267 18.141C17.267 17.7911 17.4934 17.503 17.8638 17.503C18.2136 17.503 18.4607 17.7706 18.4607 18.141C18.4607 18.4909 18.2136 18.779 17.8638 18.779C17.4934 18.7583 17.267 18.4909 17.267 18.141ZM12.1013 17.112C11.525 17.112 11.1134 17.5236 11.1134 18.141C11.1134 18.7584 11.525 19.17 12.1219 19.17C12.41 19.17 12.6981 19.0877 12.9245 18.9025L12.7187 18.5938C12.554 18.7173 12.3483 18.7996 12.1425 18.7996C11.8749 18.7996 11.6074 18.6761 11.5456 18.3262H13.0069V18.1616C13.0275 17.5236 12.6571 17.112 12.1013 17.112ZM12.1013 17.4824C12.3688 17.4824 12.5541 17.6471 12.5952 17.9558H11.5662C11.6074 17.6883 11.7926 17.4824 12.1013 17.4824ZM22.8237 18.141V16.3711H22.3915V17.4001C22.2474 17.2149 22.0416 17.112 21.7741 17.112C21.2184 17.112 20.7862 17.5442 20.7862 18.141C20.7862 18.7378 21.2184 19.17 21.7741 19.17C22.0623 19.17 22.268 19.0672 22.3915 18.8819V19.1288H22.8237V18.141ZM21.239 18.141C21.239 17.7911 21.4654 17.503 21.8359 17.503C22.1857 17.503 22.4327 17.7706 22.4327 18.141C22.4327 18.4909 22.1857 18.779 21.8359 18.779C21.4654 18.7583 21.239 18.4909 21.239 18.141ZM6.79152 18.141V17.1532H6.35933V17.4001C6.21523 17.2149 6.00945 17.112 5.74189 17.112C5.18623 17.112 4.75405 17.5442 4.75405 18.141C4.75405 18.7378 5.18623 19.17 5.74189 19.17C6.03008 19.17 6.23586 19.0672 6.35933 18.8819V19.1288H6.79152V18.141ZM5.18623 18.141C5.18623 17.7911 5.41264 17.503 5.78305 17.503C6.13292 17.503 6.37995 17.7706 6.37995 18.141C6.37995 18.4909 6.13292 18.779 5.78305 18.779C5.41264 18.7583 5.18623 18.4909 5.18623 18.141Z" fill="black"/>
<path d="M8.7467 2.1499H15.2295V13.7984H8.7467V2.1499Z" fill="#FF5F00"/>
<path d="M9.15834 7.9744C9.15834 5.60768 10.2697 3.50843 11.9778 2.15009C10.7225 1.16224 9.13781 0.56543 7.40906 0.56543C3.31341 0.56543 0 3.87884 0 7.9744C0 12.0699 3.31341 15.3834 7.40897 15.3834C9.13772 15.3834 10.7224 14.7866 11.9778 13.7986C10.2697 12.4609 9.15834 10.3411 9.15834 7.9744Z" fill="#EB001B"/>
<path d="M23.9762 7.9744C23.9762 12.0699 20.6628 15.3834 16.5672 15.3834C14.8385 15.3834 13.2538 14.7866 11.9984 13.7986C13.7272 12.4404 14.8179 10.3411 14.8179 7.9744C14.8179 5.60768 13.7065 3.50843 11.9984 2.15009C13.2537 1.16224 14.8385 0.56543 16.5672 0.56543C20.6628 0.56543 23.9762 3.89946 23.9762 7.9744Z" fill="#F79E1B"/>
</svg>
