<svg width="41" height="29" viewBox="0 0 41 29" fill="none" xmlns="http://www.w3.org/2000/svg">
<path d="M28.8822 12.4275C28.9261 12.4713 28.9701 12.5041 29.025 12.5479C28.981 12.5041 28.9371 12.4713 28.8822 12.4275Z" fill="#1E1E2D"/>
<path d="M27.0814 11.125C27.1363 11.1578 27.1802 11.1907 27.2351 11.2235C27.1912 11.1907 27.1363 11.1578 27.0814 11.125Z" fill="#1E1E2D"/>
<path d="M29.1677 12.6682C29.2116 12.712 29.2556 12.7448 29.2995 12.7886C29.2666 12.7558 29.2116 12.712 29.1677 12.6682Z" fill="#1E1E2D"/>
<path d="M27.7067 11.53C27.7616 11.5629 27.8056 11.5957 27.8605 11.6285C27.8056 11.6066 27.7506 11.5738 27.7067 11.53Z" fill="#1E1E2D"/>
<path d="M28.5966 12.1978C28.6405 12.2306 28.6954 12.2744 28.7394 12.3072C28.6954 12.2744 28.6515 12.2306 28.5966 12.1978Z" fill="#1E1E2D"/>
<path d="M27.4002 11.333C27.4551 11.3658 27.499 11.3987 27.5539 11.4315C27.499 11.3987 27.4441 11.3658 27.4002 11.333Z" fill="#1E1E2D"/>
<path d="M28.3111 11.9678C28.355 12.0006 28.4099 12.0444 28.4538 12.0772C28.3989 12.0444 28.355 12.0006 28.3111 11.9678Z" fill="#1E1E2D"/>
<path d="M29.4523 12.9202C29.4963 12.9639 29.5402 13.0077 29.5841 13.0406C29.5402 12.9968 29.4963 12.9639 29.4523 12.9202Z" fill="#1E1E2D"/>
<path d="M31.9013 15.7111C31.9342 15.7658 31.9672 15.8096 32.0001 15.8643C31.9672 15.8205 31.9342 15.7658 31.9013 15.7111Z" fill="#1E1E2D"/>
<path d="M31.6824 15.4155C31.7153 15.4593 31.7592 15.514 31.7922 15.5688C31.7592 15.514 31.7263 15.4593 31.6824 15.4155Z" fill="#1E1E2D"/>
<path d="M32.3191 16.3348C32.352 16.3896 32.385 16.4333 32.4179 16.4881C32.385 16.4443 32.352 16.3896 32.3191 16.3348Z" fill="#1E1E2D"/>
<path d="M31.4625 15.109C31.4954 15.1528 31.5393 15.2075 31.5723 15.2513C31.5393 15.2075 31.4954 15.1637 31.4625 15.109Z" fill="#1E1E2D"/>
<path d="M32.1097 16.0284C32.1426 16.0832 32.1756 16.1269 32.2085 16.1817C32.1756 16.1269 32.1426 16.0722 32.1097 16.0284Z" fill="#1E1E2D"/>
<path d="M31.2322 14.8136C31.2651 14.8574 31.309 14.9121 31.342 14.9559C31.309 14.9121 31.2761 14.8683 31.2322 14.8136Z" fill="#1E1E2D"/>
<path d="M30.5068 13.9707C30.5507 14.0145 30.5836 14.0583 30.6276 14.102C30.5836 14.0583 30.5397 14.0145 30.5068 13.9707Z" fill="#1E1E2D"/>
<path d="M30.7487 14.2445C30.7926 14.2883 30.8255 14.3321 30.8694 14.3868C30.8365 14.3321 30.7926 14.2883 30.7487 14.2445Z" fill="#1E1E2D"/>
<path d="M31.0009 14.5289C31.0448 14.5727 31.0777 14.6274 31.1216 14.6712C31.0777 14.6274 31.0338 14.5727 31.0009 14.5289Z" fill="#1E1E2D"/>
<path d="M21.6124 9.04553C21.6673 9.05648 21.7222 9.06742 21.7771 9.07837C21.7332 9.06742 21.6673 9.05648 21.6124 9.04553Z" fill="#1E1E2D"/>
<path d="M23.0507 9.35193C23.1056 9.36287 23.1605 9.38476 23.2154 9.39571C23.1605 9.38476 23.1056 9.37382 23.0507 9.35193Z" fill="#1E1E2D"/>
<path d="M21.2508 8.99084C21.3057 9.00179 21.3606 9.01273 21.4155 9.01273C21.3606 9.00179 21.3057 8.99084 21.2508 8.99084Z" fill="#1E1E2D"/>
<path d="M22.3376 9.17676C22.3926 9.1877 22.4475 9.19865 22.5024 9.22054C22.4475 9.20959 22.3926 9.19865 22.3376 9.17676Z" fill="#1E1E2D"/>
<path d="M21.975 9.11121C22.0299 9.12215 22.0848 9.1331 22.1397 9.14404C22.0958 9.1331 22.0299 9.12215 21.975 9.11121Z" fill="#1E1E2D"/>
<path d="M20.1523 8.88135C20.2072 8.88135 20.2512 8.89229 20.3061 8.89229C20.2512 8.89229 20.1963 8.88135 20.1523 8.88135Z" fill="#1E1E2D"/>
<path d="M20.8881 8.94702C20.943 8.95797 20.9979 8.95797 21.0528 8.96891C20.9979 8.95797 20.943 8.94702 20.8881 8.94702Z" fill="#1E1E2D"/>
<path d="M20.515 8.9032C20.5699 8.9032 20.6248 8.91414 20.6687 8.91414C20.6248 8.91414 20.5699 8.91414 20.515 8.9032Z" fill="#1E1E2D"/>
<path d="M23.7539 9.57092C23.8088 9.59281 23.8637 9.60376 23.9186 9.62565C23.8637 9.60376 23.8088 9.58187 23.7539 9.57092Z" fill="#1E1E2D"/>
<path d="M25.7955 10.4136C25.8504 10.4355 25.9053 10.4683 25.9493 10.4902C25.9053 10.4574 25.8504 10.4355 25.7955 10.4136Z" fill="#1E1E2D"/>
<path d="M23.4027 9.4613C23.4576 9.48319 23.5125 9.49414 23.5674 9.51603C23.5235 9.49414 23.4576 9.47225 23.4027 9.4613Z" fill="#1E1E2D"/>
<path d="M26.4446 10.7529C26.4995 10.7858 26.5435 10.8077 26.5984 10.8405C26.5544 10.8077 26.4995 10.7858 26.4446 10.7529Z" fill="#1E1E2D"/>
<path d="M24.1051 9.69128C24.16 9.71317 24.2149 9.73506 24.2698 9.75695C24.2149 9.72412 24.16 9.70223 24.1051 9.69128Z" fill="#1E1E2D"/>
<path d="M26.773 10.939C26.8279 10.9718 26.8718 11.0046 26.9267 11.0265C26.8718 11.0046 26.8169 10.9718 26.773 10.939Z" fill="#1E1E2D"/>
<path d="M28.0037 11.7489C28.0476 11.7817 28.1025 11.8255 28.1464 11.8584C28.1025 11.8146 28.0586 11.7817 28.0037 11.7489Z" fill="#1E1E2D"/>
<path d="M34.6586 23.4382C34.6586 23.5039 34.6696 23.5586 34.6696 23.6243C34.6586 23.5586 34.6586 23.493 34.6586 23.4382Z" fill="#1E1E2D"/>
<path d="M34.4712 21.9169C34.4822 21.9825 34.4932 22.0373 34.5041 22.1029C34.4932 22.0373 34.4822 21.9716 34.4712 21.9169Z" fill="#1E1E2D"/>
<path d="M34.1418 20.4395C34.1637 20.4942 34.1747 20.5598 34.1857 20.6146C34.1747 20.5598 34.1528 20.4942 34.1418 20.4395Z" fill="#1E1E2D"/>
<path d="M34.6691 23.8213C34.6691 23.887 34.6691 23.9417 34.68 24.0074C34.68 23.9417 34.68 23.887 34.6691 23.8213Z" fill="#1E1E2D"/>
<path d="M34.6252 23.0552C34.6362 23.1208 34.6362 23.1756 34.6471 23.2412C34.6362 23.1756 34.6252 23.1099 34.6252 23.0552Z" fill="#1E1E2D"/>
<path d="M34.5367 22.2891C34.5477 22.3547 34.5587 22.4095 34.5587 22.4751C34.5477 22.4204 34.5477 22.3547 34.5367 22.2891Z" fill="#1E1E2D"/>
<path d="M33.802 19.3667C33.824 19.4214 33.8459 19.4871 33.8679 19.5418C33.8349 19.4761 33.813 19.4214 33.802 19.3667Z" fill="#1E1E2D"/>
<path d="M34.5815 22.6721C34.5925 22.7378 34.5925 22.7925 34.6034 22.8582C34.6034 22.7925 34.5925 22.7378 34.5815 22.6721Z" fill="#1E1E2D"/>
<path d="M33.9229 19.717C33.9448 19.7718 33.9668 19.8374 33.9778 19.8922C33.9558 19.8374 33.9448 19.7718 33.9229 19.717Z" fill="#1E1E2D"/>
<path d="M33.6707 19.0056C33.6926 19.0603 33.7146 19.1151 33.7365 19.1807C33.7146 19.126 33.6926 19.0713 33.6707 19.0056Z" fill="#1E1E2D"/>
<path d="M34.0314 20.0782C34.0533 20.133 34.0643 20.1986 34.0863 20.2534C34.0753 20.1986 34.0533 20.133 34.0314 20.0782Z" fill="#1E1E2D"/>
<path d="M33.0539 17.6373C33.0868 17.6921 33.1088 17.7468 33.1308 17.8015C33.1088 17.7468 33.0759 17.6921 33.0539 17.6373Z" fill="#1E1E2D"/>
<path d="M34.2398 20.8005C34.2508 20.8553 34.2727 20.9209 34.2837 20.9757C34.2727 20.9209 34.2508 20.8662 34.2398 20.8005Z" fill="#1E1E2D"/>
<path d="M20.2622 6.75793C10.4673 6.75793 2.51729 14.6822 2.44043 24.4781H4.49383C4.53775 19.2244 7.14018 14.5837 11.1152 11.7489C13.3882 10.1181 16.1224 9.0783 19.0653 8.8594C19.4606 8.82656 19.8559 8.81562 20.2622 8.81562C28.926 8.81562 35.9536 15.8205 36.0305 24.4781H38.0839C38.018 14.6822 30.0679 6.75793 20.2622 6.75793Z" fill="#1E1E2D"/>
<path d="M34.4045 21.5447C34.4155 21.6103 34.4264 21.6651 34.4374 21.7307C34.4264 21.6651 34.4155 21.5994 34.4045 21.5447Z" fill="#1E1E2D"/>
<path d="M34.3283 21.1726C34.3393 21.2383 34.3503 21.293 34.3722 21.3587C34.3503 21.293 34.3393 21.2273 34.3283 21.1726Z" fill="#1E1E2D"/>
<path d="M32.7036 16.9806C32.7366 17.0353 32.7585 17.09 32.7915 17.1448C32.7585 17.09 32.7256 17.0353 32.7036 16.9806Z" fill="#1E1E2D"/>
<path d="M25.6204 10.326C25.6753 10.3589 25.7302 10.3808 25.7961 10.4136C25.7412 10.3808 25.6862 10.3479 25.6204 10.326Z" fill="#EBEBEB"/>
<path d="M24.9513 10.0195C25.0062 10.0414 25.0721 10.0743 25.127 10.0961C25.0721 10.0743 25.0172 10.0414 24.9513 10.0195Z" fill="#EBEBEB"/>
<path d="M23.9186 9.62561C23.9735 9.6475 24.0394 9.66939 24.0943 9.69128C24.0394 9.66939 23.9845 9.6475 23.9186 9.62561Z" fill="#EBEBEB"/>
<path d="M34.3607 21.3478C34.3717 21.4134 34.3827 21.4791 34.4046 21.5338C34.3937 21.4791 34.3827 21.4134 34.3607 21.3478Z" fill="#EBEBEB"/>
<path d="M25.2911 10.1729C25.346 10.1947 25.4119 10.2276 25.4668 10.2495C25.4119 10.2166 25.346 10.1947 25.2911 10.1729Z" fill="#EBEBEB"/>
<path d="M24.6096 9.87732C24.6645 9.89921 24.7303 9.9211 24.7853 9.94299C24.7303 9.93204 24.6754 9.89921 24.6096 9.87732Z" fill="#EBEBEB"/>
<path d="M34.5043 22.103C34.5153 22.1687 34.5263 22.2344 34.5373 22.3C34.5263 22.2234 34.5153 22.1687 34.5043 22.103Z" fill="#EBEBEB"/>
<path d="M34.6691 23.6244C34.6691 23.6901 34.68 23.7557 34.68 23.8214C34.6691 23.7557 34.6691 23.6901 34.6691 23.6244Z" fill="#EBEBEB"/>
<path d="M20.2632 8.81555C19.857 8.81555 19.4617 8.8265 19.0663 8.85933C19.1762 8.85933 19.2969 8.85933 19.4067 8.85933C19.5275 8.85933 19.6593 8.85933 19.7801 8.85933C19.824 8.85933 19.8679 8.85933 19.9119 8.85933C19.9887 8.85933 20.0766 8.87028 20.1534 8.87028C20.2083 8.87028 20.2523 8.88122 20.3072 8.88122C20.384 8.88122 20.4499 8.89217 20.5268 8.89217C20.5817 8.89217 20.6366 8.90311 20.6805 8.90311C20.7464 8.91406 20.8233 8.91406 20.8891 8.925C20.9441 8.93595 20.999 8.93595 21.0539 8.94689C21.1197 8.95784 21.1856 8.95784 21.2625 8.96878C21.3174 8.97973 21.3723 8.99067 21.4272 8.99067C21.4931 9.00162 21.559 9.01256 21.6249 9.02351C21.6798 9.03445 21.7347 9.0454 21.7896 9.05634C21.8555 9.06729 21.9213 9.07823 21.9872 9.08918C22.0421 9.10013 22.097 9.11107 22.1519 9.12201C22.2178 9.13296 22.2837 9.14391 22.3386 9.1658C22.3935 9.17674 22.4484 9.18769 22.5033 9.20958C22.5692 9.22052 22.6351 9.24241 22.69 9.25336C22.7449 9.2643 22.7998 9.28619 22.8547 9.29714C22.9206 9.30808 22.9755 9.32997 23.0414 9.34092C23.0963 9.35186 23.1512 9.37375 23.2061 9.3847C23.272 9.40659 23.3269 9.41753 23.3928 9.43942C23.4477 9.46131 23.5026 9.47226 23.5575 9.49415C23.6233 9.51604 23.6783 9.52698 23.7441 9.54887C23.799 9.57077 23.8539 9.58171 23.9088 9.6036C23.9638 9.62549 24.0296 9.64738 24.0845 9.66927C24.1394 9.69116 24.1943 9.71305 24.2493 9.73494C24.3042 9.75683 24.37 9.77872 24.4249 9.80061C24.4798 9.8225 24.5348 9.84439 24.5897 9.86628C24.6446 9.88817 24.7104 9.91006 24.7653 9.93195C24.8202 9.95384 24.8752 9.97573 24.9301 9.99762C24.985 10.0195 25.0508 10.0524 25.1057 10.0742C25.1607 10.0961 25.2156 10.118 25.2705 10.1509C25.3254 10.1727 25.3912 10.2056 25.4462 10.2275C25.5011 10.2494 25.556 10.2822 25.6109 10.3041C25.6658 10.3369 25.7207 10.3588 25.7866 10.3917C25.8415 10.4135 25.8964 10.4464 25.9403 10.4683C25.9952 10.5011 26.0501 10.523 26.105 10.5558C26.1599 10.5887 26.2148 10.6106 26.2587 10.6434C26.3136 10.6762 26.3685 10.7091 26.4234 10.7309C26.4783 10.7638 26.5223 10.7857 26.5772 10.8185C26.6321 10.8513 26.687 10.8842 26.7419 10.917C26.7968 10.9499 26.8407 10.9827 26.8956 11.0046C26.9505 11.0374 27.0054 11.0702 27.0603 11.1031C27.1152 11.1359 27.1591 11.1688 27.2141 11.2016C27.269 11.2344 27.3239 11.2673 27.3788 11.3001C27.4337 11.3329 27.4776 11.3658 27.5325 11.3986C27.5874 11.4314 27.6423 11.4643 27.6862 11.5081C27.7411 11.5409 27.785 11.5737 27.8399 11.6066C27.8949 11.6394 27.9388 11.6832 27.9937 11.716C28.0376 11.7488 28.0925 11.7926 28.1364 11.8255C28.1913 11.8583 28.2353 11.9021 28.2902 11.9349C28.3341 11.9677 28.389 12.0115 28.4329 12.0444C28.4878 12.0881 28.5317 12.121 28.5866 12.1648C28.6306 12.1976 28.6855 12.2414 28.7294 12.2742C28.7733 12.318 28.8282 12.3508 28.8721 12.3946C28.9161 12.4384 28.96 12.4712 29.0149 12.515C29.0588 12.5588 29.1137 12.5916 29.1576 12.6354C29.2016 12.6792 29.2455 12.712 29.2894 12.7558C29.3333 12.7996 29.3882 12.8434 29.4322 12.8871C29.4761 12.9309 29.52 12.9747 29.5639 13.0075C29.6078 13.0513 29.6518 13.0951 29.7067 13.1389C29.7506 13.1827 29.7945 13.2264 29.8384 13.2702C29.8824 13.314 29.9263 13.3578 29.9702 13.4016C30.0141 13.4453 30.0581 13.4891 30.102 13.5329C30.1459 13.5767 30.1898 13.6205 30.2338 13.6642C30.2777 13.708 30.3216 13.7518 30.3545 13.7956C30.3985 13.8394 30.4424 13.8831 30.4863 13.9379C30.5302 13.9817 30.5632 14.0254 30.6071 14.0692C30.651 14.113 30.6949 14.1677 30.7389 14.2115C30.7828 14.2553 30.8157 14.2991 30.8597 14.3538C30.9036 14.3976 30.9475 14.4523 30.9804 14.4961C31.0244 14.5399 31.0573 14.5946 31.1012 14.6384C31.1452 14.6821 31.1781 14.7369 31.222 14.7916C31.255 14.8354 31.2989 14.8901 31.3318 14.9339C31.3757 14.9886 31.4087 15.0324 31.4526 15.0871C31.4856 15.1309 31.5295 15.1856 31.5624 15.2294C31.5954 15.2841 31.6393 15.3279 31.6722 15.3826C31.7052 15.4264 31.7491 15.4811 31.782 15.5359C31.815 15.5906 31.8589 15.6344 31.8918 15.6891C31.9248 15.7438 31.9577 15.7876 31.9907 15.8423C32.0236 15.897 32.0566 15.9518 32.1005 15.9956C32.1334 16.0503 32.1664 16.0941 32.1993 16.1488C32.2322 16.2035 32.2652 16.2582 32.2981 16.313C32.3311 16.3677 32.364 16.4115 32.397 16.4662C32.4299 16.5209 32.4628 16.5756 32.4958 16.6304C32.5287 16.6851 32.5617 16.7398 32.5836 16.7836C32.6166 16.8383 32.6495 16.8931 32.6825 16.9478C32.7154 17.0025 32.7374 17.0572 32.7703 17.112C32.8032 17.1667 32.8362 17.2214 32.8581 17.2761C32.8911 17.3309 32.913 17.3856 32.946 17.4403C32.9789 17.495 33.0009 17.5498 33.0338 17.6154C33.0668 17.6702 33.0887 17.7249 33.1107 17.7796C33.1436 17.8343 33.1656 17.8891 33.1985 17.9547C33.2205 18.0095 33.2535 18.0642 33.2754 18.1189C33.2974 18.1736 33.3303 18.2393 33.3523 18.294C33.3742 18.3488 33.4072 18.4035 33.4291 18.4582C33.4511 18.5129 33.484 18.5786 33.506 18.6333C33.528 18.6881 33.5499 18.7428 33.5719 18.8085C33.5939 18.8632 33.6158 18.9288 33.6378 18.9836C33.6597 19.0383 33.6817 19.093 33.7037 19.1587C33.7256 19.2134 33.7476 19.2791 33.7695 19.3338C33.7915 19.3885 33.8135 19.4542 33.8354 19.5089C33.8574 19.5746 33.8794 19.6293 33.9013 19.695C33.9233 19.7497 33.9452 19.8154 33.9562 19.8701C33.9782 19.9358 34.0001 19.9905 34.0111 20.0562C34.0331 20.1109 34.0441 20.1766 34.066 20.2313C34.088 20.297 34.099 20.3517 34.1209 20.4174C34.1429 20.4721 34.1539 20.5378 34.1649 20.5925C34.1868 20.6582 34.1978 20.7129 34.2088 20.7786C34.2198 20.8333 34.2417 20.899 34.2527 20.9537C34.2637 21.0194 34.2856 21.0741 34.2966 21.1398C34.3076 21.2054 34.3186 21.2602 34.3405 21.3258C34.3515 21.3915 34.3625 21.4572 34.3845 21.5119C34.3954 21.5776 34.4064 21.6323 34.4174 21.698C34.4284 21.7636 34.4394 21.8293 34.4504 21.884C34.4613 21.9497 34.4723 22.0044 34.4833 22.0701C34.4943 22.1358 34.5053 22.2014 34.5162 22.2671C34.5272 22.3328 34.5382 22.3875 34.5382 22.4532C34.5492 22.5189 34.5492 22.5845 34.5602 22.6502C34.5711 22.7159 34.5711 22.7706 34.5821 22.8363C34.5931 22.9019 34.5931 22.9676 34.6041 23.0333C34.6151 23.0989 34.6151 23.1537 34.626 23.2193C34.626 23.285 34.637 23.3507 34.637 23.4164C34.637 23.482 34.648 23.5367 34.648 23.6024C34.648 23.6681 34.659 23.7338 34.659 23.7994C34.659 23.8651 34.659 23.9198 34.67 23.9855C34.67 24.1059 34.67 24.2153 34.67 24.3357C34.67 24.3795 34.67 24.4233 34.67 24.4671H34.9115H36.0206C35.9657 15.8204 28.927 8.81555 20.2632 8.81555Z" fill="#DE500C"/>
<path d="M21.0527 8.95789C21.1186 8.96883 21.1845 8.96883 21.2614 8.97978C21.1845 8.97978 21.1186 8.96883 21.0527 8.95789Z" fill="#EBEBEB"/>
<path d="M20.6797 8.92505C20.7456 8.93599 20.8224 8.93599 20.8883 8.94694C20.8115 8.93599 20.7456 8.92505 20.6797 8.92505Z" fill="#EBEBEB"/>
<path d="M20.2961 8.89233C20.3729 8.89233 20.4388 8.90328 20.5157 8.90328C20.4498 8.90328 20.3729 8.89233 20.2961 8.89233Z" fill="#EBEBEB"/>
<path d="M34.5587 22.4751C34.5696 22.5408 34.5696 22.6064 34.5806 22.6721C34.5806 22.6064 34.5696 22.5408 34.5587 22.4751Z" fill="#EBEBEB"/>
<path d="M19.9106 8.87048C19.9874 8.87048 20.0753 8.88143 20.1522 8.88143C20.0643 8.88143 19.9874 8.87048 19.9106 8.87048Z" fill="#EBEBEB"/>
<path d="M23.2152 9.40662C23.2811 9.42851 23.336 9.43945 23.4019 9.46134C23.347 9.43945 23.2811 9.41756 23.2152 9.40662Z" fill="#EBEBEB"/>
<path d="M21.7885 9.06738C21.8543 9.07833 21.9202 9.08927 21.9861 9.10022C21.9092 9.10022 21.8543 9.08927 21.7885 9.06738Z" fill="#EBEBEB"/>
<path d="M23.5779 9.51611C23.6438 9.538 23.6987 9.54895 23.7646 9.57084C23.6987 9.54895 23.6328 9.52706 23.5779 9.51611Z" fill="#EBEBEB"/>
<path d="M22.1502 9.14392C22.2161 9.15487 22.282 9.16581 22.3369 9.1877C22.271 9.16581 22.2161 9.15487 22.1502 9.14392Z" fill="#EBEBEB"/>
<path d="M34.6357 23.2413C34.6357 23.307 34.6467 23.3727 34.6467 23.4383C34.6467 23.3727 34.6467 23.307 34.6357 23.2413Z" fill="#EBEBEB"/>
<path d="M31.7918 15.5579C31.8248 15.6126 31.8687 15.6564 31.9016 15.7111C31.8687 15.6673 31.8357 15.6126 31.7918 15.5579Z" fill="#EBEBEB"/>
<path d="M26.279 10.6654C26.3339 10.6982 26.3888 10.7311 26.4437 10.753C26.3888 10.7201 26.3339 10.6982 26.279 10.6654Z" fill="#EBEBEB"/>
<path d="M33.2957 18.1409C33.3176 18.1956 33.3506 18.2613 33.3725 18.316C33.3506 18.2613 33.3176 18.2065 33.2957 18.1409Z" fill="#EBEBEB"/>
<path d="M29.8483 13.3032C29.8922 13.347 29.9361 13.3908 29.98 13.4346C29.9471 13.3908 29.9032 13.347 29.8483 13.3032Z" fill="#EBEBEB"/>
<path d="M33.5936 18.8304C33.6155 18.8852 33.6375 18.9508 33.6595 19.0056C33.6375 18.9508 33.6155 18.8961 33.5936 18.8304Z" fill="#EBEBEB"/>
<path d="M33.4499 18.4911C33.4719 18.5458 33.5048 18.6115 33.5268 18.6662C33.4938 18.6005 33.4719 18.5458 33.4499 18.4911Z" fill="#EBEBEB"/>
<path d="M32.2097 16.1816C32.2426 16.2364 32.2755 16.2911 32.3085 16.3458C32.2865 16.2801 32.2536 16.2254 32.2097 16.1816Z" fill="#EBEBEB"/>
<path d="M32.7911 17.1449C32.824 17.1996 32.857 17.2543 32.8789 17.3091C32.846 17.2543 32.824 17.1996 32.7911 17.1449Z" fill="#EBEBEB"/>
<path d="M32.4181 16.4991C32.451 16.5539 32.484 16.6086 32.5169 16.6633C32.484 16.5977 32.451 16.5429 32.4181 16.4991Z" fill="#EBEBEB"/>
<path d="M31.572 15.2623C31.6049 15.3171 31.6488 15.3608 31.6818 15.4156C31.6488 15.3608 31.6159 15.3061 31.572 15.2623Z" fill="#EBEBEB"/>
<path d="M33.131 17.8015C33.1639 17.8562 33.1859 17.911 33.2188 17.9766C33.1859 17.9219 33.1639 17.8672 33.131 17.8015Z" fill="#EBEBEB"/>
<path d="M31.3416 14.9558C31.3855 15.0105 31.4185 15.0543 31.4624 15.109C31.4295 15.0653 31.3855 15.0105 31.3416 14.9558Z" fill="#EBEBEB"/>
<path d="M34.1857 20.6144C34.2076 20.6801 34.2186 20.7348 34.2296 20.8004C34.2186 20.7457 34.2076 20.6801 34.1857 20.6144Z" fill="#EBEBEB"/>
<path d="M27.5544 11.4315C27.6093 11.4644 27.6643 11.4972 27.7082 11.541C27.6533 11.4972 27.5984 11.4644 27.5544 11.4315Z" fill="#EBEBEB"/>
<path d="M27.8504 11.6395C27.9053 11.6724 27.9492 11.7161 28.0041 11.749C27.9602 11.7161 27.9053 11.6724 27.8504 11.6395Z" fill="#EBEBEB"/>
<path d="M34.2836 20.9866C34.2946 21.0522 34.3165 21.107 34.3275 21.1726C34.3165 21.107 34.2946 21.0413 34.2836 20.9866Z" fill="#EBEBEB"/>
<path d="M33.7354 19.1807C33.7574 19.2354 33.7793 19.3011 33.8013 19.3558C33.7793 19.3011 33.7574 19.2463 33.7354 19.1807Z" fill="#EBEBEB"/>
<path d="M29.3105 12.7886C29.3544 12.8324 29.4093 12.8761 29.4532 12.9199C29.3983 12.8761 29.3544 12.8324 29.3105 12.7886Z" fill="#EBEBEB"/>
<path d="M29.025 12.548C29.0689 12.5918 29.1238 12.6246 29.1677 12.6684C29.1238 12.6246 29.0799 12.5918 29.025 12.548Z" fill="#EBEBEB"/>
<path d="M33.8563 19.5309C33.8782 19.5966 33.9002 19.6513 33.9221 19.717C33.9002 19.6622 33.8782 19.5966 33.8563 19.5309Z" fill="#EBEBEB"/>
<path d="M28.4539 12.0773C28.5088 12.1211 28.5527 12.1539 28.6076 12.1977C28.5527 12.1539 28.4978 12.1211 28.4539 12.0773Z" fill="#EBEBEB"/>
<path d="M28.7394 12.307C28.7833 12.3508 28.8382 12.3836 28.8821 12.4274C28.8382 12.3946 28.7943 12.3508 28.7394 12.307Z" fill="#EBEBEB"/>
<path d="M28.1569 11.8585C28.2118 11.8914 28.2558 11.9351 28.3107 11.968C28.2558 11.9351 28.2008 11.8914 28.1569 11.8585Z" fill="#EBEBEB"/>
<path d="M20.2634 8.02764C21.6703 8.02764 22.8109 6.89077 22.8109 5.48837C22.8109 4.08597 21.6703 2.9491 20.2634 2.9491C18.8564 2.9491 17.7158 4.08597 17.7158 5.48837C17.7158 6.89077 18.8564 8.02764 20.2634 8.02764Z" fill="#1E1E2D"/>
<path d="M34.6818 24.0076C34.6818 23.942 34.6818 23.8872 34.6708 23.8216C34.6708 23.7559 34.6708 23.6902 34.6599 23.6246C34.6599 23.5589 34.6489 23.5042 34.6489 23.4385C34.6489 23.3728 34.6379 23.3071 34.6379 23.2415C34.6379 23.1758 34.6269 23.1211 34.6159 23.0554C34.605 22.9897 34.605 22.9241 34.594 22.8584C34.583 22.7927 34.583 22.738 34.572 22.6723C34.561 22.6067 34.561 22.541 34.5501 22.4753C34.5391 22.4096 34.5281 22.3549 34.5281 22.2893C34.5171 22.2236 34.5061 22.1579 34.4952 22.0922C34.4842 22.0266 34.4732 21.9718 34.4622 21.9062C34.4512 21.8405 34.4403 21.7748 34.4293 21.7201C34.4183 21.6544 34.4073 21.5997 34.3963 21.534C34.3853 21.4684 34.3744 21.4027 34.3524 21.348C34.3414 21.2823 34.3304 21.2276 34.3085 21.1619C34.2975 21.0962 34.2755 21.0415 34.2646 20.9758C34.2536 20.9211 34.2316 20.8554 34.2206 20.8007C34.2097 20.735 34.1877 20.6803 34.1767 20.6146C34.1657 20.5599 34.1438 20.4943 34.1328 20.4395C34.1108 20.3739 34.0998 20.3191 34.0779 20.2535C34.0559 20.1987 34.0449 20.1331 34.023 20.0783C34.001 20.0127 33.99 19.9579 33.9681 19.8923C33.9461 19.8375 33.9351 19.7719 33.9132 19.7171C33.8912 19.6515 33.8693 19.5968 33.8473 19.5311C33.8253 19.4764 33.8034 19.4107 33.7814 19.356C33.7594 19.3012 33.7375 19.2356 33.7155 19.1808C33.6936 19.1261 33.6716 19.0714 33.6496 19.0057C33.6277 18.951 33.6057 18.8853 33.5838 18.8306C33.5618 18.7759 33.5398 18.7211 33.5179 18.6555C33.4959 18.6007 33.4739 18.5351 33.441 18.4803C33.419 18.4256 33.3971 18.3709 33.3641 18.3162C33.3422 18.2614 33.3092 18.1958 33.2873 18.141C33.2653 18.0863 33.2324 18.0316 33.2104 17.9769C33.1884 17.9221 33.1555 17.8674 33.1226 17.8017C33.1006 17.747 33.0677 17.6923 33.0457 17.6376C33.0128 17.5828 32.9908 17.5281 32.9579 17.4624C32.9249 17.4077 32.903 17.353 32.87 17.2983C32.8371 17.2435 32.8041 17.1888 32.7822 17.1341C32.7492 17.0794 32.7273 17.0246 32.6943 16.9699C32.6614 16.9152 32.6284 16.8605 32.5955 16.8057C32.5625 16.751 32.5296 16.6963 32.5076 16.6525C32.4747 16.5978 32.4418 16.5431 32.4088 16.4883C32.3759 16.4336 32.3429 16.3898 32.31 16.3351C32.277 16.2804 32.2441 16.2257 32.2112 16.1709C32.1782 16.1162 32.1453 16.0724 32.1123 16.0177C32.0794 15.963 32.0464 15.9082 32.0025 15.8645C31.9696 15.8097 31.9366 15.766 31.9037 15.7112C31.8708 15.6565 31.8268 15.6018 31.7939 15.558C31.761 15.5033 31.728 15.4595 31.6841 15.4048C31.6511 15.35 31.6072 15.3063 31.5743 15.2515C31.5413 15.2078 31.4974 15.153 31.4645 15.1092C31.4205 15.0545 31.3876 15.0107 31.3437 14.956C31.3107 14.9122 31.2668 14.8575 31.2339 14.8137C31.19 14.759 31.157 14.7152 31.1131 14.6605C31.0692 14.6167 31.0362 14.562 30.9923 14.5182C30.9484 14.4744 30.9154 14.4197 30.8715 14.3759C30.8276 14.3321 30.7946 14.2884 30.7507 14.2336C30.7068 14.1899 30.6629 14.1351 30.619 14.0914C30.575 14.0476 30.5421 14.0038 30.4982 13.96C30.4542 13.9162 30.4103 13.8615 30.3664 13.8177C30.3225 13.7739 30.2786 13.7302 30.2456 13.6864C30.2017 13.6426 30.1578 13.5988 30.1138 13.555C30.0699 13.5113 30.026 13.4675 29.9821 13.4237C29.9382 13.3799 29.8942 13.3361 29.8503 13.2924C29.8064 13.2486 29.7625 13.2048 29.7185 13.161C29.6746 13.1172 29.6307 13.0735 29.5758 13.0297C29.5319 12.9859 29.4879 12.9421 29.444 12.9093C29.4001 12.8655 29.3452 12.8217 29.3013 12.7779C29.2573 12.7342 29.2134 12.7013 29.1695 12.6575C29.1256 12.6138 29.0707 12.57 29.0268 12.5371C28.9828 12.4934 28.9389 12.4605 28.884 12.4167C28.8401 12.373 28.7852 12.3401 28.7413 12.2963C28.6973 12.2635 28.6424 12.2197 28.5985 12.1869C28.5436 12.1431 28.4997 12.1103 28.4448 12.0665C28.4008 12.0337 28.3459 11.9899 28.302 11.9571C28.2471 11.9242 28.2032 11.8804 28.1483 11.8476C28.1044 11.8148 28.0495 11.771 28.0055 11.7381C27.9506 11.7053 27.9067 11.6615 27.8518 11.6287C27.7969 11.5959 27.753 11.563 27.6981 11.5302C27.6432 11.4974 27.5993 11.4645 27.5444 11.4207C27.4894 11.3879 27.4455 11.3551 27.3906 11.3222C27.3357 11.2894 27.2808 11.2566 27.2259 11.2237C27.171 11.1909 27.1271 11.1581 27.0722 11.1252C27.0173 11.0924 26.9624 11.0596 26.9075 11.0267C26.8526 10.9939 26.8086 10.961 26.7537 10.9392C26.6988 10.9063 26.6439 10.8735 26.589 10.8406C26.5341 10.8078 26.4902 10.7859 26.4353 10.7531C26.3804 10.7203 26.3255 10.6874 26.2706 10.6655C26.2157 10.6327 26.1608 10.6108 26.1169 10.578C26.062 10.5451 26.007 10.5232 25.9521 10.4904C25.8972 10.4685 25.8423 10.4357 25.7984 10.4138C25.7435 10.381 25.6886 10.3591 25.6227 10.3262C25.5678 10.3043 25.5129 10.2715 25.458 10.2496C25.4031 10.2277 25.3372 10.1949 25.2823 10.173C25.2274 10.1511 25.1725 10.1183 25.1176 10.0964C25.0627 10.0745 24.9968 10.0417 24.9419 10.0198C24.887 9.99787 24.8321 9.97598 24.7772 9.95409C24.7223 9.9322 24.6564 9.91031 24.6015 9.88842C24.5466 9.86653 24.4917 9.84464 24.4368 9.82275C24.3819 9.80086 24.316 9.77897 24.2611 9.75708C24.2062 9.73519 24.1513 9.7133 24.0964 9.69141C24.0415 9.66952 23.9756 9.64763 23.9207 9.62574C23.8658 9.60385 23.8109 9.58196 23.756 9.57101C23.6901 9.54912 23.6352 9.52723 23.5693 9.51629C23.5144 9.4944 23.4595 9.48345 23.4046 9.46156C23.3387 9.43967 23.2838 9.42873 23.2179 9.40684C23.163 9.39589 23.1081 9.374 23.0532 9.36306C22.9873 9.34117 22.9324 9.33022 22.8666 9.31927C22.8117 9.30833 22.7568 9.28644 22.7018 9.27549C22.636 9.26455 22.5701 9.24266 22.5152 9.23171C22.4603 9.22077 22.4054 9.20982 22.3505 9.18793C22.2846 9.17699 22.2187 9.16604 22.1638 9.14415C22.1089 9.13321 22.054 9.12226 21.9991 9.11132C21.9332 9.10037 21.8673 9.08943 21.8014 9.07848C21.7465 9.06754 21.6916 9.05659 21.6367 9.04565C21.5708 9.0347 21.5049 9.02376 21.4391 9.01281C21.3842 9.00187 21.3293 8.99092 21.2744 8.99092C21.2085 8.97998 21.1426 8.96903 21.0657 8.96903C21.0108 8.95809 20.9559 8.95809 20.901 8.94714C20.8351 8.9362 20.7583 8.9362 20.6924 8.92525C20.6375 8.92525 20.5826 8.91431 20.5386 8.91431C20.4618 8.90336 20.3959 8.90336 20.319 8.90336C20.2641 8.90336 20.2202 8.89241 20.1653 8.89241C20.0884 8.89241 20.0006 8.88147 19.9237 8.88147C19.8798 8.88147 19.8359 8.88147 19.792 8.88147C19.6712 8.88147 19.5394 8.88147 19.4186 8.88147C19.3088 8.88147 19.188 8.88147 19.0782 8.88147C16.1244 9.10037 13.4012 10.1402 11.1282 11.771C7.15313 14.6167 4.56168 19.2575 4.50677 24.5002H5.00091H5.45112H12.1713C12.2592 20.6365 14.9934 17.4515 18.5951 16.751L13.9612 24.5002H15.3338L20.0555 16.5978C20.0665 16.5978 20.0775 16.5978 20.0884 16.5978C20.8351 16.5978 21.5599 16.7072 22.2516 16.9042L17.7056 24.5002H19.0892L23.3827 17.3311C23.9756 17.6047 24.5356 17.9659 25.0517 18.3709L21.3842 24.5002H22.7677L25.9302 19.2137C27.193 20.6146 27.9836 22.4644 28.0275 24.5002H34.6818C34.6818 24.4564 34.6818 24.4126 34.6818 24.3688C34.6818 24.2375 34.6818 24.128 34.6818 24.0076Z" fill="#F9854E"/>
<path d="M40.5665 25.9667H0.0476074V27.9587H40.5665V25.9667Z" fill="#1E1E2D"/>
</svg>
