<svg width="24" height="25" viewBox="0 0 24 25" fill="none" xmlns="http://www.w3.org/2000/svg">
<path d="M20.6981 16.093L16.2713 14.1121C16.0996 14.0378 15.9122 14.0075 15.726 14.0239C15.5397 14.0402 15.3604 14.1028 15.2044 14.2058C15.1919 14.2137 15.18 14.2225 15.1688 14.2321L12.8438 16.214C12.792 16.2455 12.7333 16.2638 12.6728 16.2673C12.6123 16.2707 12.5519 16.2592 12.4969 16.2337C10.9744 15.4987 9.39845 13.9349 8.66345 12.4302C8.63745 12.3757 8.62538 12.3155 8.62832 12.2551C8.63127 12.1948 8.64914 12.1361 8.68032 12.0843L10.6678 9.72084C10.6772 9.70959 10.6856 9.6974 10.6941 9.68522C10.7968 9.52941 10.8592 9.35048 10.8755 9.16457C10.8919 8.97865 10.8618 8.79158 10.7878 8.62022L8.80314 4.20084C8.70732 3.97701 8.54148 3.7903 8.33051 3.66876C8.11954 3.54722 7.87483 3.49739 7.63314 3.52678C6.45336 3.68233 5.37054 4.26203 4.58694 5.15759C3.80334 6.05316 3.37254 7.20336 3.37501 8.39334C3.37501 15.6308 9.26251 21.5183 16.5 21.5183C17.69 21.5208 18.8402 21.09 19.7358 20.3064C20.6313 19.5228 21.211 18.44 21.3666 17.2602C21.3957 17.0196 21.3464 16.776 21.226 16.5657C21.1056 16.3554 20.9204 16.1896 20.6981 16.093ZM20.625 17.1665C20.4926 18.1656 20.0009 19.0823 19.2417 19.7452C18.4825 20.4081 17.5079 20.7718 16.5 20.7683C9.67689 20.7683 4.12501 15.2165 4.12501 8.39334C4.12152 7.38548 4.48523 6.41085 5.14813 5.65166C5.81103 4.89248 6.72775 4.40073 7.72689 4.26834C7.74187 4.26741 7.7569 4.26741 7.77189 4.26834C7.84587 4.26897 7.91801 4.29147 7.97923 4.33301C8.04045 4.37455 8.08802 4.43327 8.11595 4.50178L10.095 8.92115C10.1181 8.97517 10.1282 9.03385 10.1244 9.09247C10.1207 9.1511 10.1032 9.20802 10.0734 9.25865L8.08689 11.6212C8.07751 11.6333 8.06814 11.6446 8.0597 11.6577C7.95386 11.8196 7.89153 12.006 7.87872 12.1989C7.86591 12.3919 7.90306 12.5849 7.98657 12.7593C8.80126 14.4271 10.4813 16.0949 12.1678 16.9096C12.3434 16.9926 12.5375 17.0287 12.7312 17.0144C12.9249 17.0001 13.1116 16.9359 13.2731 16.828L13.3078 16.8018L15.6356 14.8218C15.6854 14.7914 15.7417 14.7732 15.7999 14.7688C15.8581 14.7644 15.9165 14.7739 15.9703 14.7965L20.3963 16.7802C20.471 16.8113 20.5336 16.8657 20.5748 16.9353C20.616 17.0049 20.6336 17.086 20.625 17.1665Z" fill="#1E1E2D"/>
</svg>
