<svg width="24" height="25" viewBox="0 0 24 25" fill="none" xmlns="http://www.w3.org/2000/svg">
<path d="M13.028 2.89479C13.7577 2.89198 14.4874 2.89932 15.217 2.91679L15.411 2.92379C15.635 2.93179 15.856 2.94179 16.123 2.95379C17.187 3.00379 17.913 3.17179 18.55 3.41879C19.21 3.67279 19.766 4.01679 20.322 4.57279C20.8303 5.07239 21.2238 5.67673 21.475 6.34379C21.722 6.98078 21.89 7.70778 21.94 8.77178C21.952 9.03778 21.962 9.25979 21.97 9.48379L21.976 9.67779C21.9937 10.407 22.0014 11.1364 21.999 11.8658L22 12.6118V13.9218C22.0024 14.6515 21.9948 15.3813 21.977 16.1108L21.971 16.3048C21.963 16.5288 21.953 16.7498 21.941 17.0168C21.891 18.0808 21.721 18.8068 21.475 19.4438C21.2246 20.1115 20.8311 20.7164 20.322 21.2158C19.8219 21.7241 19.2173 22.1175 18.55 22.3688C17.913 22.6158 17.187 22.7838 16.123 22.8338C15.856 22.8458 15.635 22.8558 15.411 22.8638L15.217 22.8698C14.4874 22.8876 13.7577 22.8952 13.028 22.8928L12.282 22.8938H10.973C10.2432 22.8962 9.51349 22.8886 8.78397 22.8708L8.58997 22.8648C8.35258 22.8562 8.11524 22.8462 7.87797 22.8348C6.81397 22.7848 6.08797 22.6148 5.44997 22.3688C4.78265 22.1181 4.1782 21.7246 3.67897 21.2158C3.17001 20.7161 2.77619 20.1113 2.52497 19.4438C2.27797 18.8068 2.10997 18.0808 2.05997 17.0168C2.04883 16.7795 2.03883 16.5422 2.02997 16.3048L2.02497 16.1108C2.00653 15.3813 1.9982 14.6515 1.99997 13.9218V11.8658C1.99718 11.1364 2.00451 10.407 2.02197 9.67779L2.02897 9.48379C2.03697 9.25979 2.04697 9.03778 2.05897 8.77178C2.10897 7.70678 2.27697 6.98178 2.52397 6.34379C2.77534 5.67641 3.16993 5.07223 3.67997 4.57379C4.17886 4.06454 4.78293 3.67036 5.44997 3.41879C6.08797 3.17179 6.81297 3.00379 7.87797 2.95379L8.58997 2.92379L8.78397 2.91879C9.51315 2.90036 10.2426 2.89202 10.972 2.89379L13.028 2.89479ZM12 7.89478C11.3375 7.88542 10.6797 8.00781 10.0649 8.25485C9.45016 8.5019 8.89061 8.86866 8.41881 9.33384C7.94701 9.79902 7.57237 10.3533 7.31665 10.9645C7.06094 11.5758 6.92926 12.2317 6.92926 12.8943C6.92926 13.5568 7.06094 14.2128 7.31665 14.824C7.57237 15.4352 7.94701 15.9896 8.41881 16.4547C8.89061 16.9199 9.45016 17.2867 10.0649 17.5337C10.6797 17.7808 11.3375 17.9032 12 17.8938C13.326 17.8938 14.5978 17.367 15.5355 16.4293C16.4732 15.4916 17 14.2199 17 12.8938C17 11.5677 16.4732 10.2959 15.5355 9.35825C14.5978 8.42057 13.326 7.89478 12 7.89478ZM12 9.89479C12.3985 9.88744 12.7944 9.95958 13.1648 10.107C13.5351 10.2544 13.8723 10.4741 14.1567 10.7533C14.4412 11.0325 14.6671 11.3656 14.8214 11.7331C14.9757 12.1006 15.0552 12.4952 15.0552 12.8938C15.0553 13.2924 14.9759 13.6869 14.8218 14.0545C14.6677 14.4221 14.4418 14.7552 14.1575 15.0345C13.8731 15.3138 13.536 15.5337 13.1657 15.6812C12.7954 15.8287 12.3995 15.901 12.001 15.8938C11.2053 15.8938 10.4423 15.5777 9.87965 15.0151C9.31704 14.4525 9.00097 13.6894 9.00097 12.8938C9.00097 12.0981 9.31704 11.3351 9.87965 10.7725C10.4423 10.2099 11.2053 9.89378 12.001 9.89378L12 9.89479ZM17.25 6.39479C16.9274 6.4077 16.6223 6.54494 16.3986 6.77776C16.1749 7.01058 16.05 7.32092 16.05 7.64378C16.05 7.96665 16.1749 8.27699 16.3986 8.50981C16.6223 8.74263 16.9274 8.87987 17.25 8.89279C17.5815 8.89279 17.8994 8.76109 18.1339 8.52667C18.3683 8.29225 18.5 7.97431 18.5 7.64279C18.5 7.31126 18.3683 6.99332 18.1339 6.7589C17.8994 6.52448 17.5815 6.39279 17.25 6.39279V6.39479Z" fill="#FFFDFA"/>
</svg>
