<svg width="24" height="25" viewBox="0 0 24 25" fill="none" xmlns="http://www.w3.org/2000/svg">
<path d="M22.221 16.6617L21.997 15.5367H19.483L19.083 16.6537L17.068 16.6577C18.363 13.5447 19.325 11.2397 19.952 9.74067C20.116 9.34867 20.407 9.14867 20.836 9.15167C21.164 9.15467 21.699 9.15467 22.442 9.15267L24 16.6587L22.221 16.6617ZM20.049 13.9957H21.669L21.064 11.1757L20.049 13.9957ZM7.06 9.15067L9.086 9.15267L5.954 16.6627L3.903 16.6607C3.38725 14.677 2.87792 12.6916 2.375 10.7047C2.275 10.3087 2.077 10.0317 1.696 9.90067C1.13333 9.71208 0.56794 9.53173 0 9.35967L0 9.15267H3.237C3.797 9.15267 4.124 9.42367 4.229 9.97967C4.335 10.5367 4.601 11.9557 5.029 14.2337L7.06 9.15067ZM11.87 9.15267L10.269 16.6617L8.34 16.6587L9.94 9.15067L11.87 9.15267ZM15.78 9.01367C16.357 9.01367 17.084 9.19367 17.502 9.35967L17.164 10.9157C16.786 10.7637 16.164 10.5587 15.641 10.5657C14.881 10.5787 14.411 10.8977 14.411 11.2037C14.411 11.7017 15.227 11.9527 16.067 12.4967C17.025 13.1167 17.152 13.6737 17.14 14.2797C17.127 15.5347 16.067 16.7737 13.831 16.7737C12.811 16.7587 12.443 16.6737 11.611 16.3777L11.963 14.7537C12.81 15.1077 13.169 15.2207 13.893 15.2207C14.556 15.2207 15.125 14.9527 15.13 14.4857C15.134 14.1537 14.93 13.9887 14.186 13.5787C13.442 13.1677 12.398 12.5997 12.412 11.4567C12.429 9.99467 13.814 9.01367 15.78 9.01367Z" fill="#FFFDFA"/>
</svg>
