<svg width="763" height="72" viewBox="0 0 763 72" fill="none" xmlns="http://www.w3.org/2000/svg">
<path d="M35.216 19.304V25.88H26.288V53H18.08V25.88H9.152V19.304H35.216ZM60.3114 47.048H47.7354L45.7194 53H37.1274L49.3194 19.304H58.8234L71.0154 53H62.3274L60.3114 47.048ZM58.1994 40.712L54.0234 28.376L49.8954 40.712H58.1994ZM86.918 53.336C84.454 53.336 82.246 52.936 80.294 52.136C78.342 51.336 76.774 50.152 75.59 48.584C74.438 47.016 73.83 45.128 73.766 42.92H82.502C82.63 44.168 83.062 45.128 83.798 45.8C84.534 46.44 85.494 46.76 86.678 46.76C87.894 46.76 88.854 46.488 89.558 45.944C90.262 45.368 90.614 44.584 90.614 43.592C90.614 42.76 90.326 42.072 89.75 41.528C89.206 40.984 88.518 40.536 87.686 40.184C86.886 39.832 85.734 39.432 84.23 38.984C82.054 38.312 80.278 37.64 78.902 36.968C77.526 36.296 76.342 35.304 75.35 33.992C74.358 32.68 73.862 30.968 73.862 28.856C73.862 25.72 74.998 23.272 77.27 21.512C79.542 19.72 82.502 18.824 86.15 18.824C89.862 18.824 92.854 19.72 95.126 21.512C97.398 23.272 98.614 25.736 98.774 28.904H89.894C89.83 27.816 89.43 26.968 88.694 26.36C87.958 25.72 87.014 25.4 85.862 25.4C84.87 25.4 84.07 25.672 83.462 26.216C82.854 26.728 82.55 27.48 82.55 28.472C82.55 29.56 83.062 30.408 84.086 31.016C85.11 31.624 86.71 32.28 88.886 32.984C91.062 33.72 92.822 34.424 94.166 35.096C95.542 35.768 96.726 36.744 97.718 38.024C98.71 39.304 99.206 40.952 99.206 42.968C99.206 44.888 98.71 46.632 97.718 48.2C96.758 49.768 95.35 51.016 93.494 51.944C91.638 52.872 89.446 53.336 86.918 53.336ZM128.497 19.304V25.88H119.569V53H111.361V25.88H102.433V19.304H128.497ZM161.513 19.304L149.849 41.864V53H141.641V41.864L129.977 19.304L139.289 19.304L145.817 33.416L152.297 19.304H161.513ZM197.36 29.96C196.752 28.84 195.872 27.992 194.72 27.416C193.6 26.808 192.272 26.504 190.736 26.504C188.08 26.504 185.952 27.384 184.352 29.144C182.752 30.872 181.952 33.192 181.952 36.104C181.952 39.208 182.784 41.64 184.448 43.4C186.144 45.128 188.464 45.992 191.408 45.992C193.424 45.992 195.12 45.48 196.496 44.456C197.904 43.432 198.928 41.96 199.568 40.04H189.152V33.992H207.008V41.624C206.4 43.672 205.36 45.576 203.888 47.336C202.448 49.096 200.608 50.52 198.368 51.608C196.128 52.696 193.6 53.24 190.784 53.24C187.456 53.24 184.48 52.52 181.856 51.08C179.264 49.608 177.232 47.576 175.76 44.984C174.32 42.392 173.6 39.432 173.6 36.104C173.6 32.776 174.32 29.816 175.76 27.224C177.232 24.6 179.264 22.568 181.856 21.128C184.448 19.656 187.408 18.92 190.736 18.92C194.768 18.92 198.16 19.896 200.912 21.848C203.696 23.8 205.536 26.504 206.432 29.96H197.36ZM227.49 53.336C224.322 53.336 221.41 52.6 218.754 51.128C216.13 49.656 214.034 47.608 212.466 44.984C210.93 42.328 210.162 39.352 210.162 36.056C210.162 32.76 210.93 29.8 212.466 27.176C214.034 24.552 216.13 22.504 218.754 21.032C221.41 19.56 224.322 18.824 227.49 18.824C230.658 18.824 233.554 19.56 236.178 21.032C238.834 22.504 240.914 24.552 242.418 27.176C243.954 29.8 244.722 32.76 244.722 36.056C244.722 39.352 243.954 42.328 242.418 44.984C240.882 47.608 238.802 49.656 236.178 51.128C233.554 52.6 230.658 53.336 227.49 53.336ZM227.49 45.848C230.178 45.848 232.322 44.952 233.922 43.16C235.554 41.368 236.37 39 236.37 36.056C236.37 33.08 235.554 30.712 233.922 28.952C232.322 27.16 230.178 26.264 227.49 26.264C224.77 26.264 222.594 27.144 220.962 28.904C219.362 30.664 218.562 33.048 218.562 36.056C218.562 39.032 219.362 41.416 220.962 43.208C222.594 44.968 224.77 45.848 227.49 45.848Z" fill="#F9854E"/>
<circle cx="267" cy="36" r="4" fill="#1E1E2D"/>
<path d="M298.184 25.88V24.88H297.184V25.88H298.184ZM298.184 32.696H297.184V33.696H298.184V32.696ZM309.176 32.696H310.176V31.696H309.176V32.696ZM309.176 39.032V40.032H310.176V39.032H309.176ZM298.184 39.032V38.032H297.184V39.032H298.184ZM298.184 46.424H297.184V47.424H298.184V46.424ZM310.616 46.424H311.616V45.424H310.616V46.424ZM310.616 53V54H311.616V53H310.616ZM289.976 53H288.976V54H289.976V53ZM289.976 19.304V18.304H288.976V19.304H289.976ZM310.616 19.304H311.616V18.304H310.616V19.304ZM310.616 25.88V26.88H311.616V25.88H310.616ZM297.184 25.88V32.696H299.184V25.88H297.184ZM298.184 33.696H309.176V31.696H298.184V33.696ZM308.176 32.696V39.032H310.176V32.696H308.176ZM309.176 38.032H298.184V40.032H309.176V38.032ZM297.184 39.032V46.424H299.184V39.032H297.184ZM298.184 47.424H310.616V45.424H298.184V47.424ZM309.616 46.424V53H311.616V46.424H309.616ZM310.616 52H289.976V54H310.616V52ZM290.976 53V19.304H288.976V53H290.976ZM289.976 20.304H310.616V18.304H289.976V20.304ZM309.616 19.304V25.88H311.616V19.304H309.616ZM310.616 24.88H298.184V26.88H310.616V24.88ZM346.089 53V54H347.089V53H346.089ZM337.881 53L337.046 53.5511L337.343 54H337.881V53ZM324.153 32.216L324.987 31.6649L323.153 28.8876V32.216H324.153ZM324.153 53V54H325.153V53H324.153ZM315.945 53H314.945V54H315.945V53ZM315.945 19.304V18.304H314.945V19.304H315.945ZM324.153 19.304L324.988 18.7546L324.692 18.304H324.153V19.304ZM337.881 40.184L337.045 40.7334L338.881 43.5252V40.184H337.881ZM337.881 19.304V18.304H336.881V19.304H337.881ZM346.089 19.304H347.089V18.304H346.089V19.304ZM346.089 52H337.881V54H346.089V52ZM338.715 52.4489L324.987 31.6649L323.318 32.7671L337.046 53.5511L338.715 52.4489ZM323.153 32.216V53H325.153V32.216H323.153ZM324.153 52H315.945V54H324.153V52ZM316.945 53V19.304H314.945V53H316.945ZM315.945 20.304H324.153V18.304H315.945V20.304ZM323.317 19.8534L337.045 40.7334L338.716 39.6346L324.988 18.7546L323.317 19.8534ZM338.881 40.184V19.304H336.881V40.184H338.881ZM337.881 20.304H346.089V18.304H337.881V20.304ZM345.089 19.304V53H347.089V19.304H345.089ZM373.159 19.304H374.159V18.304H373.159V19.304ZM370.134 50.456L369.445 49.7318L369.439 49.7374L370.134 50.456ZM353.526 50.312L352.841 51.0405L353.526 50.312ZM350.311 41.72V40.72H349.311V41.72H350.311ZM358.47 41.72H359.47V40.72H358.47V41.72ZM359.335 44.936L358.547 45.5523L358.554 45.5608L358.561 45.5692L359.335 44.936ZM364.134 45.032L363.373 44.3843L364.134 45.032ZM364.951 19.304V18.304H363.951V19.304H364.951ZM372.159 19.304V42.248H374.159V19.304H372.159ZM372.159 42.248C372.159 45.6061 371.211 48.0494 369.445 49.7319L370.824 51.1801C373.09 49.0226 374.159 45.9939 374.159 42.248H372.159ZM369.439 49.7374C367.682 51.4376 365.266 52.336 362.071 52.336V54.336C365.659 54.336 368.619 53.3144 370.83 51.1746L369.439 49.7374ZM362.071 52.336C358.717 52.336 356.133 51.3903 354.212 49.5835L352.841 51.0405C355.208 53.2657 358.32 54.336 362.071 54.336V52.336ZM354.212 49.5835C352.318 47.8033 351.311 45.2328 351.311 41.72H349.311C349.311 45.6312 350.447 48.7887 352.841 51.0405L354.212 49.5835ZM350.311 42.72H358.47V40.72H350.311V42.72ZM357.47 41.72C357.47 43.2435 357.779 44.571 358.547 45.5523L360.122 44.3197C359.738 43.829 359.47 43.0125 359.47 41.72H357.47ZM358.561 45.5692C359.364 46.5515 360.508 46.992 361.83 46.992V44.992C360.977 44.992 360.457 44.7285 360.108 44.3028L358.561 45.5692ZM361.83 46.992C363.057 46.992 364.127 46.5843 364.896 45.6796L363.373 44.3843C363.054 44.7597 362.588 44.992 361.83 44.992V46.992ZM364.896 45.6796C365.65 44.7929 365.951 43.5973 365.951 42.248H363.951C363.951 43.3307 363.707 43.9911 363.373 44.3843L364.896 45.6796ZM365.951 42.248V19.304H363.951V42.248H365.951ZM364.951 20.304H373.159V18.304H364.951V20.304ZM386.989 51.128L386.499 52.0002L386.504 52.0027L386.989 51.128ZM380.701 44.984L379.835 45.4846L379.838 45.4908L379.842 45.497L380.701 44.984ZM380.701 27.176L379.842 26.663L379.837 26.6708L380.701 27.176ZM386.989 21.032L386.504 20.1573L386.499 20.1599L386.989 21.032ZM404.413 21.032L403.923 21.9042L403.928 21.9067L404.413 21.032ZM410.653 27.176L409.785 27.6733L409.789 27.6812L410.653 27.176ZM410.653 44.984L411.516 45.4892L411.518 45.4846L410.653 44.984ZM404.413 51.128L404.902 52.0001L404.413 51.128ZM402.157 43.16L401.417 42.4866L401.411 42.494L402.157 43.16ZM402.157 28.952L401.411 29.618L401.417 29.625L401.423 29.6319L402.157 28.952ZM389.197 28.904L388.463 28.224L388.457 28.2313L389.197 28.904ZM389.197 43.208L388.451 43.874L388.457 43.881L388.463 43.8879L389.197 43.208ZM395.725 52.336C392.718 52.336 389.974 51.6395 387.473 50.2533L386.504 52.0027C389.315 53.5605 392.395 54.336 395.725 54.336V52.336ZM387.478 50.2559C385.009 48.8707 383.039 46.9476 381.559 44.471L379.842 45.497C381.498 48.2684 383.72 50.4413 386.499 52.0001L387.478 50.2559ZM381.566 44.4834C380.125 41.9908 379.396 39.1897 379.396 36.056H377.396C377.396 39.5143 378.204 42.6652 379.835 45.4846L381.566 44.4834ZM379.396 36.056C379.396 32.9222 380.125 30.1392 381.564 27.6812L379.837 26.6708C378.204 29.4608 377.396 32.5978 377.396 36.056H379.396ZM381.559 27.689C383.039 25.2124 385.009 23.2893 387.478 21.9041L386.499 20.1599C383.72 21.7187 381.498 23.8916 379.842 26.663L381.559 27.689ZM387.473 21.9067C389.974 20.5205 392.718 19.824 395.725 19.824V17.824C392.395 17.824 389.315 18.5995 386.504 20.1573L387.473 21.9067ZM395.725 19.824C398.731 19.824 401.457 20.5205 403.923 21.9041L404.902 20.1599C402.12 18.5995 399.054 17.824 395.725 17.824V19.824ZM403.928 21.9067C406.425 23.2905 408.372 25.2083 409.785 27.6733L411.52 26.6787C409.925 23.8957 407.712 21.7175 404.897 20.1573L403.928 21.9067ZM409.789 27.6812C411.228 30.1392 411.956 32.9222 411.956 36.056H413.956C413.956 32.5978 413.149 29.4608 411.516 26.6708L409.789 27.6812ZM411.956 36.056C411.956 39.1897 411.228 41.9908 409.787 44.4834L411.518 45.4846C413.149 42.6652 413.956 39.5143 413.956 36.056H411.956ZM409.789 44.4788C408.342 46.9512 406.391 48.8718 403.923 50.2559L404.902 52.0001C407.682 50.4402 409.891 48.2648 411.516 45.4892L409.789 44.4788ZM403.923 50.2559C401.457 51.6395 398.731 52.336 395.725 52.336V54.336C399.054 54.336 402.12 53.5605 404.902 52.0001L403.923 50.2559ZM395.725 46.848C398.66 46.848 401.089 45.8571 402.902 43.826L401.411 42.494C400.024 44.0469 398.165 44.848 395.725 44.848V46.848ZM402.896 43.8333C404.73 41.8195 405.604 39.1929 405.604 36.056H403.604C403.604 38.8071 402.847 40.9165 401.417 42.4867L402.896 43.8333ZM405.604 36.056C405.604 32.8912 404.732 30.2587 402.89 28.2721L401.423 29.6319C402.845 31.1653 403.604 33.2688 403.604 36.056H405.604ZM402.902 28.286C401.089 26.2549 398.66 25.264 395.725 25.264V27.264C398.165 27.264 400.024 28.0651 401.411 29.618L402.902 28.286ZM395.725 25.264C392.767 25.264 390.311 26.2318 388.463 28.2241L389.93 29.5839C391.346 28.0562 393.242 27.264 395.725 27.264V25.264ZM388.457 28.2313C386.648 30.2203 385.797 32.8675 385.797 36.056H387.797C387.797 33.2285 388.545 31.1077 389.936 29.5767L388.457 28.2313ZM385.797 36.056C385.797 39.2166 386.65 41.8578 388.451 43.874L389.942 42.542C388.543 40.9742 387.797 38.8474 387.797 36.056H385.797ZM388.463 43.8879C390.311 45.8802 392.767 46.848 395.725 46.848V44.848C393.242 44.848 391.346 44.0558 389.93 42.5281L388.463 43.8879ZM446.419 19.304L447.307 19.7633L448.062 18.304H446.419V19.304ZM434.755 41.864L433.867 41.4047L433.755 41.6208V41.864H434.755ZM434.755 53V54H435.755V53H434.755ZM426.547 53H425.547V54H426.547V53ZM426.547 41.864H427.547V41.6208L427.435 41.4047L426.547 41.864ZM414.883 19.304V18.304H413.24L413.995 19.7633L414.883 19.304ZM424.195 19.304L425.102 18.8842L424.834 18.304H424.195V19.304ZM430.723 33.416L429.815 33.8358L430.726 35.8051L431.632 33.8333L430.723 33.416ZM437.203 19.304V18.304H436.562L436.294 18.8867L437.203 19.304ZM445.531 18.8447L433.867 41.4047L435.643 42.3233L447.307 19.7633L445.531 18.8447ZM433.755 41.864V53H435.755V41.864H433.755ZM434.755 52H426.547V54H434.755V52ZM427.547 53V41.864H425.547V53H427.547ZM427.435 41.4047L415.771 18.8447L413.995 19.7633L425.659 42.3233L427.435 41.4047ZM414.883 20.304L424.195 20.304V18.304L414.883 18.304V20.304ZM423.287 19.7238L429.815 33.8358L431.63 32.9962L425.102 18.8842L423.287 19.7238ZM431.632 33.8333L438.112 19.7213L436.294 18.8867L429.814 32.9987L431.632 33.8333ZM437.203 20.304H446.419V18.304H437.203V20.304ZM488.794 19.304L489.682 19.7633L490.437 18.304H488.794V19.304ZM477.13 41.864L476.242 41.4047L476.13 41.6208V41.864H477.13ZM477.13 53V54H478.13V53H477.13ZM468.922 53H467.922V54H468.922V53ZM468.922 41.864H469.922V41.6208L469.81 41.4047L468.922 41.864ZM457.258 19.304V18.304H455.615L456.37 19.7633L457.258 19.304ZM466.57 19.304L467.477 18.8842L467.209 18.304H466.57V19.304ZM473.098 33.416L472.19 33.8358L473.101 35.8051L474.007 33.8333L473.098 33.416ZM479.578 19.304V18.304H478.937L478.669 18.8867L479.578 19.304ZM487.906 18.8447L476.242 41.4047L478.018 42.3233L489.682 19.7633L487.906 18.8447ZM476.13 41.864V53H478.13V41.864H476.13ZM477.13 52H468.922V54H477.13V52ZM469.922 53V41.864H467.922V53H469.922ZM469.81 41.4047L458.146 18.8447L456.37 19.7633L468.034 42.3233L469.81 41.4047ZM457.258 20.304H466.57V18.304H457.258V20.304ZM465.662 19.7238L472.19 33.8358L474.005 32.9962L467.477 18.8842L465.662 19.7238ZM474.007 33.8333L480.487 19.7213L478.669 18.8867L472.189 32.9987L474.007 33.8333ZM479.578 20.304H488.794V18.304H479.578V20.304ZM499.301 51.128L498.812 52.0002L498.816 52.0027L499.301 51.128ZM493.013 44.984L492.147 45.4846L492.151 45.4908L492.155 45.497L493.013 44.984ZM493.013 27.176L492.155 26.663L492.15 26.6708L493.013 27.176ZM499.301 21.032L498.816 20.1573L498.812 20.1599L499.301 21.032ZM516.725 21.032L516.236 21.9042L516.24 21.9067L516.725 21.032ZM522.965 27.176L522.097 27.6733L522.102 27.6812L522.965 27.176ZM522.965 44.984L523.828 45.4892L523.831 45.4846L522.965 44.984ZM516.725 51.128L517.214 52.0001L516.725 51.128ZM514.469 43.16L513.73 42.4866L513.723 42.494L514.469 43.16ZM514.469 28.952L513.723 29.618L513.729 29.625L513.736 29.6319L514.469 28.952ZM501.509 28.904L500.776 28.224L500.769 28.2313L501.509 28.904ZM501.509 43.208L500.763 43.874L500.769 43.881L500.776 43.8879L501.509 43.208ZM508.037 52.336C505.031 52.336 502.287 51.6395 499.786 50.2533L498.816 52.0027C501.627 53.5605 504.707 54.336 508.037 54.336V52.336ZM499.79 50.2559C497.321 48.8707 495.351 46.9476 493.871 44.471L492.155 45.497C493.811 48.2684 496.033 50.4413 498.812 52.0001L499.79 50.2559ZM493.879 44.4834C492.437 41.9908 491.709 39.1897 491.709 36.056H489.709C489.709 39.5143 490.517 42.6652 492.147 45.4846L493.879 44.4834ZM491.709 36.056C491.709 32.9222 492.437 30.1392 493.876 27.6812L492.15 26.6708C490.517 29.4608 489.709 32.5978 489.709 36.056H491.709ZM493.871 27.689C495.351 25.2124 497.321 23.2893 499.79 21.9041L498.812 20.1599C496.033 21.7187 493.811 23.8916 492.155 26.663L493.871 27.689ZM499.786 21.9067C502.287 20.5205 505.031 19.824 508.037 19.824V17.824C504.707 17.824 501.627 18.5995 498.816 20.1573L499.786 21.9067ZM508.037 19.824C511.043 19.824 513.769 20.5205 516.236 21.9041L517.214 20.1599C514.433 18.5995 511.367 17.824 508.037 17.824V19.824ZM516.24 21.9067C518.737 23.2905 520.685 25.2083 522.097 27.6733L523.833 26.6787C522.237 23.8957 520.025 21.7175 517.21 20.1573L516.24 21.9067ZM522.102 27.6812C523.541 30.1392 524.269 32.9222 524.269 36.056H526.269C526.269 32.5978 525.461 29.4608 523.828 26.6708L522.102 27.6812ZM524.269 36.056C524.269 39.1897 523.541 41.9908 522.099 44.4834L523.831 45.4846C525.461 42.6652 526.269 39.5143 526.269 36.056H524.269ZM522.102 44.4788C520.655 46.9512 518.703 48.8718 516.236 50.2559L517.214 52.0001C519.995 50.4402 522.203 48.2648 523.828 45.4892L522.102 44.4788ZM516.236 50.2559C513.769 51.6395 511.043 52.336 508.037 52.336V54.336C511.367 54.336 514.433 53.5605 517.214 52.0001L516.236 50.2559ZM508.037 46.848C510.972 46.848 513.401 45.8571 515.215 43.826L513.723 42.494C512.337 44.0469 510.478 44.848 508.037 44.848V46.848ZM515.208 43.8333C517.042 41.8195 517.917 39.1929 517.917 36.056H515.917C515.917 38.8071 515.16 40.9165 513.73 42.4867L515.208 43.8333ZM517.917 36.056C517.917 32.8912 517.044 30.2587 515.202 28.2721L513.736 29.6319C515.158 31.1653 515.917 33.2688 515.917 36.056H517.917ZM515.215 28.286C513.401 26.2549 510.972 25.264 508.037 25.264V27.264C510.478 27.264 512.337 28.0651 513.723 29.618L515.215 28.286ZM508.037 25.264C505.08 25.264 502.623 26.2318 500.776 28.2241L502.242 29.5839C503.659 28.0562 505.554 27.264 508.037 27.264V25.264ZM500.769 28.2313C498.961 30.2203 498.109 32.8675 498.109 36.056H500.109C500.109 33.2285 500.857 31.1077 502.249 29.5767L500.769 28.2313ZM498.109 36.056C498.109 39.2166 498.963 41.8578 500.763 43.874L502.255 42.542C500.855 40.9742 500.109 38.8474 500.109 36.056H498.109ZM500.776 43.8879C502.623 45.8802 505.08 46.848 508.037 46.848V44.848C505.554 44.848 503.659 44.0558 502.242 42.5281L500.776 43.8879ZM537.899 19.304H538.899V18.304H537.899V19.304ZM539.387 44.12L538.648 44.7938L539.387 44.12ZM548.171 44.12L548.9 44.8054V44.8054L548.171 44.12ZM549.707 19.304V18.304H548.707V19.304H549.707ZM557.915 19.304H558.915V18.304H557.915V19.304ZM555.995 47.048L556.847 47.5721L555.995 47.048ZM550.811 51.752L550.375 50.8523L550.37 50.8549L550.811 51.752ZM536.459 51.8L536.007 52.6917L536.015 52.6958L536.023 52.6998L536.459 51.8ZM531.515 47.096L530.649 47.595L530.652 47.6007L531.515 47.096ZM529.691 19.304V18.304H528.691V19.304H529.691ZM536.899 19.304V39.464H538.899V19.304H536.899ZM536.899 39.464C536.899 41.6364 537.435 43.4628 538.648 44.7938L540.126 43.4462C539.356 42.6012 538.899 41.3236 538.899 39.464H536.899ZM538.648 44.7938C539.883 46.1481 541.645 46.752 543.755 46.752V44.752C542.026 44.752 540.876 44.2679 540.126 43.4462L538.648 44.7938ZM543.755 46.752C545.868 46.752 547.636 46.1475 548.9 44.8054L547.443 43.4346C546.658 44.2685 545.483 44.752 543.755 44.752V46.752ZM548.9 44.8054C550.152 43.4749 550.707 41.644 550.707 39.464H548.707C548.707 41.316 548.239 42.5891 547.443 43.4346L548.9 44.8054ZM550.707 39.464V19.304H548.707V39.464H550.707ZM549.707 20.304H557.915V18.304H549.707V20.304ZM556.915 19.304V39.416H558.915V19.304H556.915ZM556.915 39.416C556.915 42.2817 556.307 44.6344 555.144 46.5239L556.847 47.5721C558.244 45.3016 558.915 42.5663 558.915 39.416H556.915ZM555.144 46.5239C553.962 48.4434 552.378 49.8803 550.375 50.8523L551.248 52.6517C553.597 51.5117 555.468 49.8126 556.847 47.5721L555.144 46.5239ZM550.37 50.8549C548.378 51.836 546.131 52.336 543.611 52.336V54.336C546.403 54.336 548.957 53.78 551.253 52.6491L550.37 50.8549ZM543.611 52.336C541.087 52.336 538.855 51.8501 536.896 50.9002L536.023 52.6998C538.288 53.7979 540.824 54.336 543.611 54.336V52.336ZM536.912 50.9083C535.009 49.9422 533.501 48.5113 532.379 46.5913L530.652 47.6007C531.962 49.8407 533.75 51.5458 536.007 52.6917L536.912 50.9083ZM532.382 46.597C531.272 44.6686 530.691 42.2896 530.691 39.416H528.691C528.691 42.5584 529.327 45.2994 530.649 47.595L532.382 46.597ZM530.691 39.416V19.304H528.691V39.416H530.691ZM529.691 20.304H537.899V18.304H529.691V20.304ZM580.863 53L579.987 53.4826L580.272 54H580.863V53ZM573.855 40.28L574.731 39.7974L574.446 39.28H573.855V40.28ZM571.887 40.28V39.28H570.887V40.28H571.887ZM571.887 53V54H572.887V53H571.887ZM563.679 53H562.679V54H563.679V53ZM563.679 19.304V18.304H562.679V19.304H563.679ZM584.223 20.696L583.776 21.5904L583.782 21.5934L584.223 20.696ZM588.447 24.536L587.578 25.0303L587.582 25.0377L588.447 24.536ZM587.919 35.912L587.11 35.3238L587.103 35.3336L587.919 35.912ZM582.351 39.656L582.065 38.6978L580.847 39.0615L581.487 40.1595L582.351 39.656ZM590.127 53V54H591.867L590.991 52.4965L590.127 53ZM571.887 34.472H570.887V35.472H571.887V34.472ZM580.335 33.368L579.643 32.646L579.636 32.6534L579.628 32.6609L580.335 33.368ZM580.335 27.224L579.628 27.9311L579.636 27.9386L579.643 27.946L580.335 27.224ZM571.887 26.12V25.12H570.887V26.12H571.887ZM581.739 52.5174L574.731 39.7974L572.979 40.7626L579.987 53.4826L581.739 52.5174ZM573.855 39.28H571.887V41.28H573.855V39.28ZM570.887 40.28V53H572.887V40.28H570.887ZM571.887 52H563.679V54H571.887V52ZM564.679 53V19.304H562.679V53H564.679ZM563.679 20.304H577.455V18.304H563.679V20.304ZM577.455 20.304C579.998 20.304 582.092 20.7485 583.776 21.5904L584.67 19.8016C582.642 18.7875 580.224 18.304 577.455 18.304V20.304ZM583.782 21.5934C585.513 22.4441 586.761 23.5932 587.578 25.0303L589.316 24.0417C588.278 22.2148 586.71 20.8039 584.664 19.7985L583.782 21.5934ZM587.582 25.0377C588.415 26.4742 588.839 28.091 588.839 29.912H590.839C590.839 27.765 590.335 25.7978 589.312 24.0343L587.582 25.0377ZM588.839 29.912C588.839 31.9473 588.262 33.74 587.11 35.3238L588.728 36.5002C590.136 34.564 590.839 32.3567 590.839 29.912H588.839ZM587.103 35.3336C586.008 36.8782 584.357 38.013 582.065 38.6978L582.637 40.6142C585.273 39.827 587.334 38.4658 588.735 36.4904L587.103 35.3336ZM581.487 40.1595L589.263 53.5035L590.991 52.4965L583.215 39.1525L581.487 40.1595ZM590.127 52H580.863V54H590.127V52ZM571.887 35.472H576.975V33.472H571.887V35.472ZM576.975 35.472C578.626 35.472 580.049 35.0684 581.042 34.0751L579.628 32.6609C579.149 33.1396 578.332 33.472 576.975 33.472V35.472ZM581.027 34.09C582.041 33.1185 582.487 31.7885 582.487 30.248H580.487C580.487 31.3955 580.165 32.1455 579.643 32.646L581.027 34.09ZM582.487 30.248C582.487 28.7551 582.031 27.4643 581.027 26.502L579.643 27.946C580.175 28.4557 580.487 29.1809 580.487 30.248H582.487ZM581.042 26.5169C580.049 25.5236 578.626 25.12 576.975 25.12V27.12C578.332 27.12 579.149 27.4524 579.628 27.9311L581.042 26.5169ZM576.975 25.12H571.887V27.12H576.975V25.12ZM570.887 26.12V34.472H572.887V26.12H570.887ZM643.324 19.304H644.324V18.304H643.324V19.304ZM643.324 53V54H644.324V53H643.324ZM635.116 53H634.116V54H635.116V53ZM635.116 32.792H636.116L634.179 32.4426L635.116 32.792ZM627.579 53V54H628.274L628.516 53.3494L627.579 53ZM620.956 53L620.019 53.3506L620.262 54H620.956V53ZM613.371 32.744L614.308 32.3934L612.371 32.744H613.371ZM613.371 53V54H614.371V53H613.371ZM605.164 53H604.164V54H605.164V53ZM605.164 19.304V18.304H604.164V19.304H605.164ZM614.859 19.304L615.786 18.9283L615.533 18.304H614.859V19.304ZM624.315 42.632L623.389 43.0077L624.32 45.3056L625.244 43.0044L624.315 42.632ZM633.676 19.304V18.304H632.999L632.747 18.9316L633.676 19.304ZM642.324 19.304V53H644.324V19.304H642.324ZM643.324 52H635.116V54H643.324V52ZM636.116 53V32.792H634.116V53H636.116ZM634.179 32.4426L626.643 52.6506L628.516 53.3494L636.052 33.1414L634.179 32.4426ZM627.579 52H620.956V54H627.579V52ZM621.892 52.6494L614.308 32.3934L612.435 33.0946L620.019 53.3506L621.892 52.6494ZM612.371 32.744V53H614.371V32.744H612.371ZM613.371 52H605.164V54H613.371V52ZM606.164 53V19.304H604.164V53H606.164ZM605.164 20.304H614.859V18.304H605.164V20.304ZM613.933 19.6797L623.389 43.0077L625.242 42.2563L615.786 18.9283L613.933 19.6797ZM625.244 43.0044L634.604 19.6764L632.747 18.9316L623.387 42.2596L625.244 43.0044ZM633.676 20.304H643.324V18.304H633.676V20.304ZM657.434 25.88V24.88H656.434V25.88H657.434ZM657.434 32.696H656.434V33.696H657.434V32.696ZM668.426 32.696H669.426V31.696H668.426V32.696ZM668.426 39.032V40.032H669.426V39.032H668.426ZM657.434 39.032V38.032H656.434V39.032H657.434ZM657.434 46.424H656.434V47.424H657.434V46.424ZM669.866 46.424H670.866V45.424H669.866V46.424ZM669.866 53V54H670.866V53H669.866ZM649.226 53H648.226V54H649.226V53ZM649.226 19.304V18.304H648.226V19.304H649.226ZM669.866 19.304H670.866V18.304H669.866V19.304ZM669.866 25.88V26.88H670.866V25.88H669.866ZM656.434 25.88V32.696H658.434V25.88H656.434ZM657.434 33.696H668.426V31.696H657.434V33.696ZM667.426 32.696V39.032H669.426V32.696H667.426ZM668.426 38.032H657.434V40.032H668.426V38.032ZM656.434 39.032V46.424H658.434V39.032H656.434ZM657.434 47.424H669.866V45.424H657.434V47.424ZM668.866 46.424V53H670.866V46.424H668.866ZM669.866 52H649.226V54H669.866V52ZM650.226 53V19.304H648.226V53H650.226ZM649.226 20.304H669.866V18.304H649.226V20.304ZM668.866 19.304V25.88H670.866V19.304H668.866ZM669.866 24.88H657.434V26.88H669.866V24.88ZM696.171 47.048L697.118 46.7272L696.888 46.048H696.171V47.048ZM683.595 47.048V46.048H682.878L682.648 46.7272L683.595 47.048ZM681.579 53V54H682.296L682.526 53.3208L681.579 53ZM672.987 53L672.046 52.6598L671.561 54H672.987V53ZM685.179 19.304V18.304H684.477L684.238 18.9638L685.179 19.304ZM694.683 19.304L695.623 18.9638L695.384 18.304H694.683V19.304ZM706.875 53V54H708.3L707.815 52.6598L706.875 53ZM698.187 53L697.24 53.3208L697.47 54H698.187V53ZM694.059 40.712V41.712H695.453L695.006 40.3914L694.059 40.712ZM689.883 28.376L690.83 28.0554L689.877 25.2411L688.934 28.0587L689.883 28.376ZM685.755 40.712L684.806 40.3947L684.366 41.712H685.755V40.712ZM696.171 46.048H683.595V48.048H696.171V46.048ZM682.648 46.7272L680.632 52.6792L682.526 53.3208L684.542 47.3688L682.648 46.7272ZM681.579 52H672.987V54H681.579V52ZM673.927 53.3402L686.119 19.6442L684.238 18.9638L672.046 52.6598L673.927 53.3402ZM685.179 20.304H694.683V18.304H685.179V20.304ZM693.742 19.6442L705.934 53.3402L707.815 52.6598L695.623 18.9638L693.742 19.6442ZM706.875 52H698.187V54H706.875V52ZM699.134 52.6792L697.118 46.7272L695.224 47.3688L697.24 53.3208L699.134 52.6792ZM695.006 40.3914L690.83 28.0554L688.936 28.6966L693.112 41.0326L695.006 40.3914ZM688.934 28.0587L684.806 40.3947L686.703 41.0293L690.831 28.6933L688.934 28.0587ZM685.755 41.712H694.059V39.712H685.755V41.712ZM718.793 46.664H717.793V47.664H718.793V46.664ZM729.545 46.664H730.545V45.664H729.545V46.664ZM729.545 53V54H730.545V53H729.545ZM710.585 53H709.585V54H710.585V53ZM710.585 19.304V18.304H709.585V19.304H710.585ZM718.793 19.304H719.793V18.304H718.793V19.304ZM718.793 47.664H729.545V45.664H718.793V47.664ZM728.545 46.664V53H730.545V46.664H728.545ZM729.545 52H710.585V54H729.545V52ZM711.585 53V19.304H709.585V53H711.585ZM710.585 20.304H718.793V18.304H710.585V20.304ZM717.793 19.304V46.664H719.793V19.304H717.793Z" fill="#1E1E2D"/>
<circle cx="751" cy="36" r="4" fill="#1E1E2D"/>
</svg>
