<svg width="1461" height="115" viewBox="0 0 1461 115" fill="none" xmlns="http://www.w3.org/2000/svg">
<path d="M30.868 36.76V35.76H29.868V36.76H30.868ZM30.868 50.392H29.868V51.392H30.868V50.392ZM52.852 50.392H53.852V49.392H52.852V50.392ZM52.852 63.064V64.064H53.852V63.064H52.852ZM30.868 63.064V62.064H29.868V63.064H30.868ZM30.868 77.848H29.868V78.848H30.868V77.848ZM55.732 77.848H56.732V76.848H55.732V77.848ZM55.732 91V92H56.732V91H55.732ZM14.452 91H13.452V92H14.452V91ZM14.452 23.608V22.608H13.452V23.608H14.452ZM55.732 23.608H56.732V22.608H55.732V23.608ZM55.732 36.76V37.76H56.732V36.76H55.732ZM29.868 36.76V50.392H31.868V36.76H29.868ZM30.868 51.392H52.852V49.392H30.868V51.392ZM51.852 50.392V63.064H53.852V50.392H51.852ZM52.852 62.064H30.868V64.064H52.852V62.064ZM29.868 63.064V77.848H31.868V63.064H29.868ZM30.868 78.848H55.732V76.848H30.868V78.848ZM54.732 77.848V91H56.732V77.848H54.732ZM55.732 90H14.452V92H55.732V90ZM15.452 91V23.608H13.452V91H15.452ZM14.452 24.608H55.732V22.608H14.452V24.608ZM54.732 23.608V36.76H56.732V23.608H54.732ZM55.732 35.76H30.868V37.76H55.732V35.76ZM126.678 91V92H127.678V91H126.678ZM110.262 91L109.427 91.5511L109.724 92H110.262V91ZM82.8055 49.432L83.6399 48.8809L81.8055 46.1036V49.432H82.8055ZM82.8055 91V92H83.8055V91H82.8055ZM66.3895 91H65.3895V92H66.3895V91ZM66.3895 23.608V22.608H65.3895V23.608H66.3895ZM82.8055 23.608L83.6411 23.0586L83.3448 22.608H82.8055V23.608ZM110.262 65.368L109.426 65.9174L111.262 68.7092V65.368H110.262ZM110.262 23.608V22.608H109.262V23.608H110.262ZM126.678 23.608H127.678V22.608H126.678V23.608ZM126.678 90H110.262V92H126.678V90ZM111.096 90.4489L83.6399 48.8809L81.9711 49.9831L109.427 91.5511L111.096 90.4489ZM81.8055 49.432V91H83.8055V49.432H81.8055ZM82.8055 90H66.3895V92H82.8055V90ZM67.3895 91V23.608H65.3895V91H67.3895ZM66.3895 24.608H82.8055V22.608H66.3895V24.608ZM81.9699 24.1574L109.426 65.9174L111.097 64.8186L83.6411 23.0586L81.9699 24.1574ZM111.262 65.368V23.608H109.262V65.368H111.262ZM110.262 24.608H126.678V22.608H110.262V24.608ZM125.678 23.608V91H127.678V23.608H125.678ZM180.817 23.608H181.817V22.608H180.817V23.608ZM174.769 85.912L174.079 85.1878L174.074 85.1934L174.769 85.912ZM141.553 85.624L140.868 86.3525L141.553 85.624ZM135.121 68.44V67.44H134.121V68.44H135.121ZM151.441 68.44H152.441V67.44H151.441V68.44ZM153.169 74.872L152.382 75.4883L152.388 75.4968L152.395 75.5052L153.169 74.872ZM162.769 75.064L162.007 74.4164L162.769 75.064ZM164.401 23.608V22.608H163.401V23.608H164.401ZM179.817 23.608V69.496H181.817V23.608H179.817ZM179.817 69.496C179.817 76.4061 177.862 81.5854 174.079 85.1879L175.459 86.6361C179.74 82.5586 181.817 76.7939 181.817 69.496H179.817ZM174.074 85.1934C170.333 88.8136 165.228 90.672 158.641 90.672V92.672C165.622 92.672 171.269 90.6904 175.464 86.6306L174.074 85.1934ZM158.641 90.672C151.736 90.672 146.304 88.7183 142.238 84.8955L140.868 86.3525C145.378 90.5937 151.338 92.672 158.641 92.672V90.672ZM142.238 84.8955C138.201 81.0993 136.121 75.6648 136.121 68.44H134.121C134.121 76.0632 136.329 82.0847 140.868 86.3525L142.238 84.8955ZM135.121 69.44H151.441V67.44H135.121V69.44ZM150.441 68.44C150.441 71.3715 151.037 73.771 152.382 75.4883L153.957 74.2557C152.997 73.029 152.441 71.1405 152.441 68.44H150.441ZM152.395 75.5052C153.775 77.1915 155.75 77.984 158.161 77.984V75.984C156.22 75.984 154.867 75.3685 153.943 74.2388L152.395 75.5052ZM158.161 77.984C160.38 77.984 162.218 77.2563 163.531 75.7116L162.007 74.4164C161.144 75.4317 159.91 75.984 158.161 75.984V77.984ZM163.531 75.7116C164.829 74.1849 165.401 72.0613 165.401 69.496H163.401C163.401 71.7947 162.885 73.3831 162.007 74.4164L163.531 75.7116ZM165.401 69.496V23.608H163.401V69.496H165.401ZM164.401 24.608H180.817V22.608H164.401V24.608ZM208.477 87.256L207.988 88.1282L207.992 88.1307L208.477 87.256ZM195.901 74.968L195.035 75.4686L195.039 75.4748L195.043 75.481L195.901 74.968ZM195.901 39.352L195.043 38.839L195.038 38.8468L195.901 39.352ZM208.477 27.064L207.992 26.1893L207.988 26.1919L208.477 27.064ZM243.325 27.064L242.836 27.9362L242.84 27.9387L243.325 27.064ZM255.805 39.352L254.937 39.8493L254.942 39.8572L255.805 39.352ZM255.805 74.968L256.668 75.4732L256.671 75.4686L255.805 74.968ZM243.325 87.256L243.814 88.1281L243.325 87.256ZM238.813 71.32L238.074 70.6466L238.067 70.654L238.813 71.32ZM238.813 42.904L238.067 43.57L238.073 43.577L238.08 43.5839L238.813 42.904ZM212.893 42.808L212.16 42.128L212.153 42.1353L212.893 42.808ZM212.893 71.416L212.147 72.082L212.153 72.089L212.16 72.0959L212.893 71.416ZM225.949 90.672C219.775 90.672 214.119 89.2395 208.962 86.3813L207.992 88.1307C213.459 91.1605 219.451 92.672 225.949 92.672V90.672ZM208.966 86.3839C203.873 83.5267 199.807 79.5556 196.759 74.455L195.043 75.481C198.267 80.8764 202.585 85.0973 207.988 88.1281L208.966 86.3839ZM196.767 74.4674C193.789 69.3188 192.293 63.5417 192.293 57.112H190.293C190.293 63.8663 191.869 69.9932 195.035 75.4686L196.767 74.4674ZM192.293 57.112C192.293 50.6822 193.789 44.9392 196.764 39.8572L195.038 38.8468C191.869 44.2608 190.293 50.3578 190.293 57.112H192.293ZM196.759 39.865C199.807 34.7644 203.873 30.7933 208.966 27.9361L207.988 26.1919C202.585 29.2227 198.267 33.4436 195.043 38.839L196.759 39.865ZM208.962 27.9387C214.119 25.0805 219.775 23.648 225.949 23.648V21.648C219.451 21.648 213.459 23.1595 207.992 26.1893L208.962 27.9387ZM225.949 23.648C232.123 23.648 237.745 25.0805 242.836 27.9361L243.814 26.1919C238.409 23.1595 232.447 21.648 225.949 21.648V23.648ZM242.84 27.9387C247.993 30.7945 252.021 34.7603 254.937 39.8493L256.673 38.8547C253.573 33.4477 249.281 29.2215 243.81 26.1893L242.84 27.9387ZM254.942 39.8572C257.917 44.9392 259.413 50.6822 259.413 57.112H261.413C261.413 50.3578 259.837 44.2608 256.668 38.8468L254.942 39.8572ZM259.413 57.112C259.413 63.5417 257.917 69.3188 254.939 74.4674L256.671 75.4686C259.837 69.9932 261.413 63.8663 261.413 57.112H259.413ZM254.942 74.4628C251.959 79.5592 247.927 83.5278 242.836 86.3839L243.814 88.1281C249.219 85.0962 253.507 80.8728 256.668 75.4732L254.942 74.4628ZM242.836 86.3839C237.745 89.2395 232.123 90.672 225.949 90.672V92.672C232.447 92.672 238.409 91.1605 243.814 88.1281L242.836 86.3839ZM225.949 77.696C231.572 77.696 236.145 75.8091 239.559 71.986L238.067 70.654C235.081 73.9989 231.078 75.696 225.949 75.696V77.696ZM239.552 71.9933C243.018 68.1875 244.709 63.1929 244.709 57.112H242.709C242.709 62.8071 241.136 67.2845 238.074 70.6467L239.552 71.9933ZM244.709 57.112C244.709 50.9712 243.02 45.9707 239.546 42.2241L238.08 43.5839C241.134 46.8773 242.709 51.3488 242.709 57.112H244.709ZM239.559 42.238C236.145 38.4149 231.572 36.528 225.949 36.528V38.528C231.078 38.528 235.081 40.2251 238.067 43.57L239.559 42.238ZM225.949 36.528C220.272 36.528 215.639 38.3758 212.16 42.1281L213.626 43.4879C216.675 40.2002 220.746 38.528 225.949 38.528V36.528ZM212.153 42.1353C208.745 45.8843 207.093 50.9155 207.093 57.112H209.093C209.093 51.2765 210.641 46.7716 213.633 43.4807L212.153 42.1353ZM207.093 57.112C207.093 63.2486 208.747 68.2738 212.147 72.082L213.639 70.75C210.639 67.3902 209.093 62.8794 209.093 57.112H207.093ZM212.16 72.0959C215.639 75.8482 220.272 77.696 225.949 77.696V75.696C220.746 75.696 216.675 74.0238 213.626 70.7361L212.16 72.0959ZM327.338 23.608L328.226 24.0673L328.981 22.608H327.338V23.608ZM304.01 68.728L303.121 68.2687L303.01 68.4848V68.728H304.01ZM304.01 91V92H305.01V91H304.01ZM287.594 91H286.594V92H287.594V91ZM287.594 68.728H288.594V68.4848L288.482 68.2687L287.594 68.728ZM264.266 23.608V22.608H262.623L263.377 24.0673L264.266 23.608ZM282.89 23.608L283.797 23.1882L283.529 22.608H282.89V23.608ZM295.946 51.832L295.038 52.2518L295.949 54.2211L296.855 52.2493L295.946 51.832ZM308.906 23.608V22.608H308.265L307.997 23.1907L308.906 23.608ZM326.449 23.1487L303.121 68.2687L304.898 69.1873L328.226 24.0673L326.449 23.1487ZM303.01 68.728V91H305.01V68.728H303.01ZM304.01 90H287.594V92H304.01V90ZM288.594 91V68.728H286.594V91H288.594ZM288.482 68.2687L265.154 23.1487L263.377 24.0673L286.705 69.1873L288.482 68.2687ZM264.266 24.608H282.89V22.608H264.266V24.608ZM281.982 24.0278L295.038 52.2518L296.853 51.4122L283.797 23.1882L281.982 24.0278ZM296.855 52.2493L309.815 24.0253L307.997 23.1907L295.037 51.4147L296.855 52.2493ZM308.906 24.608H327.338V22.608H308.906V24.608ZM412.088 23.608L412.976 24.0673L413.731 22.608H412.088V23.608ZM388.76 68.728L387.871 68.2687L387.76 68.4848V68.728H388.76ZM388.76 91V92H389.76V91H388.76ZM372.344 91H371.344V92H372.344V91ZM372.344 68.728H373.344V68.4848L373.232 68.2687L372.344 68.728ZM349.016 23.608V22.608H347.373L348.127 24.0673L349.016 23.608ZM367.64 23.608L368.547 23.1882L368.279 22.608H367.64V23.608ZM380.696 51.832L379.788 52.2518L380.699 54.2211L381.605 52.2493L380.696 51.832ZM393.656 23.608V22.608H393.015L392.747 23.1907L393.656 23.608ZM411.199 23.1487L387.871 68.2687L389.648 69.1873L412.976 24.0673L411.199 23.1487ZM387.76 68.728V91H389.76V68.728H387.76ZM388.76 90H372.344V92H388.76V90ZM373.344 91V68.728H371.344V91H373.344ZM373.232 68.2687L349.904 23.1487L348.127 24.0673L371.455 69.1873L373.232 68.2687ZM349.016 24.608H367.64V22.608H349.016V24.608ZM366.732 24.0278L379.788 52.2518L381.603 51.4122L368.547 23.1882L366.732 24.0278ZM381.605 52.2493L394.565 24.0253L392.747 23.1907L379.787 51.4147L381.605 52.2493ZM393.656 24.608H412.088V22.608H393.656V24.608ZM433.102 87.256L432.613 88.1282L432.617 88.1307L433.102 87.256ZM420.526 74.968L419.66 75.4686L419.664 75.4748L419.668 75.481L420.526 74.968ZM420.526 39.352L419.668 38.839L419.663 38.8468L420.526 39.352ZM433.102 27.064L432.617 26.1893L432.613 26.1919L433.102 27.064ZM467.95 27.064L467.461 27.9362L467.465 27.9387L467.95 27.064ZM480.43 39.352L479.562 39.8493L479.567 39.8572L480.43 39.352ZM480.43 74.968L481.293 75.4732L481.296 75.4686L480.43 74.968ZM467.95 87.256L468.439 88.1281L467.95 87.256ZM463.438 71.32L462.699 70.6466L462.692 70.654L463.438 71.32ZM463.438 42.904L462.692 43.57L462.698 43.577L462.705 43.5839L463.438 42.904ZM437.518 42.808L436.785 42.128L436.778 42.1353L437.518 42.808ZM437.518 71.416L436.772 72.082L436.778 72.089L436.785 72.0959L437.518 71.416ZM450.574 90.672C444.4 90.672 438.744 89.2395 433.587 86.3813L432.617 88.1307C438.084 91.1605 444.076 92.672 450.574 92.672V90.672ZM433.591 86.3839C428.498 83.5267 424.432 79.5556 421.384 74.455L419.668 75.481C422.892 80.8764 427.21 85.0973 432.613 88.1281L433.591 86.3839ZM421.392 74.4674C418.414 69.3188 416.918 63.5417 416.918 57.112H414.918C414.918 63.8663 416.494 69.9932 419.66 75.4686L421.392 74.4674ZM416.918 57.112C416.918 50.6822 418.414 44.9392 421.389 39.8572L419.663 38.8468C416.494 44.2608 414.918 50.3578 414.918 57.112H416.918ZM421.384 39.865C424.432 34.7644 428.498 30.7933 433.591 27.9361L432.613 26.1919C427.21 29.2227 422.892 33.4436 419.668 38.839L421.384 39.865ZM433.587 27.9387C438.744 25.0805 444.4 23.648 450.574 23.648V21.648C444.076 21.648 438.084 23.1595 432.617 26.1893L433.587 27.9387ZM450.574 23.648C456.748 23.648 462.37 25.0805 467.461 27.9361L468.439 26.1919C463.034 23.1595 457.072 21.648 450.574 21.648V23.648ZM467.465 27.9387C472.618 30.7945 476.646 34.7603 479.562 39.8493L481.298 38.8547C478.198 33.4477 473.906 29.2215 468.435 26.1893L467.465 27.9387ZM479.567 39.8572C482.542 44.9392 484.038 50.6822 484.038 57.112H486.038C486.038 50.3578 484.462 44.2608 481.293 38.8468L479.567 39.8572ZM484.038 57.112C484.038 63.5417 482.542 69.3188 479.564 74.4674L481.296 75.4686C484.462 69.9932 486.038 63.8663 486.038 57.112H484.038ZM479.567 74.4628C476.584 79.5592 472.552 83.5278 467.461 86.3839L468.439 88.1281C473.844 85.0962 478.132 80.8728 481.293 75.4732L479.567 74.4628ZM467.461 86.3839C462.37 89.2395 456.748 90.672 450.574 90.672V92.672C457.072 92.672 463.034 91.1605 468.439 88.1281L467.461 86.3839ZM450.574 77.696C456.197 77.696 460.77 75.8091 464.184 71.986L462.692 70.654C459.706 73.9989 455.703 75.696 450.574 75.696V77.696ZM464.177 71.9933C467.643 68.1875 469.334 63.1929 469.334 57.112H467.334C467.334 62.8071 465.761 67.2845 462.699 70.6467L464.177 71.9933ZM469.334 57.112C469.334 50.9712 467.645 45.9707 464.171 42.2241L462.705 43.5839C465.759 46.8773 467.334 51.3488 467.334 57.112H469.334ZM464.184 42.238C460.77 38.4149 456.197 36.528 450.574 36.528V38.528C455.703 38.528 459.706 40.2251 462.692 43.57L464.184 42.238ZM450.574 36.528C444.897 36.528 440.264 38.3758 436.785 42.1281L438.251 43.4879C441.3 40.2002 445.371 38.528 450.574 38.528V36.528ZM436.778 42.1353C433.37 45.8843 431.718 50.9155 431.718 57.112H433.718C433.718 51.2765 435.266 46.7716 438.258 43.4807L436.778 42.1353ZM431.718 57.112C431.718 63.2486 433.372 68.2738 436.772 72.082L438.264 70.75C435.264 67.3902 433.718 62.8794 433.718 57.112H431.718ZM436.785 72.0959C440.264 75.8482 444.897 77.696 450.574 77.696V75.696C445.371 75.696 441.3 74.0238 438.251 70.7361L436.785 72.0959ZM510.299 23.608H511.299V22.608H510.299V23.608ZM513.275 73.24L512.536 73.9138L513.275 73.24ZM530.843 73.24L531.571 73.9254H531.571L530.843 73.24ZM533.915 23.608V22.608H532.915V23.608H533.915ZM550.331 23.608H551.331V22.608H550.331V23.608ZM546.491 79.096L547.342 79.6201L546.491 79.096ZM536.123 88.504L535.686 87.6043L535.681 87.6069L536.123 88.504ZM507.419 88.6L506.966 89.4917L506.974 89.4958L506.982 89.4998L507.419 88.6ZM497.531 79.192L496.664 79.691L496.667 79.6967L497.531 79.192ZM493.883 23.608V22.608H492.883V23.608H493.883ZM509.299 23.608V63.928H511.299V23.608H509.299ZM509.299 63.928C509.299 68.1164 510.33 71.4948 512.536 73.9138L514.014 72.5662C512.251 70.6332 511.299 67.8036 511.299 63.928H509.299ZM512.536 73.9138C514.763 76.3561 517.98 77.504 522.011 77.504V75.504C518.362 75.504 515.755 74.4759 514.014 72.5662L512.536 73.9138ZM522.011 77.504C526.043 77.504 529.284 76.3555 531.571 73.9254L530.115 72.5546C528.306 74.4765 525.658 75.504 522.011 75.504V77.504ZM531.571 73.9254C533.847 71.507 534.915 68.124 534.915 63.928H532.915C532.915 67.796 531.934 70.621 530.115 72.5546L531.571 73.9254ZM534.915 63.928V23.608H532.915V63.928H534.915ZM533.915 24.608H550.331V22.608H533.915V24.608ZM549.331 23.608V63.832H551.331V23.608H549.331ZM549.331 63.832C549.331 69.7057 548.082 74.6024 545.639 78.5719L547.342 79.6201C550.02 75.2696 551.331 69.9903 551.331 63.832H549.331ZM545.639 78.5719C543.178 82.5714 539.865 85.5763 535.686 87.6043L536.559 89.4037C541.084 87.2077 544.684 83.9406 547.342 79.6201L545.639 78.5719ZM535.681 87.6069C531.545 89.644 526.899 90.672 521.723 90.672V92.672C527.171 92.672 532.124 91.588 536.565 89.4011L535.681 87.6069ZM521.723 90.672C516.542 90.672 511.926 89.6741 507.855 87.7002L506.982 89.4998C511.359 91.6219 516.28 92.672 521.723 92.672V90.672ZM507.871 87.7083C503.888 85.6862 500.733 82.6873 498.394 78.6873L496.667 79.6967C499.193 84.0167 502.629 87.2898 506.966 89.4917L507.871 87.7083ZM498.397 78.693C496.071 74.6526 494.883 69.7136 494.883 63.832H492.883C492.883 69.9824 494.126 75.2834 496.664 79.691L498.397 78.693ZM494.883 63.832V23.608H492.883V63.832H494.883ZM493.883 24.608H510.299V22.608H493.883V24.608ZM596.226 91L595.35 91.4826L595.635 92H596.226V91ZM582.21 65.56L583.086 65.0774L582.801 64.56H582.21V65.56ZM578.274 65.56V64.56H577.274V65.56H578.274ZM578.274 91V92H579.274V91H578.274ZM561.858 91H560.858V92H561.858V91ZM561.858 23.608V22.608H560.858V23.608H561.858ZM602.946 26.392L602.499 27.2864L602.505 27.2894L602.946 26.392ZM611.394 34.072L610.525 34.5663L610.529 34.5737L611.394 34.072ZM610.338 56.824L609.529 56.2358L609.523 56.2456L610.338 56.824ZM599.202 64.312L598.916 63.3538L597.698 63.7175L598.338 64.8155L599.202 64.312ZM614.754 91V92H616.494L615.618 90.4965L614.754 91ZM578.274 53.944H577.274V54.944H578.274V53.944ZM595.17 51.736L594.478 51.014L594.471 51.0214L594.463 51.0289L595.17 51.736ZM595.17 39.448L594.463 40.1551L594.471 40.1626L594.478 40.17L595.17 39.448ZM578.274 37.24V36.24H577.274V37.24H578.274ZM597.102 90.5174L583.086 65.0774L581.334 66.0425L595.35 91.4826L597.102 90.5174ZM582.21 64.56H578.274V66.56H582.21V64.56ZM577.274 65.56V91H579.274V65.56H577.274ZM578.274 90H561.858V92H578.274V90ZM562.858 91V23.608H560.858V91H562.858ZM561.858 24.608H589.41V22.608H561.858V24.608ZM589.41 24.608C594.609 24.608 598.959 25.5165 602.499 27.2864L603.393 25.4976C599.509 23.5555 594.835 22.608 589.41 22.608V24.608ZM602.505 27.2894C606.124 29.0681 608.78 31.4972 610.525 34.5663L612.264 33.5777C610.297 30.1188 607.321 27.4279 603.387 25.4945L602.505 27.2894ZM610.529 34.5737C612.29 37.6102 613.178 41.019 613.178 44.824H615.178C615.178 40.693 614.21 36.9338 612.259 33.5703L610.529 34.5737ZM613.178 44.824C613.178 49.0993 611.961 52.892 609.53 56.2358L611.147 57.4122C613.835 53.716 615.178 49.5087 615.178 44.824H613.178ZM609.523 56.2456C607.179 59.5502 603.673 61.933 598.916 63.3538L599.488 65.2702C604.588 63.747 608.505 61.1377 611.154 57.4024L609.523 56.2456ZM598.338 64.8155L613.89 91.5035L615.618 90.4965L600.066 63.8085L598.338 64.8155ZM614.754 90H596.226V92H614.754V90ZM578.274 54.944H588.45V52.944H578.274V54.944ZM588.45 54.944C591.605 54.944 594.148 54.1724 595.877 52.4431L594.463 51.0289C593.248 52.2436 591.311 52.944 588.45 52.944V54.944ZM595.862 52.458C597.644 50.7505 598.474 48.3805 598.474 45.496H596.474C596.474 47.9875 595.769 49.7775 594.478 51.014L595.862 52.458ZM598.474 45.496C598.474 42.7231 597.634 40.4243 595.862 38.726L594.478 40.17C595.778 41.4157 596.474 43.1489 596.474 45.496H598.474ZM595.877 38.7409C594.148 37.0116 591.605 36.24 588.45 36.24V38.24C591.311 38.24 593.248 38.9404 594.463 40.1551L595.877 38.7409ZM588.45 36.24H578.274V38.24H588.45V36.24ZM577.274 37.24V53.944H579.274V37.24H577.274ZM721.147 23.608H722.147V22.608H721.147V23.608ZM721.147 91V92H722.147V91H721.147ZM704.731 91H703.731V92H704.731V91ZM704.731 50.584H705.731L703.794 50.2346L704.731 50.584ZM689.659 91V92H690.353L690.596 91.3494L689.659 91ZM676.411 91L675.474 91.3506L675.718 92H676.411V91ZM661.243 50.488L662.18 50.1374L660.243 50.488H661.243ZM661.243 91V92H662.243V91H661.243ZM644.827 91H643.827V92H644.827V91ZM644.827 23.608V22.608H643.827V23.608H644.827ZM664.219 23.608L665.146 23.2323L664.893 22.608H664.219V23.608ZM683.131 70.264L682.204 70.6397L683.136 72.9376L684.059 70.6364L683.131 70.264ZM701.851 23.608V22.608H701.175L700.923 23.2356L701.851 23.608ZM720.147 23.608V91H722.147V23.608H720.147ZM721.147 90H704.731V92H721.147V90ZM705.731 91V50.584H703.731V91H705.731ZM703.794 50.2346L688.722 90.6506L690.596 91.3494L705.668 50.9334L703.794 50.2346ZM689.659 90H676.411V92H689.659V90ZM677.348 90.6494L662.18 50.1374L660.307 50.8386L675.474 91.3506L677.348 90.6494ZM660.243 50.488V91H662.243V50.488H660.243ZM661.243 90H644.827V92H661.243V90ZM645.827 91V23.608H643.827V91H645.827ZM644.827 24.608L664.219 24.608V22.608L644.827 22.608V24.608ZM663.292 23.9837L682.204 70.6397L684.058 69.8883L665.146 23.2323L663.292 23.9837ZM684.059 70.6364L702.779 23.9804L700.923 23.2356L682.203 69.8916L684.059 70.6364ZM701.851 24.608H721.147V22.608H701.851V24.608ZM749.368 36.76V35.76H748.368V36.76H749.368ZM749.368 50.392H748.368V51.392H749.368V50.392ZM771.352 50.392H772.352V49.392H771.352V50.392ZM771.352 63.064V64.064H772.352V63.064H771.352ZM749.368 63.064V62.064H748.368V63.064H749.368ZM749.368 77.848H748.368V78.848H749.368V77.848ZM774.232 77.848H775.232V76.848H774.232V77.848ZM774.232 91V92H775.232V91H774.232ZM732.952 91H731.952V92H732.952V91ZM732.952 23.608V22.608H731.952V23.608H732.952ZM774.232 23.608H775.232V22.608H774.232V23.608ZM774.232 36.76V37.76H775.232V36.76H774.232ZM748.368 36.76V50.392H750.368V36.76H748.368ZM749.368 51.392H771.352V49.392H749.368V51.392ZM770.352 50.392V63.064H772.352V50.392H770.352ZM771.352 62.064H749.368V64.064H771.352V62.064ZM748.368 63.064V77.848H750.368V63.064H748.368ZM749.368 78.848H774.232V76.848H749.368V78.848ZM773.232 77.848V91H775.232V77.848H773.232ZM774.232 90H732.952V92H774.232V90ZM733.952 91V23.608H731.952V91H733.952ZM732.952 24.608H774.232V22.608H732.952V24.608ZM773.232 23.608V36.76H775.232V23.608H773.232ZM774.232 35.76H749.368V37.76H774.232V35.76ZM826.841 79.096L827.789 78.7752L827.559 78.096H826.841V79.096ZM801.69 79.096V78.096H800.972L800.742 78.7752L801.69 79.096ZM797.657 91V92H798.375L798.605 91.3208L797.657 91ZM780.474 91L779.533 90.6598L779.048 92H780.474V91ZM804.857 23.608V22.608H804.156L803.917 23.2678L804.857 23.608ZM823.865 23.608L824.806 23.2678L824.567 22.608H823.865V23.608ZM848.25 91V92H849.675L849.19 90.6598L848.25 91ZM830.873 91L829.926 91.3208L830.156 92H830.873V91ZM822.617 66.424V67.424H824.012L823.565 66.1034L822.617 66.424ZM814.266 41.752L815.213 41.4314L814.26 38.6171L813.317 41.4347L814.266 41.752ZM806.01 66.424L805.061 66.1067L804.62 67.424H806.01V66.424ZM826.841 78.096H801.69V80.096H826.841V78.096ZM800.742 78.7752L796.71 90.6792L798.605 91.3208L802.637 79.4168L800.742 78.7752ZM797.657 90H780.474V92H797.657V90ZM781.414 91.3402L805.798 23.9482L803.917 23.2678L779.533 90.6598L781.414 91.3402ZM804.857 24.608H823.865V22.608H804.857V24.608ZM822.925 23.9482L847.309 91.3402L849.19 90.6598L824.806 23.2678L822.925 23.9482ZM848.25 90H830.873V92H848.25V90ZM831.821 90.6792L827.789 78.7752L825.894 79.4168L829.926 91.3208L831.821 90.6792ZM823.565 66.1034L815.213 41.4314L813.318 42.0726L821.67 66.7446L823.565 66.1034ZM813.317 41.4347L805.061 66.1067L806.958 66.7413L815.214 42.0693L813.317 41.4347ZM806.01 67.424H822.617V65.424H806.01V67.424ZM872.087 78.328H871.087V79.328H872.087V78.328ZM893.591 78.328H894.591V77.328H893.591V78.328ZM893.591 91V92H894.591V91H893.591ZM855.671 91H854.671V92H855.671V91ZM855.671 23.608V22.608H854.671V23.608H855.671ZM872.087 23.608H873.087V22.608H872.087V23.608ZM872.087 79.328H893.591V77.328H872.087V79.328ZM892.591 78.328V91H894.591V78.328H892.591ZM893.591 90H855.671V92H893.591V90ZM856.671 91V23.608H854.671V91H856.671ZM855.671 24.608H872.087V22.608H855.671V24.608ZM871.087 23.608V78.328H873.087V23.608H871.087Z" fill="#1E1E2D"/>
<circle cx="919.5" cy="57.5" r="8" fill="#1E1E2D"/>
<path d="M997.932 23.608V36.76H980.076V91H963.66V36.76H945.804V23.608H997.932ZM1048.12 79.096H1022.97L1018.94 91H1001.75L1026.14 23.608H1045.15L1069.53 91H1052.15L1048.12 79.096ZM1043.9 66.424L1035.55 41.752L1027.29 66.424H1043.9ZM1101.34 91.672C1096.41 91.672 1091.99 90.872 1088.09 89.272C1084.18 87.672 1081.05 85.304 1078.68 82.168C1076.38 79.032 1075.16 75.256 1075.03 70.84H1092.5C1092.76 73.336 1093.62 75.256 1095.1 76.6C1096.57 77.88 1098.49 78.52 1100.86 78.52C1103.29 78.52 1105.21 77.976 1106.62 76.888C1108.02 75.736 1108.73 74.168 1108.73 72.184C1108.73 70.52 1108.15 69.144 1107 68.056C1105.91 66.968 1104.54 66.072 1102.87 65.368C1101.27 64.664 1098.97 63.864 1095.96 62.968C1091.61 61.624 1088.06 60.28 1085.3 58.936C1082.55 57.592 1080.18 55.608 1078.2 52.984C1076.22 50.36 1075.22 46.936 1075.22 42.712C1075.22 36.44 1077.5 31.544 1082.04 28.024C1086.58 24.44 1092.5 22.648 1099.8 22.648C1107.22 22.648 1113.21 24.44 1117.75 28.024C1122.3 31.544 1124.73 36.472 1125.05 42.808H1107.29C1107.16 40.632 1106.36 38.936 1104.89 37.72C1103.42 36.44 1101.53 35.8 1099.22 35.8C1097.24 35.8 1095.64 36.344 1094.42 37.432C1093.21 38.456 1092.6 39.96 1092.6 41.944C1092.6 44.12 1093.62 45.816 1095.67 47.032C1097.72 48.248 1100.92 49.56 1105.27 50.968C1109.62 52.44 1113.14 53.848 1115.83 55.192C1118.58 56.536 1120.95 58.488 1122.94 61.048C1124.92 63.608 1125.91 66.904 1125.91 70.936C1125.91 74.776 1124.92 78.264 1122.94 81.4C1121.02 84.536 1118.2 87.032 1114.49 88.888C1110.78 90.744 1106.39 91.672 1101.34 91.672ZM1184.49 23.608V36.76H1166.64V91H1150.22V36.76H1132.37V23.608H1184.49ZM1250.53 23.608L1227.2 68.728V91H1210.78V68.728L1187.45 23.608H1206.08L1219.13 51.832L1232.09 23.608H1250.53ZM1322.22 44.92C1321 42.68 1319.24 40.984 1316.94 39.832C1314.7 38.616 1312.04 38.008 1308.97 38.008C1303.66 38.008 1299.4 39.768 1296.2 43.288C1293 46.744 1291.4 51.384 1291.4 57.208C1291.4 63.416 1293.07 68.28 1296.4 71.8C1299.79 75.256 1304.43 76.984 1310.32 76.984C1314.35 76.984 1317.74 75.96 1320.49 73.912C1323.31 71.864 1325.36 68.92 1326.64 65.08H1305.8V52.984H1341.52V68.248C1340.3 72.344 1338.22 76.152 1335.28 79.672C1332.4 83.192 1328.72 86.04 1324.24 88.216C1319.76 90.392 1314.7 91.48 1309.07 91.48C1302.41 91.48 1296.46 90.04 1291.21 87.16C1286.03 84.216 1281.96 80.152 1279.02 74.968C1276.14 69.784 1274.7 63.864 1274.7 57.208C1274.7 50.552 1276.14 44.632 1279.02 39.448C1281.96 34.2 1286.03 30.136 1291.21 27.256C1296.4 24.312 1302.32 22.84 1308.97 22.84C1317.04 22.84 1323.82 24.792 1329.32 28.696C1334.89 32.6 1338.57 38.008 1340.36 44.92H1322.22ZM1382.48 91.672C1376.14 91.672 1370.32 90.2 1365.01 87.256C1359.76 84.312 1355.57 80.216 1352.43 74.968C1349.36 69.656 1347.82 63.704 1347.82 57.112C1347.82 50.52 1349.36 44.6 1352.43 39.352C1355.57 34.104 1359.76 30.008 1365.01 27.064C1370.32 24.12 1376.14 22.648 1382.48 22.648C1388.82 22.648 1394.61 24.12 1399.86 27.064C1405.17 30.008 1409.33 34.104 1412.34 39.352C1415.41 44.6 1416.94 50.52 1416.94 57.112C1416.94 63.704 1415.41 69.656 1412.34 74.968C1409.26 80.216 1405.1 84.312 1399.86 87.256C1394.61 90.2 1388.82 91.672 1382.48 91.672ZM1382.48 76.696C1387.86 76.696 1392.14 74.904 1395.34 71.32C1398.61 67.736 1400.24 63 1400.24 57.112C1400.24 51.16 1398.61 46.424 1395.34 42.904C1392.14 39.32 1387.86 37.528 1382.48 37.528C1377.04 37.528 1372.69 39.288 1369.42 42.808C1366.22 46.328 1364.62 51.096 1364.62 57.112C1364.62 63.064 1366.22 67.832 1369.42 71.416C1372.69 74.936 1377.04 76.696 1382.48 76.696Z" fill="#F9854E"/>
<circle cx="1444.5" cy="57.5" r="8" fill="#1E1E2D"/>
</svg>
